<ttFont>
<head>
    <!-- Most of this table will be recalculated by the compiler -->
    <tableVersion value="1.0"/>
    <fontRevision value="1.29999"/>
    <checkSumAdjustment value="0x936008e5"/>
    <magicNumber value="0x5f0f3cf5"/>
    <flags value="00001000 00011111"/>
    <unitsPerEm value="1000"/>
    <created value="Mon Oct 16 09:12:14 2017"/>
    <modified value="Wed Oct 18 11:57:27 2017"/>
    <xMin value="-309"/>
    <yMin value="-299"/>
    <xMax value="1229"/>
    <yMax value="960"/>
    <macStyle value="00000000 00000000"/>
    <lowestRecPPEM value="8"/>
    <fontDirectionHint value="2"/>
    <indexToLocFormat value="1"/>
    <glyphDataFormat value="0"/>
  </head>
    <TTGlyph name=".notdef" xMin="-63" yMin="-290" xMax="911" yMax="960">
      <contour>
        <pt x="456" y="-290" on="1"/>
        <pt x="-63" y="-290" on="1"/>
        <pt x="392" y="960" on="1"/>
        <pt x="911" y="960" on="1"/>
      </contour>
      <contour>
        <pt x="473" y="897" on="1"/>
        <pt x="459" y="437" on="1"/>
        <pt x="777" y="897" on="1"/>
      </contour>
      <contour>
        <pt x="64" y="-136" on="1"/>
        <pt x="393" y="341" on="1"/>
        <pt x="407" y="810" on="1"/>
      </contour>
      <contour>
        <pt x="785" y="807" on="1"/>
        <pt x="455" y="329" on="1"/>
        <pt x="441" y="-141" on="1"/>
      </contour>
      <contour>
        <pt x="375" y="-228" on="1"/>
        <pt x="389" y="233" on="1"/>
        <pt x="71" y="-228" on="1"/>
      </contour>
    </TTGlyph>
    <TTGlyph name="A" xMin="49" yMin="-45" xMax="538" yMax="679">
      <contour>
        <pt x="69" y="-33" on="1"/>
        <pt x="58" y="-27" on="0"/>
        <pt x="49" y="-17" on="0"/>
        <pt x="49" y="-9" on="1"/>
        <pt x="49" y="1" on="0"/>
        <pt x="66" y="38" on="0"/>
        <pt x="87" y="78" on="1"/>
        <pt x="93" y="91" on="0"/>
        <pt x="110" y="124" on="1"/>
        <pt x="168" y="235" on="0"/>
        <pt x="168" y="245" on="1"/>
        <pt x="167" y="247" on="0"/>
        <pt x="167" y="251" on="1"/>
        <pt x="167" y="261" on="0"/>
        <pt x="183" y="269" on="1"/>
        <pt x="206" y="292" on="0"/>
        <pt x="221" y="318" on="1"/>
        <pt x="231" y="340" on="0"/>
        <pt x="265" y="401" on="0"/>
        <pt x="290" y="443" on="1"/>
        <pt x="302" y="464" on="0"/>
        <pt x="326" y="504" on="1"/>
        <pt x="363" y="570" on="0"/>
        <pt x="421" y="648" on="1"/>
        <pt x="444" y="679" on="0"/>
        <pt x="459" y="678" on="1"/>
        <pt x="478" y="678" on="0"/>
        <pt x="525" y="643" on="0"/>
        <pt x="534" y="621" on="1"/>
        <pt x="538" y="614" on="0"/>
        <pt x="538" y="591" on="1"/>
        <pt x="538" y="560" on="0"/>
        <pt x="531" y="486" on="1"/>
        <pt x="529" y="473" on="0"/>
        <pt x="527" y="445" on="1"/>
        <pt x="524" y="400" on="0"/>
        <pt x="518" y="349" on="1"/>
        <pt x="507" y="237" on="0"/>
        <pt x="497" y="111" on="0"/>
        <pt x="497" y="56" on="1"/>
        <pt x="497" y="28" on="0"/>
        <pt x="498" y="15" on="1"/>
        <pt x="498" y="8" on="1"/>
        <pt x="497" y="-15" on="1"/>
        <pt x="491" y="-21" on="0"/>
        <pt x="479" y="-21" on="1"/>
        <pt x="465" y="-21" on="0"/>
        <pt x="439" y="-8" on="0"/>
        <pt x="437" y="1" on="1"/>
        <pt x="436" y="2" on="0"/>
        <pt x="432" y="4" on="0"/>
        <pt x="432" y="12" on="1"/>
        <pt x="433" y="34" on="1"/>
        <pt x="436" y="90" on="1"/>
        <pt x="441" y="252" on="1"/>
        <pt x="428" y="251" on="1"/>
        <pt x="408" y="251" on="0"/>
        <pt x="270" y="235" on="0"/>
        <pt x="253" y="230" on="1"/>
        <pt x="244" y="230" on="0"/>
        <pt x="218" y="206" on="0"/>
        <pt x="208" y="187" on="1"/>
        <pt x="205" y="177" on="0"/>
        <pt x="183" y="140" on="0"/>
        <pt x="183" y="137" on="1"/>
        <pt x="177" y="133" on="0"/>
        <pt x="168" y="120" on="0"/>
        <pt x="167" y="118" on="1"/>
        <pt x="167" y="107" on="0"/>
        <pt x="126" y="17" on="0"/>
        <pt x="106" y="-13" on="1"/>
        <pt x="85" y="-45" on="1"/>
      </contour>
      <contour>
        <pt x="282" y="290" on="0"/>
        <pt x="322" y="297" on="0"/>
        <pt x="338" y="298" on="1"/>
        <pt x="410" y="315" on="0"/>
        <pt x="426" y="315" on="1"/>
        <pt x="433" y="315" on="0"/>
        <pt x="439" y="312" on="1"/>
        <pt x="442" y="308" on="0"/>
        <pt x="449" y="305" on="0"/>
        <pt x="450" y="305" on="1"/>
        <pt x="452" y="311" on="0"/>
        <pt x="473" y="516" on="0"/>
        <pt x="474" y="550" on="1"/>
        <pt x="477" y="600" on="1"/>
        <pt x="471" y="600" on="0"/>
        <pt x="431" y="554" on="0"/>
        <pt x="382" y="481" on="0"/>
        <pt x="363" y="443" on="1"/>
        <pt x="353" y="425" on="0"/>
        <pt x="334" y="394" on="0"/>
        <pt x="330" y="394" on="1"/>
        <pt x="323" y="387" on="0"/>
        <pt x="271" y="293" on="0"/>
        <pt x="276" y="289" on="1"/>
      </contour>
    </TTGlyph>
    <TTGlyph name="A.ss01" xMin="65" yMin="-79" xMax="514" yMax="651">
      <contour>
        <pt x="467" y="-79" on="0"/>
        <pt x="456" y="-66" on="1"/>
        <pt x="444" y="-54" on="0"/>
        <pt x="444" y="-30" on="1"/>
        <pt x="444" y="16" on="0"/>
        <pt x="442" y="33" on="1"/>
        <pt x="441" y="101" on="1"/>
        <pt x="441" y="128" on="0"/>
        <pt x="444" y="133" on="1"/>
        <pt x="443" y="138" on="0"/>
        <pt x="443" y="148" on="1"/>
        <pt x="443" y="157" on="0"/>
        <pt x="446" y="182" on="0"/>
        <pt x="446" y="189" on="1"/>
        <pt x="442" y="216" on="1"/>
        <pt x="387" y="216" on="1"/>
        <pt x="371" y="214" on="0"/>
        <pt x="353" y="214" on="1"/>
        <pt x="318" y="214" on="0"/>
        <pt x="241" y="219" on="1"/>
        <pt x="228" y="198" on="1"/>
        <pt x="207" y="166" on="0"/>
        <pt x="196" y="139" on="1"/>
        <pt x="174" y="82" on="0"/>
        <pt x="153" y="51" on="1"/>
        <pt x="125" y="-3" on="0"/>
        <pt x="115" y="-3" on="1"/>
        <pt x="109" y="-3" on="1"/>
        <pt x="102" y="-3" on="0"/>
        <pt x="91" y="0" on="0"/>
        <pt x="83" y="6" on="1"/>
        <pt x="65" y="14" on="0"/>
        <pt x="65" y="30" on="1"/>
        <pt x="65" y="50" on="0"/>
        <pt x="88" y="82" on="1"/>
        <pt x="101" y="103" on="1"/>
        <pt x="101" y="109" on="0"/>
        <pt x="153" y="209" on="0"/>
        <pt x="162" y="213" on="1"/>
        <pt x="171" y="222" on="0"/>
        <pt x="171" y="231" on="1"/>
        <pt x="171" y="241" on="0"/>
        <pt x="159" y="251" on="1"/>
        <pt x="153" y="254" on="0"/>
        <pt x="153" y="259" on="1"/>
        <pt x="153" y="265" on="0"/>
        <pt x="167" y="275" on="0"/>
        <pt x="176" y="275" on="1"/>
        <pt x="181" y="278" on="0"/>
        <pt x="190" y="282" on="0"/>
        <pt x="195" y="285" on="0"/>
        <pt x="195" y="288" on="1"/>
        <pt x="195" y="293" on="0"/>
        <pt x="243" y="386" on="0"/>
        <pt x="256" y="402" on="1"/>
        <pt x="266" y="429" on="0"/>
        <pt x="281" y="453" on="0"/>
        <pt x="283" y="458" on="1"/>
        <pt x="288" y="463" on="0"/>
        <pt x="303" y="491" on="1"/>
        <pt x="305" y="494" on="0"/>
        <pt x="316" y="513" on="1"/>
        <pt x="326" y="523" on="0"/>
        <pt x="347" y="550" on="0"/>
        <pt x="350" y="554" on="1"/>
        <pt x="354" y="561" on="0"/>
        <pt x="362" y="571" on="1"/>
        <pt x="367" y="583" on="0"/>
        <pt x="393" y="618" on="0"/>
        <pt x="396" y="622" on="1"/>
        <pt x="410" y="638" on="0"/>
        <pt x="427" y="651" on="0"/>
        <pt x="437" y="651" on="1"/>
        <pt x="446" y="651" on="0"/>
        <pt x="458" y="645" on="1"/>
        <pt x="481" y="635" on="0"/>
        <pt x="503" y="591" on="0"/>
        <pt x="506" y="549" on="1"/>
        <pt x="507" y="542" on="0"/>
        <pt x="514" y="494" on="0"/>
        <pt x="514" y="476" on="1"/>
        <pt x="514" y="463" on="0"/>
        <pt x="511" y="455" on="1"/>
        <pt x="511" y="411" on="1"/>
        <pt x="511" y="378" on="0"/>
        <pt x="513" y="362" on="1"/>
        <pt x="510" y="351" on="0"/>
        <pt x="510" y="326" on="1"/>
        <pt x="511" y="287" on="1"/>
        <pt x="511" y="272" on="0"/>
        <pt x="510" y="262" on="1"/>
        <pt x="509" y="225" on="1"/>
        <pt x="508" y="188" on="1"/>
        <pt x="507" y="163" on="0"/>
        <pt x="507" y="125" on="1"/>
        <pt x="508" y="62" on="1"/>
        <pt x="508" y="23" on="1"/>
        <pt x="508" y="-34" on="0"/>
        <pt x="495" y="-77" on="0"/>
        <pt x="475" y="-79" on="1"/>
      </contour>
      <contour>
        <pt x="279" y="272" on="0"/>
        <pt x="324" y="276" on="0"/>
        <pt x="347" y="275" on="1"/>
        <pt x="375" y="277" on="0"/>
        <pt x="385" y="277" on="1"/>
        <pt x="398" y="277" on="0"/>
        <pt x="426" y="276" on="0"/>
        <pt x="428" y="277" on="1"/>
        <pt x="447" y="276" on="0"/>
        <pt x="447" y="312" on="1"/>
        <pt x="442" y="364" on="0"/>
        <pt x="442" y="461" on="1"/>
        <pt x="442" y="498" on="0"/>
        <pt x="443" y="511" on="1"/>
        <pt x="443" y="527" on="0"/>
        <pt x="440" y="557" on="0"/>
        <pt x="439" y="561" on="1"/>
        <pt x="435" y="566" on="0"/>
        <pt x="371" y="487" on="0"/>
        <pt x="360" y="468" on="1"/>
        <pt x="354" y="460" on="0"/>
        <pt x="344" y="440" on="1"/>
        <pt x="339" y="432" on="0"/>
        <pt x="328" y="410" on="0"/>
        <pt x="320" y="397" on="1"/>
        <pt x="267" y="315" on="0"/>
        <pt x="267" y="282" on="1"/>
        <pt x="267" y="273" on="0"/>
        <pt x="272" y="271" on="1"/>
      </contour>
    </TTGlyph>
    <TTGlyph name="A.ss02" xMin="78" yMin="-103" xMax="520" yMax="672">
      <contour>
        <pt x="454" y="-96" on="0"/>
        <pt x="449" y="-103" on="0"/>
        <pt x="443" y="-103" on="1"/>
        <pt x="431" y="-103" on="0"/>
        <pt x="414" y="-90" on="1"/>
        <pt x="406" y="-90" on="0"/>
        <pt x="400" y="-76" on="0"/>
        <pt x="400" y="-59" on="1"/>
        <pt x="400" y="-33" on="0"/>
        <pt x="411" y="44" on="1"/>
        <pt x="417" y="74" on="0"/>
        <pt x="419" y="150" on="1"/>
        <pt x="425" y="194" on="1"/>
        <pt x="400" y="194" on="1"/>
        <pt x="386" y="189" on="0"/>
        <pt x="346" y="189" on="1"/>
        <pt x="307" y="190" on="1"/>
        <pt x="265" y="191" on="0"/>
        <pt x="226" y="180" on="0"/>
        <pt x="222" y="166" on="1"/>
        <pt x="222" y="161" on="0"/>
        <pt x="202" y="112" on="0"/>
        <pt x="189" y="86" on="1"/>
        <pt x="159" y="13" on="0"/>
        <pt x="124" y="-47" on="0"/>
        <pt x="107" y="-47" on="1"/>
        <pt x="95" y="-47" on="0"/>
        <pt x="84" y="-37" on="1"/>
        <pt x="78" y="-37" on="0"/>
        <pt x="78" y="-27" on="1"/>
        <pt x="78" y="-7" on="0"/>
        <pt x="98" y="31" on="1"/>
        <pt x="106" y="42" on="0"/>
        <pt x="122" y="70" on="0"/>
        <pt x="124" y="74" on="1"/>
        <pt x="124" y="91" on="0"/>
        <pt x="157" y="154" on="1"/>
        <pt x="161" y="166" on="0"/>
        <pt x="170" y="189" on="0"/>
        <pt x="170" y="192" on="1"/>
        <pt x="189" y="229" on="1"/>
        <pt x="189" y="232" on="0"/>
        <pt x="196" y="247" on="0"/>
        <pt x="196" y="254" on="1"/>
        <pt x="200" y="258" on="0"/>
        <pt x="211" y="289" on="0"/>
        <pt x="215" y="297" on="1"/>
        <pt x="215" y="314" on="0"/>
        <pt x="234" y="351" on="0"/>
        <pt x="235" y="353" on="1"/>
        <pt x="237" y="358" on="0"/>
        <pt x="248" y="380" on="0"/>
        <pt x="248" y="384" on="1"/>
        <pt x="248" y="386" on="0"/>
        <pt x="253" y="400" on="0"/>
        <pt x="261" y="416" on="1"/>
        <pt x="259" y="416" on="0"/>
        <pt x="259" y="417" on="1"/>
        <pt x="259" y="420" on="0"/>
        <pt x="274" y="439" on="1"/>
        <pt x="274" y="446" on="0"/>
        <pt x="284" y="471" on="0"/>
        <pt x="287" y="483" on="1"/>
        <pt x="292" y="488" on="0"/>
        <pt x="298" y="508" on="0"/>
        <pt x="300" y="514" on="1"/>
        <pt x="309" y="537" on="0"/>
        <pt x="324" y="567" on="0"/>
        <pt x="326" y="571" on="1"/>
        <pt x="327" y="573" on="0"/>
        <pt x="335" y="589" on="0"/>
        <pt x="339" y="601" on="1"/>
        <pt x="341" y="607" on="0"/>
        <pt x="352" y="633" on="0"/>
        <pt x="352" y="638" on="1"/>
        <pt x="358" y="638" on="0"/>
        <pt x="365" y="648" on="0"/>
        <pt x="365" y="657" on="1"/>
        <pt x="367" y="669" on="0"/>
        <pt x="391" y="668" on="1"/>
        <pt x="406" y="672" on="0"/>
        <pt x="422" y="672" on="1"/>
        <pt x="465" y="672" on="0"/>
        <pt x="517" y="612" on="0"/>
        <pt x="520" y="560" on="1"/>
        <pt x="519" y="504" on="0"/>
        <pt x="506" y="319" on="0"/>
        <pt x="495" y="237" on="1"/>
        <pt x="490" y="204" on="0"/>
        <pt x="481" y="115" on="0"/>
        <pt x="480" y="87" on="1"/>
        <pt x="473" y="-4" on="0"/>
        <pt x="461" y="-87" on="0"/>
        <pt x="452" y="-91" on="1"/>
      </contour>
      <contour>
        <pt x="302" y="246" on="0"/>
        <pt x="320" y="252" on="1"/>
        <pt x="366" y="250" on="0"/>
        <pt x="389" y="257" on="1"/>
        <pt x="416" y="261" on="0"/>
        <pt x="433" y="265" on="0"/>
        <pt x="440" y="280" on="0"/>
        <pt x="440" y="299" on="1"/>
        <pt x="441" y="343" on="1"/>
        <pt x="446" y="387" on="0"/>
        <pt x="455" y="526" on="0"/>
        <pt x="455" y="562" on="1"/>
        <pt x="455" y="582" on="0"/>
        <pt x="453" y="586" on="1"/>
        <pt x="453" y="595" on="0"/>
        <pt x="439" y="606" on="0"/>
        <pt x="433" y="606" on="1"/>
        <pt x="408" y="606" on="0"/>
        <pt x="378" y="538" on="1"/>
        <pt x="373" y="523" on="0"/>
        <pt x="333" y="428" on="1"/>
        <pt x="306" y="363" on="0"/>
        <pt x="300" y="346" on="1"/>
        <pt x="298" y="344" on="0"/>
        <pt x="292" y="331" on="0"/>
        <pt x="289" y="326" on="1"/>
        <pt x="280" y="307" on="0"/>
        <pt x="274" y="296" on="1"/>
        <pt x="263" y="277" on="0"/>
        <pt x="263" y="262" on="1"/>
        <pt x="263" y="252" on="0"/>
        <pt x="274" y="244" on="0"/>
        <pt x="283" y="246" on="1"/>
      </contour>
    </TTGlyph>
    <TTGlyph name="AE" xMin="58" yMin="-48" xMax="906" yMax="644">
      <contour>
        <pt x="504" y="-48" on="0"/>
        <pt x="445" y="-37" on="0"/>
        <pt x="422" y="-19" on="1"/>
        <pt x="403" y="-5" on="0"/>
        <pt x="386" y="31" on="0"/>
        <pt x="386" y="58" on="1"/>
        <pt x="386" y="93" on="0"/>
        <pt x="401" y="150" on="1"/>
        <pt x="408" y="189" on="0"/>
        <pt x="417" y="206" on="1"/>
        <pt x="405" y="206" on="1"/>
        <pt x="389" y="204" on="0"/>
        <pt x="371" y="204" on="1"/>
        <pt x="336" y="204" on="0"/>
        <pt x="261" y="209" on="1"/>
        <pt x="244" y="188" on="1"/>
        <pt x="242" y="185" on="0"/>
        <pt x="216" y="151" on="0"/>
        <pt x="204" y="129" on="1"/>
        <pt x="170" y="66" on="0"/>
        <pt x="149" y="41" on="1"/>
        <pt x="113" y="-13" on="0"/>
        <pt x="103" y="-13" on="1"/>
        <pt x="97" y="-13" on="1"/>
        <pt x="83" y="-13" on="0"/>
        <pt x="73" y="-4" on="1"/>
        <pt x="58" y="4" on="0"/>
        <pt x="58" y="17" on="1"/>
        <pt x="58" y="38" on="0"/>
        <pt x="88" y="72" on="1"/>
        <pt x="94" y="79" on="0"/>
        <pt x="102" y="91" on="0"/>
        <pt x="103" y="93" on="1"/>
        <pt x="105" y="100" on="0"/>
        <pt x="172" y="199" on="0"/>
        <pt x="180" y="203" on="1"/>
        <pt x="192" y="214" on="0"/>
        <pt x="192" y="224" on="1"/>
        <pt x="192" y="232" on="0"/>
        <pt x="183" y="241" on="1"/>
        <pt x="178" y="244" on="0"/>
        <pt x="178" y="248" on="1"/>
        <pt x="178" y="254" on="0"/>
        <pt x="195" y="265" on="0"/>
        <pt x="204" y="265" on="1"/>
        <pt x="209" y="268" on="0"/>
        <pt x="218" y="272" on="0"/>
        <pt x="223" y="275" on="0"/>
        <pt x="223" y="278" on="1"/>
        <pt x="225" y="284" on="0"/>
        <pt x="286" y="377" on="0"/>
        <pt x="300" y="392" on="1"/>
        <pt x="315" y="420" on="0"/>
        <pt x="332" y="444" on="0"/>
        <pt x="335" y="448" on="1"/>
        <pt x="342" y="453" on="0"/>
        <pt x="376" y="503" on="1"/>
        <pt x="389" y="513" on="0"/>
        <pt x="416" y="545" on="1"/>
        <pt x="430" y="561" on="1"/>
        <pt x="440" y="578" on="0"/>
        <pt x="472" y="612" on="1"/>
        <pt x="489" y="628" on="0"/>
        <pt x="507" y="641" on="0"/>
        <pt x="516" y="641" on="1"/>
        <pt x="524" y="641" on="0"/>
        <pt x="536" y="635" on="1"/>
        <pt x="546" y="630" on="0"/>
        <pt x="587" y="623" on="1"/>
        <pt x="623" y="616" on="1"/>
        <pt x="669" y="633" on="0"/>
        <pt x="709" y="636" on="1"/>
        <pt x="715" y="640" on="0"/>
        <pt x="757" y="644" on="0"/>
        <pt x="783" y="644" on="1"/>
        <pt x="801" y="644" on="0"/>
        <pt x="833" y="642" on="1"/>
        <pt x="849" y="642" on="0"/>
        <pt x="872" y="635" on="0"/>
        <pt x="890" y="626" on="0"/>
        <pt x="894" y="624" on="1"/>
        <pt x="900" y="618" on="0"/>
        <pt x="906" y="597" on="0"/>
        <pt x="906" y="594" on="1"/>
        <pt x="906" y="589" on="0"/>
        <pt x="861" y="587" on="0"/>
        <pt x="817" y="587" on="1"/>
        <pt x="780" y="587" on="0"/>
        <pt x="728" y="578" on="1"/>
        <pt x="709" y="575" on="0"/>
        <pt x="701" y="575" on="1"/>
        <pt x="689" y="571" on="0"/>
        <pt x="669" y="569" on="0"/>
        <pt x="666" y="569" on="1"/>
        <pt x="662" y="569" on="0"/>
        <pt x="600" y="466" on="0"/>
        <pt x="599" y="459" on="1"/>
        <pt x="599" y="450" on="0"/>
        <pt x="587" y="430" on="0"/>
        <pt x="572" y="409" on="1"/>
        <pt x="559" y="391" on="0"/>
        <pt x="559" y="381" on="1"/>
        <pt x="559" y="373" on="0"/>
        <pt x="565" y="371" on="1"/>
        <pt x="596" y="376" on="0"/>
        <pt x="685" y="385" on="0"/>
        <pt x="706" y="385" on="1"/>
        <pt x="717" y="388" on="0"/>
        <pt x="724" y="388" on="1"/>
        <pt x="738" y="388" on="0"/>
        <pt x="750" y="381" on="1"/>
        <pt x="761" y="379" on="0"/>
        <pt x="772" y="370" on="0"/>
        <pt x="772" y="365" on="1"/>
        <pt x="772" y="358" on="0"/>
        <pt x="764" y="355" on="1"/>
        <pt x="755" y="346" on="0"/>
        <pt x="651" y="318" on="0"/>
        <pt x="538" y="295" on="0"/>
        <pt x="531" y="297" on="1"/>
        <pt x="528" y="305" on="0"/>
        <pt x="525" y="302" on="0"/>
        <pt x="511" y="263" on="0"/>
        <pt x="500" y="238" on="1"/>
        <pt x="483" y="200" on="0"/>
        <pt x="463" y="135" on="0"/>
        <pt x="455" y="88" on="1"/>
        <pt x="449" y="64" on="0"/>
        <pt x="449" y="57" on="1"/>
        <pt x="449" y="43" on="0"/>
        <pt x="466" y="22" on="0"/>
        <pt x="487" y="13" on="1"/>
        <pt x="504" y="10" on="0"/>
        <pt x="527" y="10" on="1"/>
        <pt x="570" y="10" on="0"/>
        <pt x="617" y="22" on="1"/>
        <pt x="633" y="31" on="0"/>
        <pt x="666" y="47" on="0"/>
        <pt x="672" y="50" on="1"/>
        <pt x="679" y="51" on="0"/>
        <pt x="696" y="55" on="0"/>
        <pt x="702" y="55" on="1"/>
        <pt x="710" y="66" on="0"/>
        <pt x="722" y="66" on="1"/>
        <pt x="725" y="66" on="0"/>
        <pt x="753" y="34" on="0"/>
        <pt x="752" y="30" on="1"/>
        <pt x="752" y="20" on="0"/>
        <pt x="717" y="3" on="0"/>
        <pt x="658" y="-20" on="1"/>
        <pt x="616" y="-38" on="0"/>
        <pt x="583" y="-48" on="0"/>
        <pt x="551" y="-48" on="1"/>
      </contour>
      <contour>
        <pt x="305" y="262" on="0"/>
        <pt x="352" y="266" on="0"/>
        <pt x="375" y="265" on="1"/>
        <pt x="388" y="266" on="0"/>
        <pt x="435" y="266" on="1"/>
        <pt x="440" y="285" on="0"/>
        <pt x="446" y="291" on="1"/>
        <pt x="450" y="294" on="0"/>
        <pt x="458" y="318" on="1"/>
        <pt x="458" y="320" on="0"/>
        <pt x="460" y="334" on="0"/>
        <pt x="464" y="343" on="1"/>
        <pt x="479" y="368" on="0"/>
        <pt x="479" y="376" on="1"/>
        <pt x="480" y="379" on="0"/>
        <pt x="494" y="397" on="0"/>
        <pt x="498" y="409" on="1"/>
        <pt x="553" y="506" on="0"/>
        <pt x="567" y="547" on="1"/>
        <pt x="531" y="551" on="0"/>
        <pt x="507" y="551" on="1"/>
        <pt x="503" y="556" on="0"/>
        <pt x="426" y="476" on="0"/>
        <pt x="414" y="458" on="1"/>
        <pt x="394" y="430" on="1"/>
        <pt x="364" y="387" on="1"/>
        <pt x="322" y="332" on="0"/>
        <pt x="290" y="266" on="0"/>
        <pt x="298" y="261" on="1"/>
      </contour>
    </TTGlyph>
    <TTGlyph name="AEacute" xMin="58" yMin="-48" xMax="906" yMax="858">
      <component glyphName="AE" x="0" y="0" flags="0x1000"/>
      <component glyphName="acute.cap" x="185" y="0" flags="0x1000"/>
    </TTGlyph>
    <TTGlyph name="Aacute" xMin="49" yMin="-45" xMax="613" yMax="858">
      <component glyphName="A" x="0" y="0" flags="0x1000"/>
      <component glyphName="acute.cap" x="6" y="0" flags="0x1000"/>
    </TTGlyph>
    <TTGlyph name="Abreve" xMin="49" yMin="-45" xMax="651" yMax="846">
      <component glyphName="A" x="0" y="0" flags="0x1000"/>
      <component glyphName="breve.cap" x="5" y="0" flags="0x1000"/>
    </TTGlyph>
    <TTGlyph name="Acircumflex" xMin="49" yMin="-45" xMax="605" yMax="842">
      <component glyphName="A" x="0" y="0" flags="0x1000"/>
      <component glyphName="circumflex.cap" x="-34" y="0" flags="0x1000"/>
    </TTGlyph>
    <TTGlyph name="Adieresis" xMin="49" yMin="-45" xMax="639" yMax="839">
      <component glyphName="A" x="0" y="0" flags="0x1000"/>
      <component glyphName="dieresis.cap" x="4" y="0" flags="0x1000"/>
    </TTGlyph>
    <TTGlyph name="Agrave" xMin="49" yMin="-45" xMax="573" yMax="863">
      <component glyphName="A" x="0" y="0" flags="0x1000"/>
      <component glyphName="grave.cap" x="5" y="0" flags="0x1000"/>
    </TTGlyph>
    <TTGlyph name="Amacron" xMin="49" yMin="-45" xMax="658" yMax="819">
      <component glyphName="A" x="0" y="0" flags="0x1000"/>
      <component glyphName="macron.cap" x="5" y="0" flags="0x1000"/>
    </TTGlyph>
    <TTGlyph name="Aogonek" xMin="49" yMin="-193" xMax="538" yMax="679">
      <component glyphName="A" x="0" y="0" flags="0x1000"/>
      <component glyphName="ogonek" x="285" y="-30" flags="0x1004"/>
    </TTGlyph>
    <TTGlyph name="Aring" xMin="49" yMin="-45" xMax="606" yMax="855">
      <component glyphName="A" x="0" y="0" flags="0x1000"/>
      <component glyphName="ring.cap" x="5" y="0" flags="0x1000"/>
    </TTGlyph>
    <TTGlyph name="Aringacute" xMin="49" yMin="-45" xMax="692" yMax="953">
      <component glyphName="A" x="0" y="0" flags="0x1000"/>
      <component glyphName="ring.cap" x="5" y="0" flags="0x1000"/>
      <component glyphName="acute.cap" x="85" y="95" flags="0x1004"/>
    </TTGlyph>
    <TTGlyph name="Atilde" xMin="49" yMin="-45" xMax="674" yMax="838">
      <component glyphName="A" x="0" y="0" flags="0x1000"/>
      <component glyphName="tilde.cap" x="4" y="0" flags="0x1000"/>
    </TTGlyph>
    <TTGlyph name="B" xMin="74" yMin="-73" xMax="565" yMax="670">
      <contour>
        <pt x="165" y="-37" on="0"/>
        <pt x="134" y="-7" on="0"/>
        <pt x="134" y="6" on="1"/>
        <pt x="134" y="19" on="0"/>
        <pt x="151" y="29" on="1"/>
        <pt x="156" y="32" on="0"/>
        <pt x="181" y="15" on="0"/>
        <pt x="193" y="3" on="1"/>
        <pt x="219" y="-21" on="0"/>
        <pt x="261" y="-21" on="1"/>
        <pt x="279" y="-21" on="0"/>
        <pt x="309" y="-14" on="1"/>
        <pt x="350" y="-2" on="0"/>
        <pt x="413" y="44" on="0"/>
        <pt x="442" y="80" on="1"/>
        <pt x="460" y="104" on="0"/>
        <pt x="478" y="162" on="0"/>
        <pt x="478" y="188" on="1"/>
        <pt x="478" y="220" on="0"/>
        <pt x="466" y="235" on="1"/>
        <pt x="426" y="289" on="0"/>
        <pt x="352" y="289" on="1"/>
        <pt x="320" y="289" on="0"/>
        <pt x="292" y="281" on="1"/>
        <pt x="234" y="269" on="1"/>
        <pt x="232" y="268" on="0"/>
        <pt x="218" y="265" on="0"/>
        <pt x="188" y="181" on="0"/>
        <pt x="164" y="113" on="1"/>
        <pt x="143" y="52" on="0"/>
        <pt x="119" y="3" on="0"/>
        <pt x="109" y="3" on="1"/>
        <pt x="99" y="3" on="0"/>
        <pt x="85" y="25" on="1"/>
        <pt x="74" y="43" on="0"/>
        <pt x="74" y="56" on="1"/>
        <pt x="74" y="69" on="0"/>
        <pt x="83" y="84" on="1"/>
        <pt x="88" y="93" on="0"/>
        <pt x="95" y="111" on="0"/>
        <pt x="99" y="127" on="1"/>
        <pt x="112" y="166" on="0"/>
        <pt x="237" y="476" on="0"/>
        <pt x="272" y="555" on="1"/>
        <pt x="297" y="612" on="0"/>
        <pt x="287" y="615" on="1"/>
        <pt x="287" y="618" on="0"/>
        <pt x="281" y="630" on="0"/>
        <pt x="282" y="633" on="1"/>
        <pt x="282" y="639" on="0"/>
        <pt x="338" y="663" on="0"/>
        <pt x="351" y="661" on="1"/>
        <pt x="357" y="661" on="1"/>
        <pt x="370" y="661" on="0"/>
        <pt x="370" y="666" on="1"/>
        <pt x="372" y="666" on="0"/>
        <pt x="405" y="670" on="0"/>
        <pt x="424" y="668" on="1"/>
        <pt x="491" y="662" on="0"/>
        <pt x="565" y="596" on="0"/>
        <pt x="564" y="541" on="1"/>
        <pt x="563" y="516" on="0"/>
        <pt x="495" y="419" on="0"/>
        <pt x="461" y="388" on="1"/>
        <pt x="445" y="374" on="0"/>
        <pt x="404" y="343" on="0"/>
        <pt x="398" y="339" on="1"/>
        <pt x="423" y="330" on="1"/>
        <pt x="472" y="312" on="0"/>
        <pt x="529" y="259" on="0"/>
        <pt x="540" y="215" on="1"/>
        <pt x="542" y="205" on="0"/>
        <pt x="542" y="197" on="1"/>
        <pt x="542" y="175" on="0"/>
        <pt x="527" y="119" on="0"/>
        <pt x="518" y="98" on="1"/>
        <pt x="512" y="92" on="0"/>
        <pt x="504" y="78" on="0"/>
        <pt x="503" y="76" on="1"/>
        <pt x="502" y="72" on="0"/>
        <pt x="468" y="19" on="0"/>
        <pt x="455" y="3" on="1"/>
        <pt x="405" y="-40" on="0"/>
        <pt x="366" y="-54" on="1"/>
        <pt x="324" y="-73" on="0"/>
        <pt x="271" y="-73" on="1"/>
        <pt x="222" y="-73" on="0"/>
        <pt x="197" y="-57" on="1"/>
      </contour>
      <contour>
        <pt x="257" y="330" on="0"/>
        <pt x="324" y="343" on="0"/>
        <pt x="337" y="348" on="1"/>
        <pt x="339" y="349" on="0"/>
        <pt x="360" y="360" on="0"/>
        <pt x="371" y="371" on="1"/>
        <pt x="395" y="393" on="0"/>
        <pt x="465" y="480" on="0"/>
        <pt x="481" y="510" on="1"/>
        <pt x="506" y="551" on="0"/>
        <pt x="506" y="570" on="1"/>
        <pt x="506" y="583" on="0"/>
        <pt x="495" y="594" on="1"/>
        <pt x="482" y="610" on="0"/>
        <pt x="433" y="610" on="1"/>
        <pt x="401" y="610" on="0"/>
        <pt x="378" y="604" on="1"/>
        <pt x="364" y="600" on="0"/>
        <pt x="351" y="589" on="0"/>
        <pt x="351" y="578" on="1"/>
        <pt x="351" y="563" on="0"/>
        <pt x="335" y="547" on="1"/>
        <pt x="334" y="541" on="0"/>
        <pt x="327" y="530" on="0"/>
        <pt x="326" y="529" on="1"/>
        <pt x="326" y="526" on="0"/>
        <pt x="314" y="499" on="1"/>
        <pt x="298" y="468" on="0"/>
        <pt x="284" y="429" on="1"/>
        <pt x="246" y="339" on="0"/>
        <pt x="246" y="328" on="1"/>
      </contour>
    </TTGlyph>
    <TTGlyph name="B.ss01" xMin="91" yMin="-37" xMax="570" yMax="663">
      <contour>
        <pt x="288" y="-37" on="0"/>
        <pt x="249" y="-37" on="1"/>
        <pt x="199" y="-37" on="0"/>
        <pt x="140" y="-7" on="1"/>
        <pt x="138" y="4" on="0"/>
        <pt x="124" y="23" on="0"/>
        <pt x="115" y="24" on="1"/>
        <pt x="112" y="25" on="0"/>
        <pt x="98" y="44" on="0"/>
        <pt x="95" y="48" on="1"/>
        <pt x="91" y="68" on="0"/>
        <pt x="91" y="72" on="1"/>
        <pt x="91" y="81" on="0"/>
        <pt x="97" y="119" on="0"/>
        <pt x="99" y="128" on="1"/>
        <pt x="109" y="155" on="1"/>
        <pt x="133" y="225" on="0"/>
        <pt x="162" y="290" on="1"/>
        <pt x="182" y="341" on="1"/>
        <pt x="227" y="452" on="0"/>
        <pt x="255" y="528" on="0"/>
        <pt x="255" y="544" on="1"/>
        <pt x="255" y="553" on="0"/>
        <pt x="250" y="565" on="1"/>
        <pt x="247" y="574" on="0"/>
        <pt x="247" y="582" on="1"/>
        <pt x="247" y="610" on="0"/>
        <pt x="276" y="621" on="1"/>
        <pt x="310" y="639" on="0"/>
        <pt x="383" y="663" on="0"/>
        <pt x="408" y="663" on="1"/>
        <pt x="441" y="663" on="0"/>
        <pt x="513" y="642" on="0"/>
        <pt x="517" y="629" on="1"/>
        <pt x="523" y="627" on="1"/>
        <pt x="524" y="627" on="0"/>
        <pt x="532" y="623" on="0"/>
        <pt x="539" y="617" on="1"/>
        <pt x="549" y="610" on="0"/>
        <pt x="563" y="580" on="0"/>
        <pt x="563" y="566" on="1"/>
        <pt x="563" y="560" on="0"/>
        <pt x="562" y="557" on="1"/>
        <pt x="562" y="554" on="0"/>
        <pt x="567" y="531" on="0"/>
        <pt x="569" y="524" on="1"/>
        <pt x="570" y="518" on="0"/>
        <pt x="570" y="506" on="1"/>
        <pt x="570" y="450" on="0"/>
        <pt x="518" y="394" on="1"/>
        <pt x="505" y="377" on="1"/>
        <pt x="503" y="374" on="0"/>
        <pt x="486" y="354" on="0"/>
        <pt x="482" y="355" on="1"/>
        <pt x="465" y="340" on="0"/>
        <pt x="465" y="330" on="1"/>
        <pt x="465" y="325" on="0"/>
        <pt x="471" y="323" on="1"/>
        <pt x="473" y="320" on="0"/>
        <pt x="486" y="302" on="0"/>
        <pt x="497" y="289" on="1"/>
        <pt x="523" y="249" on="0"/>
        <pt x="523" y="195" on="1"/>
        <pt x="523" y="167" on="0"/>
        <pt x="516" y="145" on="1"/>
        <pt x="505" y="106" on="0"/>
        <pt x="403" y="8" on="0"/>
        <pt x="343" y="-18" on="1"/>
      </contour>
      <contour>
        <pt x="260" y="307" on="0"/>
        <pt x="277" y="314" on="1"/>
        <pt x="303" y="323" on="0"/>
        <pt x="311" y="325" on="1"/>
        <pt x="354" y="332" on="0"/>
        <pt x="431" y="382" on="0"/>
        <pt x="487" y="450" on="0"/>
        <pt x="499" y="484" on="1"/>
        <pt x="503" y="492" on="0"/>
        <pt x="510" y="526" on="0"/>
        <pt x="510" y="539" on="1"/>
        <pt x="510" y="547" on="0"/>
        <pt x="509" y="550" on="1"/>
        <pt x="509" y="558" on="1"/>
        <pt x="502" y="574" on="0"/>
        <pt x="457" y="591" on="0"/>
        <pt x="426" y="591" on="1"/>
        <pt x="379" y="591" on="0"/>
        <pt x="338" y="575" on="1"/>
        <pt x="327" y="570" on="0"/>
        <pt x="319" y="551" on="0"/>
        <pt x="314" y="525" on="0"/>
        <pt x="313" y="518" on="1"/>
        <pt x="310" y="502" on="0"/>
        <pt x="294" y="454" on="1"/>
        <pt x="284" y="427" on="0"/>
        <pt x="283" y="423" on="1"/>
        <pt x="283" y="421" on="0"/>
        <pt x="274" y="411" on="0"/>
        <pt x="274" y="406" on="1"/>
        <pt x="272" y="402" on="0"/>
        <pt x="260" y="375" on="0"/>
        <pt x="256" y="361" on="1"/>
        <pt x="250" y="347" on="0"/>
        <pt x="243" y="322" on="0"/>
        <pt x="242" y="318" on="1"/>
        <pt x="242" y="315" on="0"/>
        <pt x="246" y="301" on="0"/>
        <pt x="249" y="305" on="1"/>
      </contour>
      <contour>
        <pt x="239" y="21" on="0"/>
        <pt x="253" y="21" on="1"/>
        <pt x="303" y="21" on="0"/>
        <pt x="413" y="85" on="0"/>
        <pt x="443" y="133" on="1"/>
        <pt x="470" y="167" on="0"/>
        <pt x="470" y="199" on="1"/>
        <pt x="470" y="225" on="0"/>
        <pt x="453" y="251" on="1"/>
        <pt x="432" y="283" on="0"/>
        <pt x="397" y="283" on="1"/>
        <pt x="381" y="283" on="0"/>
        <pt x="340" y="271" on="0"/>
        <pt x="335" y="270" on="1"/>
        <pt x="319" y="267" on="0"/>
        <pt x="261" y="250" on="1"/>
        <pt x="227" y="238" on="0"/>
        <pt x="219" y="238" on="1"/>
        <pt x="215" y="235" on="0"/>
        <pt x="195" y="213" on="0"/>
        <pt x="194" y="209" on="1"/>
        <pt x="188" y="207" on="0"/>
        <pt x="173" y="165" on="0"/>
        <pt x="163" y="122" on="0"/>
        <pt x="166" y="121" on="1"/>
        <pt x="170" y="120" on="0"/>
        <pt x="160" y="88" on="0"/>
        <pt x="158" y="80" on="1"/>
        <pt x="156" y="72" on="0"/>
        <pt x="156" y="69" on="1"/>
        <pt x="156" y="50" on="0"/>
        <pt x="201" y="24" on="0"/>
        <pt x="233" y="22" on="1"/>
      </contour>
    </TTGlyph>
    <TTGlyph name="B.ss02" xMin="87" yMin="-57" xMax="582" yMax="656">
      <contour>
        <pt x="249" y="-57" on="0"/>
        <pt x="218" y="-57" on="1"/>
        <pt x="166" y="-57" on="0"/>
        <pt x="140" y="-31" on="1"/>
        <pt x="131" y="-23" on="0"/>
        <pt x="131" y="-16" on="1"/>
        <pt x="131" y="-12" on="0"/>
        <pt x="135" y="-8" on="1"/>
        <pt x="144" y="-2" on="0"/>
        <pt x="176" y="4" on="0"/>
        <pt x="215" y="7" on="1"/>
        <pt x="263" y="5" on="0"/>
        <pt x="366" y="33" on="0"/>
        <pt x="447" y="81" on="0"/>
        <pt x="463" y="106" on="1"/>
        <pt x="482" y="140" on="0"/>
        <pt x="482" y="163" on="1"/>
        <pt x="482" y="188" on="0"/>
        <pt x="459" y="213" on="1"/>
        <pt x="447" y="223" on="0"/>
        <pt x="420" y="234" on="0"/>
        <pt x="401" y="237" on="1"/>
        <pt x="383" y="237" on="0"/>
        <pt x="362" y="230" on="0"/>
        <pt x="346" y="221" on="1"/>
        <pt x="341" y="218" on="0"/>
        <pt x="309" y="201" on="0"/>
        <pt x="296" y="199" on="1"/>
        <pt x="289" y="190" on="0"/>
        <pt x="252" y="179" on="0"/>
        <pt x="235" y="179" on="1"/>
        <pt x="219" y="179" on="0"/>
        <pt x="214" y="184" on="1"/>
        <pt x="208" y="184" on="0"/>
        <pt x="200" y="173" on="0"/>
        <pt x="191" y="154" on="1"/>
        <pt x="189" y="148" on="0"/>
        <pt x="182" y="134" on="1"/>
        <pt x="171" y="102" on="1"/>
        <pt x="168" y="94" on="0"/>
        <pt x="158" y="62" on="0"/>
        <pt x="157" y="55" on="1"/>
        <pt x="148" y="33" on="0"/>
        <pt x="147" y="28" on="1"/>
        <pt x="137" y="5" on="0"/>
        <pt x="129" y="-8" on="0"/>
        <pt x="122" y="-8" on="1"/>
        <pt x="118" y="-8" on="0"/>
        <pt x="110" y="-2" on="0"/>
        <pt x="101" y="9" on="0"/>
        <pt x="95" y="15" on="1"/>
        <pt x="87" y="15" on="0"/>
        <pt x="87" y="30" on="1"/>
        <pt x="87" y="47" on="0"/>
        <pt x="98" y="75" on="1"/>
        <pt x="103" y="86" on="0"/>
        <pt x="126" y="150" on="1"/>
        <pt x="173" y="278" on="0"/>
        <pt x="176" y="280" on="1"/>
        <pt x="177" y="293" on="0"/>
        <pt x="188" y="306" on="0"/>
        <pt x="188" y="308" on="1"/>
        <pt x="190" y="312" on="0"/>
        <pt x="220" y="390" on="0"/>
        <pt x="233" y="403" on="1"/>
        <pt x="233" y="411" on="0"/>
        <pt x="261" y="455" on="1"/>
        <pt x="264" y="462" on="0"/>
        <pt x="276" y="492" on="1"/>
        <pt x="280" y="504" on="0"/>
        <pt x="286" y="517" on="0"/>
        <pt x="287" y="519" on="1"/>
        <pt x="299" y="536" on="0"/>
        <pt x="299" y="539" on="1"/>
        <pt x="299" y="544" on="0"/>
        <pt x="290" y="554" on="1"/>
        <pt x="288" y="556" on="0"/>
        <pt x="284" y="571" on="0"/>
        <pt x="284" y="577" on="1"/>
        <pt x="284" y="581" on="0"/>
        <pt x="327" y="610" on="0"/>
        <pt x="339" y="615" on="1"/>
        <pt x="353" y="621" on="0"/>
        <pt x="398" y="639" on="0"/>
        <pt x="413" y="644" on="1"/>
        <pt x="427" y="649" on="0"/>
        <pt x="461" y="653" on="0"/>
        <pt x="474" y="652" on="1"/>
        <pt x="485" y="656" on="0"/>
        <pt x="496" y="656" on="1"/>
        <pt x="511" y="656" on="0"/>
        <pt x="524" y="649" on="1"/>
        <pt x="539" y="644" on="0"/>
        <pt x="575" y="606" on="0"/>
        <pt x="578" y="590" on="1"/>
        <pt x="582" y="570" on="0"/>
        <pt x="582" y="561" on="1"/>
        <pt x="582" y="548" on="0"/>
        <pt x="575" y="534" on="1"/>
        <pt x="573" y="513" on="0"/>
        <pt x="545" y="431" on="0"/>
        <pt x="537" y="423" on="1"/>
        <pt x="521" y="398" on="1"/>
        <pt x="497" y="358" on="0"/>
        <pt x="470" y="329" on="1"/>
        <pt x="468" y="327" on="0"/>
        <pt x="452" y="309" on="0"/>
        <pt x="434" y="288" on="1"/>
        <pt x="437" y="287" on="0"/>
        <pt x="458" y="279" on="0"/>
        <pt x="465" y="275" on="1"/>
        <pt x="488" y="260" on="0"/>
        <pt x="525" y="215" on="0"/>
        <pt x="533" y="191" on="1"/>
        <pt x="542" y="178" on="0"/>
        <pt x="542" y="156" on="1"/>
        <pt x="542" y="138" on="0"/>
        <pt x="529" y="96" on="0"/>
        <pt x="517" y="78" on="1"/>
        <pt x="508" y="61" on="0"/>
        <pt x="464" y="13" on="0"/>
        <pt x="460" y="13" on="1"/>
        <pt x="455" y="15" on="0"/>
        <pt x="440" y="10" on="0"/>
        <pt x="423" y="2" on="1"/>
        <pt x="415" y="-7" on="0"/>
        <pt x="398" y="-20" on="0"/>
        <pt x="393" y="-18" on="1"/>
        <pt x="390" y="-19" on="0"/>
        <pt x="368" y="-29" on="0"/>
        <pt x="355" y="-36" on="1"/>
        <pt x="329" y="-43" on="0"/>
        <pt x="278" y="-52" on="1"/>
      </contour>
      <contour>
        <pt x="237" y="258" on="0"/>
        <pt x="293" y="279" on="0"/>
        <pt x="355" y="312" on="0"/>
        <pt x="370" y="326" on="1"/>
        <pt x="391" y="340" on="0"/>
        <pt x="439" y="383" on="0"/>
        <pt x="439" y="388" on="1"/>
        <pt x="440" y="391" on="0"/>
        <pt x="451" y="411" on="0"/>
        <pt x="460" y="422" on="1"/>
        <pt x="472" y="434" on="0"/>
        <pt x="487" y="457" on="0"/>
        <pt x="487" y="461" on="1"/>
        <pt x="488" y="464" on="0"/>
        <pt x="497" y="482" on="0"/>
        <pt x="504" y="494" on="1"/>
        <pt x="515" y="508" on="0"/>
        <pt x="524" y="546" on="0"/>
        <pt x="525" y="548" on="1"/>
        <pt x="527" y="573" on="0"/>
        <pt x="504" y="600" on="0"/>
        <pt x="484" y="597" on="1"/>
        <pt x="461" y="594" on="0"/>
        <pt x="395" y="575" on="0"/>
        <pt x="378" y="565" on="1"/>
        <pt x="353" y="549" on="0"/>
        <pt x="353" y="540" on="1"/>
        <pt x="353" y="535" on="0"/>
        <pt x="360" y="535" on="1"/>
        <pt x="365" y="535" on="0"/>
        <pt x="365" y="528" on="1"/>
        <pt x="365" y="514" on="0"/>
        <pt x="346" y="483" on="1"/>
        <pt x="330" y="455" on="0"/>
        <pt x="233" y="265" on="0"/>
        <pt x="235" y="261" on="1"/>
      </contour>
    </TTGlyph>
    <TTGlyph name="C" xMin="125" yMin="-58" xMax="569" yMax="680">
      <contour>
        <pt x="193" y="-45" on="0"/>
        <pt x="154" y="-17" on="0"/>
        <pt x="141" y="15" on="1"/>
        <pt x="125" y="60" on="0"/>
        <pt x="125" y="121" on="1"/>
        <pt x="125" y="180" on="0"/>
        <pt x="139" y="263" on="0"/>
        <pt x="156" y="306" on="1"/>
        <pt x="165" y="327" on="1"/>
        <pt x="181" y="368" on="0"/>
        <pt x="188" y="381" on="1"/>
        <pt x="205" y="420" on="0"/>
        <pt x="248" y="482" on="1"/>
        <pt x="286" y="540" on="0"/>
        <pt x="330" y="593" on="0"/>
        <pt x="371" y="625" on="0"/>
        <pt x="426" y="663" on="1"/>
        <pt x="449" y="680" on="0"/>
        <pt x="479" y="680" on="1"/>
        <pt x="504" y="680" on="0"/>
        <pt x="547" y="655" on="0"/>
        <pt x="558" y="632" on="1"/>
        <pt x="569" y="613" on="0"/>
        <pt x="569" y="581" on="1"/>
        <pt x="569" y="536" on="0"/>
        <pt x="529" y="438" on="0"/>
        <pt x="498" y="410" on="1"/>
        <pt x="488" y="401" on="0"/>
        <pt x="479" y="401" on="1"/>
        <pt x="468" y="401" on="0"/>
        <pt x="450" y="417" on="1"/>
        <pt x="441" y="434" on="0"/>
        <pt x="439" y="440" on="0"/>
        <pt x="444" y="441" on="1"/>
        <pt x="453" y="452" on="0"/>
        <pt x="488" y="515" on="0"/>
        <pt x="494" y="533" on="1"/>
        <pt x="496" y="539" on="0"/>
        <pt x="498" y="553" on="1"/>
        <pt x="506" y="588" on="0"/>
        <pt x="506" y="600" on="1"/>
        <pt x="506" y="612" on="0"/>
        <pt x="499" y="619" on="1"/>
        <pt x="496" y="622" on="0"/>
        <pt x="491" y="622" on="1"/>
        <pt x="483" y="622" on="0"/>
        <pt x="463" y="612" on="1"/>
        <pt x="439" y="602" on="0"/>
        <pt x="365" y="532" on="0"/>
        <pt x="335" y="491" on="1"/>
        <pt x="289" y="431" on="0"/>
        <pt x="240" y="353" on="0"/>
        <pt x="227" y="313" on="1"/>
        <pt x="216" y="287" on="1"/>
        <pt x="217" y="283" on="0"/>
        <pt x="209" y="251" on="0"/>
        <pt x="204" y="241" on="1"/>
        <pt x="190" y="183" on="0"/>
        <pt x="190" y="126" on="1"/>
        <pt x="190" y="83" on="0"/>
        <pt x="205" y="17" on="0"/>
        <pt x="219" y="5" on="1"/>
        <pt x="227" y="-2" on="0"/>
        <pt x="243" y="-2" on="1"/>
        <pt x="263" y="-2" on="0"/>
        <pt x="322" y="18" on="0"/>
        <pt x="365" y="37" on="1"/>
        <pt x="388" y="46" on="0"/>
        <pt x="429" y="70" on="0"/>
        <pt x="439" y="80" on="1"/>
        <pt x="465" y="99" on="0"/>
        <pt x="481" y="99" on="1"/>
        <pt x="492" y="103" on="0"/>
        <pt x="496" y="103" on="1"/>
        <pt x="498" y="103" on="0"/>
        <pt x="499" y="98" on="0"/>
        <pt x="499" y="94" on="1"/>
        <pt x="499" y="80" on="0"/>
        <pt x="469" y="47" on="0"/>
        <pt x="444" y="32" on="1"/>
        <pt x="424" y="12" on="0"/>
        <pt x="396" y="1" on="1"/>
        <pt x="364" y="-22" on="0"/>
        <pt x="279" y="-58" on="0"/>
        <pt x="244" y="-58" on="1"/>
        <pt x="236" y="-58" on="0"/>
        <pt x="224" y="-56" on="1"/>
      </contour>
    </TTGlyph>
    <TTGlyph name="C.ss01" xMin="128" yMin="-37" xMax="598" yMax="663">
      <contour>
        <pt x="298" y="-37" on="1"/>
        <pt x="242" y="-37" on="0"/>
        <pt x="148" y="6" on="0"/>
        <pt x="135" y="65" on="1"/>
        <pt x="128" y="99" on="0"/>
        <pt x="128" y="140" on="1"/>
        <pt x="128" y="223" on="0"/>
        <pt x="154" y="317" on="1"/>
        <pt x="164" y="352" on="0"/>
        <pt x="249" y="498" on="0"/>
        <pt x="286" y="544" on="1"/>
        <pt x="311" y="574" on="0"/>
        <pt x="397" y="648" on="0"/>
        <pt x="413" y="655" on="1"/>
        <pt x="428" y="663" on="0"/>
        <pt x="441" y="663" on="1"/>
        <pt x="454" y="663" on="0"/>
        <pt x="470" y="659" on="1"/>
        <pt x="490" y="657" on="0"/>
        <pt x="536" y="625" on="0"/>
        <pt x="538" y="612" on="1"/>
        <pt x="538" y="608" on="0"/>
        <pt x="542" y="608" on="1"/>
        <pt x="547" y="608" on="0"/>
        <pt x="560" y="613" on="1"/>
        <pt x="570" y="624" on="0"/>
        <pt x="580" y="624" on="1"/>
        <pt x="590" y="624" on="0"/>
        <pt x="591" y="614" on="1"/>
        <pt x="589" y="611" on="0"/>
        <pt x="589" y="607" on="1"/>
        <pt x="589" y="601" on="0"/>
        <pt x="593" y="598" on="1"/>
        <pt x="598" y="600" on="0"/>
        <pt x="584" y="555" on="0"/>
        <pt x="575" y="539" on="1"/>
        <pt x="572" y="529" on="1"/>
        <pt x="572" y="526" on="1"/>
        <pt x="572" y="519" on="0"/>
        <pt x="563" y="510" on="1"/>
        <pt x="557" y="500" on="0"/>
        <pt x="537" y="429" on="0"/>
        <pt x="538" y="419" on="1"/>
        <pt x="540" y="411" on="0"/>
        <pt x="531" y="411" on="1"/>
        <pt x="524" y="411" on="0"/>
        <pt x="507" y="417" on="1"/>
        <pt x="491" y="423" on="0"/>
        <pt x="477" y="437" on="0"/>
        <pt x="477" y="450" on="1"/>
        <pt x="477" y="462" on="0"/>
        <pt x="485" y="489" on="1"/>
        <pt x="501" y="543" on="0"/>
        <pt x="501" y="561" on="1"/>
        <pt x="501" y="581" on="0"/>
        <pt x="489" y="590" on="1"/>
        <pt x="486" y="596" on="0"/>
        <pt x="469" y="602" on="0"/>
        <pt x="459" y="602" on="1"/>
        <pt x="449" y="602" on="0"/>
        <pt x="439" y="597" on="1"/>
        <pt x="418" y="589" on="0"/>
        <pt x="332" y="492" on="0"/>
        <pt x="294" y="439" on="1"/>
        <pt x="245" y="370" on="0"/>
        <pt x="192" y="218" on="0"/>
        <pt x="192" y="149" on="1"/>
        <pt x="192" y="101" on="0"/>
        <pt x="206" y="57" on="1"/>
        <pt x="208" y="52" on="0"/>
        <pt x="228" y="27" on="0"/>
        <pt x="234" y="23" on="1"/>
        <pt x="250" y="19" on="0"/>
        <pt x="275" y="19" on="1"/>
        <pt x="296" y="19" on="0"/>
        <pt x="324" y="22" on="1"/>
        <pt x="364" y="29" on="0"/>
        <pt x="405" y="59" on="0"/>
        <pt x="427" y="90" on="1"/>
        <pt x="444" y="113" on="0"/>
        <pt x="459" y="113" on="1"/>
        <pt x="476" y="113" on="0"/>
        <pt x="480" y="86" on="1"/>
        <pt x="480" y="77" on="0"/>
        <pt x="445" y="22" on="0"/>
        <pt x="436" y="20" on="1"/>
        <pt x="432" y="19" on="0"/>
        <pt x="431" y="16" on="0"/>
        <pt x="432" y="12" on="1"/>
        <pt x="432" y="6" on="0"/>
        <pt x="389" y="-17" on="0"/>
        <pt x="336" y="-36" on="0"/>
        <pt x="324" y="-36" on="1"/>
      </contour>
    </TTGlyph>
    <TTGlyph name="C.ss02" xMin="85" yMin="-51" xMax="582" yMax="681">
      <contour>
        <pt x="251" y="-51" on="0"/>
        <pt x="239" y="-51" on="1"/>
        <pt x="211" y="-51" on="0"/>
        <pt x="147" y="-23" on="0"/>
        <pt x="122" y="-1" on="1"/>
        <pt x="113" y="14" on="0"/>
        <pt x="85" y="85" on="0"/>
        <pt x="88" y="90" on="1"/>
        <pt x="91" y="95" on="0"/>
        <pt x="93" y="108" on="0"/>
        <pt x="92" y="113" on="1"/>
        <pt x="90" y="119" on="0"/>
        <pt x="90" y="125" on="1"/>
        <pt x="90" y="156" on="0"/>
        <pt x="140" y="299" on="0"/>
        <pt x="181" y="390" on="1"/>
        <pt x="205" y="443" on="0"/>
        <pt x="296" y="567" on="0"/>
        <pt x="391" y="662" on="0"/>
        <pt x="420" y="674" on="1"/>
        <pt x="437" y="681" on="0"/>
        <pt x="447" y="681" on="1"/>
        <pt x="481" y="681" on="0"/>
        <pt x="541" y="646" on="0"/>
        <pt x="560" y="620" on="1"/>
        <pt x="570" y="601" on="0"/>
        <pt x="582" y="545" on="0"/>
        <pt x="582" y="519" on="1"/>
        <pt x="582" y="496" on="0"/>
        <pt x="576" y="479" on="1"/>
        <pt x="574" y="474" on="0"/>
        <pt x="566" y="456" on="0"/>
        <pt x="557" y="450" on="0"/>
        <pt x="548" y="449" on="1"/>
        <pt x="544" y="447" on="0"/>
        <pt x="527" y="453" on="0"/>
        <pt x="516" y="460" on="1"/>
        <pt x="512" y="464" on="0"/>
        <pt x="501" y="472" on="0"/>
        <pt x="499" y="473" on="1"/>
        <pt x="499" y="476" on="0"/>
        <pt x="502" y="497" on="0"/>
        <pt x="506" y="507" on="1"/>
        <pt x="515" y="533" on="0"/>
        <pt x="515" y="558" on="1"/>
        <pt x="515" y="583" on="0"/>
        <pt x="498" y="619" on="0"/>
        <pt x="482" y="623" on="1"/>
        <pt x="459" y="624" on="0"/>
        <pt x="385" y="572" on="0"/>
        <pt x="351" y="529" on="1"/>
        <pt x="249" y="404" on="0"/>
        <pt x="207" y="297" on="1"/>
        <pt x="185" y="237" on="0"/>
        <pt x="158" y="129" on="0"/>
        <pt x="155" y="98" on="1"/>
        <pt x="158" y="86" on="0"/>
        <pt x="158" y="77" on="1"/>
        <pt x="158" y="68" on="0"/>
        <pt x="154" y="68" on="1"/>
        <pt x="156" y="56" on="0"/>
        <pt x="175" y="20" on="0"/>
        <pt x="185" y="10" on="1"/>
        <pt x="192" y="3" on="0"/>
        <pt x="207" y="3" on="1"/>
        <pt x="215" y="4" on="1"/>
        <pt x="232" y="1" on="0"/>
        <pt x="312" y="20" on="0"/>
        <pt x="322" y="28" on="1"/>
        <pt x="325" y="29" on="0"/>
        <pt x="345" y="35" on="0"/>
        <pt x="352" y="35" on="1"/>
        <pt x="360" y="39" on="0"/>
        <pt x="396" y="56" on="0"/>
        <pt x="407" y="64" on="1"/>
        <pt x="433" y="76" on="0"/>
        <pt x="481" y="88" on="0"/>
        <pt x="489" y="86" on="1"/>
        <pt x="488" y="85" on="0"/>
        <pt x="483" y="76" on="0"/>
        <pt x="480" y="66" on="1"/>
        <pt x="473" y="56" on="0"/>
        <pt x="423" y="13" on="0"/>
        <pt x="419" y="12" on="1"/>
        <pt x="404" y="10" on="0"/>
        <pt x="378" y="-7" on="1"/>
        <pt x="313" y="-47" on="0"/>
        <pt x="262" y="-48" on="1"/>
      </contour>
    </TTGlyph>
    <TTGlyph name="Cacute" xMin="125" yMin="-58" xMax="601" yMax="858">
      <component glyphName="C" x="0" y="0" flags="0x1000"/>
      <component glyphName="acute.cap" x="-6" y="0" flags="0x1000"/>
    </TTGlyph>
    <TTGlyph name="Ccaron" xMin="125" yMin="-58" xMax="628" yMax="836">
      <component glyphName="C" x="0" y="0" flags="0x1000"/>
      <component glyphName="caron.cap" x="-7" y="0" flags="0x1000"/>
    </TTGlyph>
    <TTGlyph name="Ccedilla" xMin="121" yMin="-251" xMax="569" yMax="680">
      <component glyphName="C" x="0" y="0" flags="0x1000"/>
      <component glyphName="cedilla" x="77" y="-72" flags="0x1004"/>
    </TTGlyph>
    <TTGlyph name="Ccircumflex" xMin="125" yMin="-58" xMax="633" yMax="842">
      <component glyphName="C" x="0" y="0" flags="0x1000"/>
      <component glyphName="circumflex.cap" x="-6" y="0" flags="0x1000"/>
    </TTGlyph>
    <TTGlyph name="Cdotaccent" xMin="125" yMin="-58" xMax="569" yMax="841">
      <component glyphName="C" x="0" y="0" flags="0x1000"/>
      <component glyphName="dotaccent.cap" x="-9" y="0" flags="0x1000"/>
    </TTGlyph>
    <TTGlyph name="D" xMin="81" yMin="-99" xMax="649" yMax="703">
      <contour>
        <pt x="199" y="-99" on="0"/>
        <pt x="191" y="-99" on="1"/>
        <pt x="171" y="-99" on="0"/>
        <pt x="143" y="-91" on="1"/>
        <pt x="130" y="-87" on="0"/>
        <pt x="118" y="-77" on="0"/>
        <pt x="103" y="-58" on="0"/>
        <pt x="99" y="-53" on="1"/>
        <pt x="81" y="-28" on="0"/>
        <pt x="81" y="-9" on="1"/>
        <pt x="81" y="6" on="0"/>
        <pt x="95" y="2" on="1"/>
        <pt x="105" y="-3" on="0"/>
        <pt x="117" y="-18" on="1"/>
        <pt x="129" y="-30" on="0"/>
        <pt x="157" y="-41" on="0"/>
        <pt x="177" y="-41" on="1"/>
        <pt x="184" y="-41" on="0"/>
        <pt x="204" y="-39" on="1"/>
        <pt x="228" y="-35" on="0"/>
        <pt x="292" y="-13" on="0"/>
        <pt x="307" y="-1" on="1"/>
        <pt x="355" y="32" on="0"/>
        <pt x="416" y="72" on="0"/>
        <pt x="424" y="77" on="1"/>
        <pt x="426" y="82" on="0"/>
        <pt x="445" y="89" on="1"/>
        <pt x="472" y="115" on="1"/>
        <pt x="498" y="143" on="0"/>
        <pt x="506" y="149" on="1"/>
        <pt x="507" y="156" on="0"/>
        <pt x="512" y="171" on="0"/>
        <pt x="512" y="175" on="1"/>
        <pt x="524" y="188" on="0"/>
        <pt x="572" y="287" on="0"/>
        <pt x="581" y="323" on="1"/>
        <pt x="590" y="370" on="0"/>
        <pt x="590" y="406" on="1"/>
        <pt x="590" y="467" on="0"/>
        <pt x="547" y="550" on="0"/>
        <pt x="506" y="585" on="1"/>
        <pt x="485" y="602" on="0"/>
        <pt x="388" y="643" on="0"/>
        <pt x="380" y="640" on="1"/>
        <pt x="375" y="639" on="0"/>
        <pt x="331" y="526" on="0"/>
        <pt x="293" y="420" on="1"/>
        <pt x="261" y="331" on="1"/>
        <pt x="257" y="315" on="0"/>
        <pt x="247" y="287" on="0"/>
        <pt x="244" y="276" on="1"/>
        <pt x="231" y="239" on="0"/>
        <pt x="231" y="234" on="1"/>
        <pt x="220" y="217" on="0"/>
        <pt x="207" y="162" on="0"/>
        <pt x="199" y="96" on="1"/>
        <pt x="190" y="63" on="0"/>
        <pt x="191" y="66" on="1"/>
        <pt x="187" y="49" on="0"/>
        <pt x="181" y="27" on="0"/>
        <pt x="178" y="28" on="1"/>
        <pt x="174" y="24" on="1"/>
        <pt x="174" y="18" on="0"/>
        <pt x="165" y="18" on="1"/>
        <pt x="157" y="18" on="0"/>
        <pt x="137" y="27" on="0"/>
        <pt x="131" y="33" on="1"/>
        <pt x="127" y="47" on="0"/>
        <pt x="127" y="53" on="1"/>
        <pt x="127" y="66" on="0"/>
        <pt x="135" y="93" on="1"/>
        <pt x="143" y="127" on="0"/>
        <pt x="180" y="250" on="0"/>
        <pt x="193" y="289" on="1"/>
        <pt x="200" y="306" on="0"/>
        <pt x="213" y="353" on="1"/>
        <pt x="224" y="390" on="0"/>
        <pt x="251" y="468" on="0"/>
        <pt x="257" y="478" on="1"/>
        <pt x="259" y="485" on="0"/>
        <pt x="282" y="551" on="0"/>
        <pt x="298" y="591" on="1"/>
        <pt x="305" y="624" on="1"/>
        <pt x="294" y="629" on="1"/>
        <pt x="285" y="626" on="0"/>
        <pt x="278" y="626" on="1"/>
        <pt x="273" y="626" on="0"/>
        <pt x="267" y="629" on="1"/>
        <pt x="257" y="626" on="0"/>
        <pt x="222" y="649" on="0"/>
        <pt x="220" y="659" on="1"/>
        <pt x="218" y="662" on="0"/>
        <pt x="217" y="674" on="0"/>
        <pt x="217" y="676" on="1"/>
        <pt x="219" y="686" on="0"/>
        <pt x="295" y="703" on="0"/>
        <pt x="340" y="703" on="1"/>
        <pt x="359" y="703" on="0"/>
        <pt x="369" y="702" on="1"/>
        <pt x="387" y="701" on="0"/>
        <pt x="420" y="691" on="0"/>
        <pt x="444" y="681" on="1"/>
        <pt x="468" y="672" on="1"/>
        <pt x="500" y="660" on="0"/>
        <pt x="573" y="600" on="0"/>
        <pt x="630" y="519" on="0"/>
        <pt x="640" y="477" on="1"/>
        <pt x="643" y="464" on="0"/>
        <pt x="649" y="418" on="0"/>
        <pt x="649" y="400" on="1"/>
        <pt x="649" y="379" on="0"/>
        <pt x="645" y="374" on="1"/>
        <pt x="642" y="370" on="0"/>
        <pt x="642" y="358" on="0"/>
        <pt x="646" y="357" on="1"/>
        <pt x="644" y="351" on="0"/>
        <pt x="634" y="319" on="0"/>
        <pt x="628" y="301" on="1"/>
        <pt x="622" y="238" on="0"/>
        <pt x="572" y="153" on="1"/>
        <pt x="567" y="153" on="0"/>
        <pt x="561" y="150" on="0"/>
        <pt x="565" y="149" on="1"/>
        <pt x="565" y="144" on="0"/>
        <pt x="554" y="130" on="1"/>
        <pt x="551" y="128" on="0"/>
        <pt x="532" y="103" on="0"/>
        <pt x="528" y="100" on="1"/>
        <pt x="527" y="93" on="0"/>
        <pt x="517" y="84" on="0"/>
        <pt x="513" y="84" on="1"/>
        <pt x="513" y="84" on="0"/>
        <pt x="510" y="83" on="0"/>
        <pt x="510" y="80" on="1"/>
        <pt x="492" y="54" on="0"/>
        <pt x="397" y="-22" on="0"/>
        <pt x="360" y="-38" on="1"/>
        <pt x="350" y="-45" on="0"/>
        <pt x="323" y="-57" on="0"/>
        <pt x="318" y="-59" on="1"/>
        <pt x="310" y="-66" on="0"/>
        <pt x="245" y="-91" on="0"/>
        <pt x="225" y="-95" on="1"/>
      </contour>
    </TTGlyph>
    <TTGlyph name="D.ss01" xMin="124" yMin="-36" xMax="640" yMax="667">
      <contour>
        <pt x="189" y="-36" on="0"/>
        <pt x="131" y="-6" on="0"/>
        <pt x="124" y="33" on="1"/>
        <pt x="125" y="55" on="0"/>
        <pt x="128" y="67" on="0"/>
        <pt x="134" y="67" on="1"/>
        <pt x="143" y="67" on="0"/>
        <pt x="143" y="77" on="1"/>
        <pt x="144" y="99" on="0"/>
        <pt x="161" y="169" on="0"/>
        <pt x="169" y="182" on="1"/>
        <pt x="179" y="219" on="0"/>
        <pt x="233" y="382" on="0"/>
        <pt x="243" y="406" on="1"/>
        <pt x="252" y="430" on="1"/>
        <pt x="263" y="455" on="0"/>
        <pt x="270" y="478" on="1"/>
        <pt x="279" y="501" on="1"/>
        <pt x="281" y="507" on="0"/>
        <pt x="295" y="542" on="0"/>
        <pt x="300" y="550" on="1"/>
        <pt x="313" y="579" on="1"/>
        <pt x="290" y="599" on="1"/>
        <pt x="276" y="613" on="0"/>
        <pt x="276" y="626" on="1"/>
        <pt x="276" y="639" on="0"/>
        <pt x="313" y="661" on="0"/>
        <pt x="337" y="665" on="1"/>
        <pt x="350" y="667" on="0"/>
        <pt x="382" y="667" on="1"/>
        <pt x="438" y="667" on="0"/>
        <pt x="480" y="660" on="1"/>
        <pt x="496" y="657" on="0"/>
        <pt x="548" y="632" on="0"/>
        <pt x="557" y="622" on="1"/>
        <pt x="558" y="621" on="0"/>
        <pt x="565" y="615" on="0"/>
        <pt x="568" y="615" on="1"/>
        <pt x="579" y="609" on="0"/>
        <pt x="629" y="535" on="0"/>
        <pt x="634" y="511" on="1"/>
        <pt x="640" y="481" on="0"/>
        <pt x="640" y="451" on="1"/>
        <pt x="638" y="403" on="0"/>
        <pt x="632" y="365" on="1"/>
        <pt x="628" y="339" on="0"/>
        <pt x="603" y="270" on="0"/>
        <pt x="577" y="216" on="0"/>
        <pt x="575" y="216" on="1"/>
        <pt x="570" y="216" on="0"/>
        <pt x="567" y="211" on="0"/>
        <pt x="567" y="206" on="1"/>
        <pt x="565" y="194" on="0"/>
        <pt x="532" y="134" on="0"/>
        <pt x="488" y="76" on="0"/>
        <pt x="470" y="64" on="1"/>
        <pt x="427" y="17" on="0"/>
        <pt x="293" y="-36" on="0"/>
        <pt x="233" y="-36" on="1"/>
      </contour>
      <contour>
        <pt x="282" y="24" on="0"/>
        <pt x="303" y="33" on="1"/>
        <pt x="331" y="40" on="0"/>
        <pt x="401" y="83" on="0"/>
        <pt x="429" y="111" on="1"/>
        <pt x="465" y="148" on="0"/>
        <pt x="514" y="221" on="0"/>
        <pt x="538" y="279" on="1"/>
        <pt x="554" y="319" on="0"/>
        <pt x="572" y="406" on="0"/>
        <pt x="572" y="441" on="1"/>
        <pt x="572" y="500" on="0"/>
        <pt x="527" y="578" on="0"/>
        <pt x="489" y="592" on="1"/>
        <pt x="463" y="603" on="0"/>
        <pt x="429" y="603" on="1"/>
        <pt x="418" y="603" on="0"/>
        <pt x="396" y="601" on="0"/>
        <pt x="393" y="599" on="1"/>
        <pt x="381" y="599" on="0"/>
        <pt x="353" y="534" on="0"/>
        <pt x="341" y="491" on="1"/>
        <pt x="332" y="456" on="0"/>
        <pt x="317" y="420" on="1"/>
        <pt x="303" y="384" on="0"/>
        <pt x="293" y="353" on="1"/>
        <pt x="275" y="317" on="0"/>
        <pt x="251" y="243" on="0"/>
        <pt x="249" y="236" on="1"/>
        <pt x="247" y="228" on="0"/>
        <pt x="244" y="219" on="0"/>
        <pt x="243" y="216" on="1"/>
        <pt x="231" y="192" on="0"/>
        <pt x="204" y="64" on="0"/>
        <pt x="204" y="38" on="1"/>
        <pt x="204" y="24" on="0"/>
        <pt x="232" y="24" on="1"/>
      </contour>
    </TTGlyph>
    <TTGlyph name="D.ss02" xMin="90" yMin="-52" xMax="655" yMax="670">
      <contour>
        <pt x="109" y="-30" on="1"/>
        <pt x="98" y="-20" on="0"/>
        <pt x="90" y="-10" on="0"/>
        <pt x="90" y="-3" on="1"/>
        <pt x="90" y="1" on="0"/>
        <pt x="97" y="31" on="1"/>
        <pt x="101" y="57" on="0"/>
        <pt x="131" y="178" on="0"/>
        <pt x="141" y="206" on="1"/>
        <pt x="142" y="214" on="0"/>
        <pt x="151" y="243" on="0"/>
        <pt x="157" y="253" on="1"/>
        <pt x="168" y="287" on="1"/>
        <pt x="171" y="299" on="0"/>
        <pt x="196" y="361" on="0"/>
        <pt x="200" y="372" on="1"/>
        <pt x="210" y="392" on="0"/>
        <pt x="245" y="481" on="0"/>
        <pt x="252" y="497" on="1"/>
        <pt x="290" y="590" on="0"/>
        <pt x="296" y="602" on="1"/>
        <pt x="297" y="609" on="0"/>
        <pt x="294" y="613" on="0"/>
        <pt x="276" y="616" on="0"/>
        <pt x="260" y="617" on="1"/>
        <pt x="237" y="615" on="0"/>
        <pt x="189" y="601" on="1"/>
        <pt x="179" y="598" on="0"/>
        <pt x="179" y="609" on="1"/>
        <pt x="179" y="620" on="0"/>
        <pt x="198" y="649" on="0"/>
        <pt x="209" y="653" on="1"/>
        <pt x="228" y="660" on="0"/>
        <pt x="283" y="668" on="0"/>
        <pt x="303" y="668" on="1"/>
        <pt x="375" y="670" on="0"/>
        <pt x="487" y="643" on="0"/>
        <pt x="543" y="608" on="1"/>
        <pt x="563" y="595" on="0"/>
        <pt x="610" y="542" on="0"/>
        <pt x="620" y="525" on="1"/>
        <pt x="621" y="523" on="0"/>
        <pt x="636" y="495" on="0"/>
        <pt x="642" y="478" on="1"/>
        <pt x="655" y="448" on="0"/>
        <pt x="655" y="404" on="1"/>
        <pt x="655" y="351" on="0"/>
        <pt x="638" y="295" on="1"/>
        <pt x="615" y="226" on="0"/>
        <pt x="504" y="83" on="0"/>
        <pt x="449" y="54" on="1"/>
        <pt x="444" y="51" on="0"/>
        <pt x="410" y="35" on="0"/>
        <pt x="398" y="32" on="1"/>
        <pt x="391" y="23" on="0"/>
        <pt x="300" y="-16" on="1"/>
        <pt x="307" y="-13" on="0"/>
        <pt x="260" y="-34" on="1"/>
        <pt x="257" y="-34" on="1"/>
        <pt x="240" y="-34" on="0"/>
        <pt x="231" y="-43" on="1"/>
        <pt x="196" y="-52" on="0"/>
        <pt x="163" y="-50" on="1"/>
        <pt x="120" y="-52" on="1"/>
      </contour>
      <contour>
        <pt x="182" y="7" on="0"/>
        <pt x="227" y="19" on="0"/>
        <pt x="246" y="26" on="1"/>
        <pt x="255" y="29" on="0"/>
        <pt x="268" y="30" on="0"/>
        <pt x="270" y="30" on="1"/>
        <pt x="278" y="30" on="0"/>
        <pt x="368" y="77" on="1"/>
        <pt x="431" y="108" on="1"/>
        <pt x="437" y="115" on="0"/>
        <pt x="450" y="126" on="0"/>
        <pt x="456" y="132" on="1"/>
        <pt x="482" y="156" on="0"/>
        <pt x="488" y="164" on="1"/>
        <pt x="498" y="169" on="0"/>
        <pt x="521" y="198" on="0"/>
        <pt x="524" y="199" on="1"/>
        <pt x="528" y="199" on="0"/>
        <pt x="540" y="222" on="1"/>
        <pt x="558" y="251" on="0"/>
        <pt x="561" y="256" on="1"/>
        <pt x="584" y="294" on="0"/>
        <pt x="592" y="320" on="0"/>
        <pt x="597" y="360" on="1"/>
        <pt x="600" y="387" on="0"/>
        <pt x="600" y="407" on="1"/>
        <pt x="600" y="442" on="0"/>
        <pt x="579" y="491" on="0"/>
        <pt x="551" y="524" on="1"/>
        <pt x="532" y="549" on="0"/>
        <pt x="511" y="568" on="0"/>
        <pt x="495" y="577" on="1"/>
        <pt x="481" y="579" on="0"/>
        <pt x="455" y="590" on="0"/>
        <pt x="454" y="591" on="1"/>
        <pt x="448" y="600" on="0"/>
        <pt x="382" y="615" on="0"/>
        <pt x="364" y="615" on="1"/>
        <pt x="361" y="611" on="0"/>
        <pt x="359" y="603" on="0"/>
        <pt x="358" y="592" on="1"/>
        <pt x="357" y="581" on="0"/>
        <pt x="327" y="510" on="0"/>
        <pt x="315" y="501" on="1"/>
        <pt x="313" y="497" on="0"/>
        <pt x="256" y="354" on="0"/>
        <pt x="228" y="267" on="1"/>
        <pt x="223" y="256" on="0"/>
        <pt x="208" y="237" on="0"/>
        <pt x="205" y="235" on="1"/>
        <pt x="204" y="231" on="0"/>
        <pt x="202" y="213" on="0"/>
        <pt x="198" y="207" on="1"/>
        <pt x="184" y="154" on="1"/>
        <pt x="158" y="54" on="0"/>
        <pt x="156" y="44" on="1"/>
        <pt x="144" y="10" on="1"/>
        <pt x="169" y="8" on="1"/>
      </contour>
    </TTGlyph>
    <TTGlyph name="Dcaron" xMin="81" yMin="-99" xMax="676" yMax="836">
      <component glyphName="D" x="0" y="0" flags="0x1000"/>
      <component glyphName="caron.cap" x="41" y="0" flags="0x1000"/>
    </TTGlyph>
    <TTGlyph name="Dcroat" xMin="81" yMin="-99" xMax="649" yMax="703">
      <contour>
        <pt x="642" y="370" on="0"/>
        <pt x="642" y="358" on="0"/>
        <pt x="646" y="357" on="1"/>
        <pt x="644" y="351" on="0"/>
        <pt x="634" y="319" on="0"/>
        <pt x="628" y="301" on="1"/>
        <pt x="622" y="238" on="0"/>
        <pt x="572" y="153" on="1"/>
        <pt x="567" y="153" on="0"/>
        <pt x="561" y="150" on="0"/>
        <pt x="565" y="149" on="1"/>
        <pt x="565" y="144" on="0"/>
        <pt x="554" y="130" on="1"/>
        <pt x="551" y="128" on="0"/>
        <pt x="532" y="103" on="0"/>
        <pt x="528" y="100" on="1"/>
        <pt x="527" y="93" on="0"/>
        <pt x="517" y="84" on="0"/>
        <pt x="513" y="84" on="1"/>
        <pt x="513" y="84" on="0"/>
        <pt x="510" y="83" on="0"/>
        <pt x="510" y="80" on="1"/>
        <pt x="492" y="54" on="0"/>
        <pt x="397" y="-22" on="0"/>
        <pt x="360" y="-38" on="1"/>
        <pt x="350" y="-45" on="0"/>
        <pt x="323" y="-57" on="0"/>
        <pt x="318" y="-59" on="1"/>
        <pt x="310" y="-66" on="0"/>
        <pt x="245" y="-91" on="0"/>
        <pt x="225" y="-95" on="1"/>
        <pt x="199" y="-99" on="0"/>
        <pt x="191" y="-99" on="1"/>
        <pt x="171" y="-99" on="0"/>
        <pt x="143" y="-91" on="1"/>
        <pt x="130" y="-87" on="0"/>
        <pt x="118" y="-77" on="0"/>
        <pt x="103" y="-58" on="0"/>
        <pt x="99" y="-53" on="1"/>
        <pt x="81" y="-28" on="0"/>
        <pt x="81" y="-9" on="1"/>
        <pt x="81" y="6" on="0"/>
        <pt x="95" y="2" on="1"/>
        <pt x="105" y="-3" on="0"/>
        <pt x="117" y="-18" on="1"/>
        <pt x="129" y="-30" on="0"/>
        <pt x="157" y="-41" on="0"/>
        <pt x="177" y="-41" on="1"/>
        <pt x="184" y="-41" on="0"/>
        <pt x="204" y="-39" on="1"/>
        <pt x="228" y="-35" on="0"/>
        <pt x="292" y="-13" on="0"/>
        <pt x="307" y="-1" on="1"/>
        <pt x="355" y="32" on="0"/>
        <pt x="416" y="72" on="0"/>
        <pt x="424" y="77" on="1"/>
        <pt x="426" y="82" on="0"/>
        <pt x="445" y="89" on="1"/>
        <pt x="472" y="115" on="1"/>
        <pt x="498" y="143" on="0"/>
        <pt x="506" y="149" on="1"/>
        <pt x="507" y="156" on="0"/>
        <pt x="512" y="171" on="0"/>
        <pt x="512" y="175" on="1"/>
        <pt x="524" y="188" on="0"/>
        <pt x="572" y="287" on="0"/>
        <pt x="581" y="323" on="1"/>
        <pt x="590" y="370" on="0"/>
        <pt x="590" y="406" on="1"/>
        <pt x="590" y="467" on="0"/>
        <pt x="547" y="550" on="0"/>
        <pt x="506" y="585" on="1"/>
        <pt x="485" y="602" on="0"/>
        <pt x="388" y="643" on="0"/>
        <pt x="380" y="640" on="1"/>
        <pt x="375" y="638" on="0"/>
        <pt x="318" y="489" on="0"/>
        <pt x="288" y="406" on="1"/>
        <pt x="268" y="351" on="1"/>
        <pt x="286" y="351" on="1"/>
        <pt x="310" y="351" on="0"/>
        <pt x="327" y="347" on="0"/>
        <pt x="338" y="339" on="1"/>
        <pt x="348" y="328" on="0"/>
        <pt x="348" y="317" on="1"/>
        <pt x="348" y="298" on="0"/>
        <pt x="322" y="301" on="1"/>
        <pt x="292" y="298" on="0"/>
        <pt x="262" y="298" on="1"/>
        <pt x="255" y="298" on="0"/>
        <pt x="251" y="297" on="1"/>
        <pt x="248" y="289" on="0"/>
        <pt x="231" y="240" on="0"/>
        <pt x="231" y="234" on="1"/>
        <pt x="220" y="217" on="0"/>
        <pt x="207" y="162" on="0"/>
        <pt x="199" y="96" on="1"/>
        <pt x="190" y="63" on="0"/>
        <pt x="191" y="66" on="1"/>
        <pt x="187" y="49" on="0"/>
        <pt x="181" y="27" on="0"/>
        <pt x="178" y="28" on="1"/>
        <pt x="174" y="24" on="1"/>
        <pt x="174" y="18" on="0"/>
        <pt x="165" y="18" on="1"/>
        <pt x="157" y="18" on="0"/>
        <pt x="137" y="27" on="0"/>
        <pt x="131" y="33" on="1"/>
        <pt x="127" y="47" on="0"/>
        <pt x="127" y="53" on="1"/>
        <pt x="127" y="66" on="0"/>
        <pt x="135" y="93" on="1"/>
        <pt x="143" y="127" on="0"/>
        <pt x="180" y="250" on="0"/>
        <pt x="193" y="289" on="1"/>
        <pt x="194" y="290" on="0"/>
        <pt x="194" y="293" on="0"/>
        <pt x="195" y="294" on="1"/>
        <pt x="180" y="294" on="1"/>
        <pt x="160" y="294" on="0"/>
        <pt x="148" y="298" on="1"/>
        <pt x="134" y="298" on="0"/>
        <pt x="123" y="303" on="0"/>
        <pt x="119" y="310" on="1"/>
        <pt x="114" y="320" on="0"/>
        <pt x="114" y="323" on="1"/>
        <pt x="114" y="330" on="0"/>
        <pt x="134" y="337" on="0"/>
        <pt x="160" y="340" on="1"/>
        <pt x="211" y="347" on="1"/>
        <pt x="213" y="353" on="1"/>
        <pt x="224" y="390" on="0"/>
        <pt x="251" y="468" on="0"/>
        <pt x="257" y="478" on="1"/>
        <pt x="259" y="485" on="0"/>
        <pt x="282" y="551" on="0"/>
        <pt x="298" y="591" on="1"/>
        <pt x="305" y="624" on="1"/>
        <pt x="294" y="629" on="1"/>
        <pt x="285" y="626" on="0"/>
        <pt x="278" y="626" on="1"/>
        <pt x="273" y="626" on="0"/>
        <pt x="267" y="629" on="1"/>
        <pt x="257" y="626" on="0"/>
        <pt x="222" y="649" on="0"/>
        <pt x="220" y="659" on="1"/>
        <pt x="218" y="662" on="0"/>
        <pt x="217" y="674" on="0"/>
        <pt x="217" y="676" on="1"/>
        <pt x="219" y="686" on="0"/>
        <pt x="295" y="703" on="0"/>
        <pt x="340" y="703" on="1"/>
        <pt x="359" y="703" on="0"/>
        <pt x="369" y="702" on="1"/>
        <pt x="387" y="701" on="0"/>
        <pt x="420" y="691" on="0"/>
        <pt x="444" y="681" on="1"/>
        <pt x="468" y="672" on="1"/>
        <pt x="500" y="660" on="0"/>
        <pt x="573" y="600" on="0"/>
        <pt x="630" y="519" on="0"/>
        <pt x="640" y="477" on="1"/>
        <pt x="643" y="464" on="0"/>
        <pt x="649" y="418" on="0"/>
        <pt x="649" y="400" on="1"/>
        <pt x="649" y="379" on="0"/>
        <pt x="645" y="374" on="1"/>
      </contour>
    </TTGlyph>
    <TTGlyph name="E" xMin="101" yMin="-24" xMax="652" yMax="658">
      <contour>
        <pt x="228" y="-23" on="0"/>
        <pt x="190" y="-3" on="0"/>
        <pt x="166" y="16" on="1"/>
        <pt x="146" y="30" on="1"/>
        <pt x="128" y="48" on="0"/>
        <pt x="109" y="87" on="0"/>
        <pt x="103" y="118" on="1"/>
        <pt x="101" y="130" on="0"/>
        <pt x="101" y="139" on="1"/>
        <pt x="101" y="168" on="0"/>
        <pt x="121" y="247" on="0"/>
        <pt x="133" y="272" on="1"/>
        <pt x="155" y="325" on="0"/>
        <pt x="230" y="442" on="1"/>
        <pt x="234" y="446" on="0"/>
        <pt x="237" y="449" on="0"/>
        <pt x="236" y="450" on="0"/>
        <pt x="236" y="450" on="1"/>
        <pt x="236" y="457" on="0"/>
        <pt x="265" y="512" on="1"/>
        <pt x="282" y="530" on="0"/>
        <pt x="282" y="543" on="1"/>
        <pt x="282" y="550" on="0"/>
        <pt x="279" y="554" on="1"/>
        <pt x="275" y="559" on="0"/>
        <pt x="320" y="598" on="0"/>
        <pt x="354" y="617" on="1"/>
        <pt x="381" y="638" on="0"/>
        <pt x="407" y="638" on="1"/>
        <pt x="415" y="638" on="0"/>
        <pt x="426" y="633" on="0"/>
        <pt x="427" y="628" on="1"/>
        <pt x="427" y="622" on="0"/>
        <pt x="467" y="632" on="1"/>
        <pt x="485" y="636" on="0"/>
        <pt x="493" y="637" on="1"/>
        <pt x="497" y="642" on="0"/>
        <pt x="530" y="649" on="0"/>
        <pt x="560" y="653" on="1"/>
        <pt x="576" y="652" on="0"/>
        <pt x="610" y="654" on="0"/>
        <pt x="615" y="655" on="1"/>
        <pt x="623" y="658" on="0"/>
        <pt x="642" y="647" on="0"/>
        <pt x="649" y="631" on="1"/>
        <pt x="652" y="624" on="0"/>
        <pt x="652" y="618" on="1"/>
        <pt x="652" y="607" on="0"/>
        <pt x="625" y="594" on="0"/>
        <pt x="592" y="590" on="1"/>
        <pt x="559" y="586" on="0"/>
        <pt x="551" y="585" on="1"/>
        <pt x="496" y="579" on="0"/>
        <pt x="435" y="566" on="1"/>
        <pt x="396" y="558" on="0"/>
        <pt x="361" y="534" on="0"/>
        <pt x="339" y="500" on="1"/>
        <pt x="332" y="495" on="0"/>
        <pt x="310" y="454" on="0"/>
        <pt x="299" y="432" on="1"/>
        <pt x="296" y="428" on="0"/>
        <pt x="288" y="416" on="0"/>
        <pt x="282" y="409" on="1"/>
        <pt x="253" y="370" on="0"/>
        <pt x="231" y="335" on="0"/>
        <pt x="234" y="331" on="1"/>
        <pt x="237" y="330" on="0"/>
        <pt x="254" y="326" on="0"/>
        <pt x="260" y="325" on="1"/>
        <pt x="269" y="330" on="0"/>
        <pt x="301" y="334" on="0"/>
        <pt x="308" y="336" on="1"/>
        <pt x="467" y="377" on="0"/>
        <pt x="488" y="380" on="1"/>
        <pt x="497" y="386" on="0"/>
        <pt x="505" y="386" on="1"/>
        <pt x="523" y="386" on="0"/>
        <pt x="537" y="362" on="1"/>
        <pt x="540" y="356" on="0"/>
        <pt x="540" y="351" on="1"/>
        <pt x="540" y="342" on="0"/>
        <pt x="512" y="326" on="0"/>
        <pt x="434" y="303" on="0"/>
        <pt x="379" y="288" on="1"/>
        <pt x="347" y="279" on="1"/>
        <pt x="282" y="260" on="0"/>
        <pt x="246" y="260" on="1"/>
        <pt x="215" y="260" on="0"/>
        <pt x="216" y="277" on="1"/>
        <pt x="206" y="282" on="0"/>
        <pt x="181" y="228" on="0"/>
        <pt x="163" y="149" on="0"/>
        <pt x="163" y="122" on="1"/>
        <pt x="163" y="108" on="0"/>
        <pt x="166" y="100" on="1"/>
        <pt x="175" y="75" on="0"/>
        <pt x="202" y="49" on="0"/>
        <pt x="234" y="40" on="1"/>
        <pt x="241" y="39" on="0"/>
        <pt x="262" y="37" on="0"/>
        <pt x="276" y="37" on="1"/>
        <pt x="296" y="37" on="0"/>
        <pt x="316" y="45" on="1"/>
        <pt x="367" y="54" on="0"/>
        <pt x="440" y="76" on="0"/>
        <pt x="448" y="81" on="1"/>
        <pt x="454" y="84" on="0"/>
        <pt x="462" y="86" on="0"/>
        <pt x="466" y="86" on="1"/>
        <pt x="465" y="84" on="1"/>
        <pt x="465" y="84" on="0"/>
        <pt x="465" y="83" on="0"/>
        <pt x="466" y="83" on="1"/>
        <pt x="469" y="83" on="0"/>
        <pt x="484" y="100" on="1"/>
        <pt x="501" y="114" on="0"/>
        <pt x="560" y="140" on="0"/>
        <pt x="561" y="133" on="1"/>
        <pt x="563" y="127" on="0"/>
        <pt x="563" y="123" on="1"/>
        <pt x="563" y="104" on="0"/>
        <pt x="516" y="51" on="0"/>
        <pt x="476" y="28" on="1"/>
        <pt x="427" y="2" on="0"/>
        <pt x="306" y="-23" on="0"/>
        <pt x="250" y="-24" on="1"/>
      </contour>
    </TTGlyph>
    <TTGlyph name="E.ss01" xMin="146" yMin="-38" xMax="666" yMax="654">
      <contour>
        <pt x="264" y="-38" on="0"/>
        <pt x="205" y="-27" on="0"/>
        <pt x="182" y="-9" on="1"/>
        <pt x="163" y="5" on="0"/>
        <pt x="146" y="41" on="0"/>
        <pt x="146" y="68" on="1"/>
        <pt x="146" y="103" on="0"/>
        <pt x="161" y="160" on="1"/>
        <pt x="166" y="186" on="0"/>
        <pt x="179" y="223" on="0"/>
        <pt x="184" y="223" on="1"/>
        <pt x="191" y="260" on="1"/>
        <pt x="192" y="266" on="0"/>
        <pt x="198" y="287" on="0"/>
        <pt x="202" y="297" on="0"/>
        <pt x="206" y="301" on="1"/>
        <pt x="210" y="304" on="0"/>
        <pt x="218" y="328" on="1"/>
        <pt x="218" y="330" on="0"/>
        <pt x="220" y="344" on="0"/>
        <pt x="224" y="353" on="1"/>
        <pt x="239" y="378" on="0"/>
        <pt x="239" y="386" on="1"/>
        <pt x="240" y="389" on="0"/>
        <pt x="254" y="407" on="0"/>
        <pt x="258" y="419" on="1"/>
        <pt x="322" y="532" on="0"/>
        <pt x="330" y="568" on="1"/>
        <pt x="340" y="592" on="0"/>
        <pt x="351" y="604" on="1"/>
        <pt x="348" y="610" on="0"/>
        <pt x="385" y="628" on="0"/>
        <pt x="443" y="644" on="0"/>
        <pt x="469" y="646" on="1"/>
        <pt x="475" y="650" on="0"/>
        <pt x="517" y="654" on="0"/>
        <pt x="543" y="654" on="1"/>
        <pt x="561" y="654" on="0"/>
        <pt x="593" y="652" on="1"/>
        <pt x="609" y="652" on="0"/>
        <pt x="632" y="645" on="0"/>
        <pt x="650" y="636" on="0"/>
        <pt x="654" y="634" on="1"/>
        <pt x="660" y="628" on="0"/>
        <pt x="666" y="607" on="0"/>
        <pt x="666" y="604" on="1"/>
        <pt x="666" y="599" on="0"/>
        <pt x="621" y="597" on="0"/>
        <pt x="577" y="597" on="1"/>
        <pt x="540" y="597" on="0"/>
        <pt x="488" y="588" on="1"/>
        <pt x="469" y="585" on="0"/>
        <pt x="461" y="585" on="1"/>
        <pt x="449" y="581" on="0"/>
        <pt x="429" y="579" on="0"/>
        <pt x="426" y="579" on="1"/>
        <pt x="422" y="579" on="0"/>
        <pt x="360" y="476" on="0"/>
        <pt x="359" y="469" on="1"/>
        <pt x="359" y="460" on="0"/>
        <pt x="347" y="440" on="0"/>
        <pt x="332" y="419" on="1"/>
        <pt x="319" y="401" on="0"/>
        <pt x="319" y="391" on="1"/>
        <pt x="319" y="383" on="0"/>
        <pt x="325" y="381" on="1"/>
        <pt x="356" y="386" on="0"/>
        <pt x="445" y="395" on="0"/>
        <pt x="466" y="395" on="1"/>
        <pt x="476" y="398" on="0"/>
        <pt x="484" y="398" on="1"/>
        <pt x="498" y="398" on="0"/>
        <pt x="510" y="391" on="1"/>
        <pt x="521" y="389" on="0"/>
        <pt x="532" y="380" on="0"/>
        <pt x="532" y="375" on="1"/>
        <pt x="532" y="368" on="0"/>
        <pt x="524" y="365" on="1"/>
        <pt x="515" y="356" on="0"/>
        <pt x="411" y="328" on="0"/>
        <pt x="298" y="305" on="0"/>
        <pt x="291" y="307" on="1"/>
        <pt x="288" y="315" on="0"/>
        <pt x="285" y="312" on="0"/>
        <pt x="271" y="273" on="0"/>
        <pt x="260" y="248" on="1"/>
        <pt x="243" y="210" on="0"/>
        <pt x="223" y="145" on="0"/>
        <pt x="215" y="98" on="1"/>
        <pt x="209" y="74" on="0"/>
        <pt x="209" y="67" on="1"/>
        <pt x="209" y="53" on="0"/>
        <pt x="226" y="32" on="0"/>
        <pt x="247" y="23" on="1"/>
        <pt x="264" y="20" on="0"/>
        <pt x="287" y="20" on="1"/>
        <pt x="330" y="20" on="0"/>
        <pt x="377" y="32" on="1"/>
        <pt x="393" y="41" on="0"/>
        <pt x="426" y="57" on="0"/>
        <pt x="432" y="60" on="1"/>
        <pt x="439" y="61" on="0"/>
        <pt x="456" y="65" on="0"/>
        <pt x="462" y="65" on="1"/>
        <pt x="470" y="76" on="0"/>
        <pt x="482" y="76" on="1"/>
        <pt x="485" y="76" on="0"/>
        <pt x="513" y="44" on="0"/>
        <pt x="512" y="40" on="1"/>
        <pt x="512" y="30" on="0"/>
        <pt x="477" y="13" on="0"/>
        <pt x="418" y="-10" on="1"/>
        <pt x="376" y="-28" on="0"/>
        <pt x="342" y="-38" on="0"/>
        <pt x="311" y="-38" on="1"/>
      </contour>
    </TTGlyph>
    <TTGlyph name="E.ss02" xMin="150" yMin="-28" xMax="661" yMax="651">
      <contour>
        <pt x="238" y="-20" on="0"/>
        <pt x="177" y="15" on="0"/>
        <pt x="173" y="29" on="1"/>
        <pt x="173" y="34" on="0"/>
        <pt x="165" y="41" on="0"/>
        <pt x="160" y="41" on="1"/>
        <pt x="160" y="49" on="1"/>
        <pt x="160" y="56" on="1"/>
        <pt x="160" y="63" on="0"/>
        <pt x="156" y="65" on="1"/>
        <pt x="150" y="77" on="0"/>
        <pt x="150" y="100" on="1"/>
        <pt x="150" y="130" on="0"/>
        <pt x="167" y="213" on="0"/>
        <pt x="179" y="247" on="1"/>
        <pt x="179" y="254" on="0"/>
        <pt x="186" y="276" on="0"/>
        <pt x="186" y="279" on="1"/>
        <pt x="194" y="302" on="0"/>
        <pt x="242" y="402" on="0"/>
        <pt x="258" y="422" on="1"/>
        <pt x="258" y="425" on="0"/>
        <pt x="273" y="446" on="0"/>
        <pt x="276" y="457" on="1"/>
        <pt x="292" y="473" on="0"/>
        <pt x="319" y="519" on="1"/>
        <pt x="354" y="548" on="0"/>
        <pt x="348" y="571" on="1"/>
        <pt x="349" y="587" on="0"/>
        <pt x="357" y="602" on="0"/>
        <pt x="380" y="613" on="0"/>
        <pt x="407" y="619" on="1"/>
        <pt x="438" y="631" on="0"/>
        <pt x="504" y="640" on="0"/>
        <pt x="558" y="642" on="1"/>
        <pt x="571" y="645" on="0"/>
        <pt x="590" y="647" on="0"/>
        <pt x="592" y="647" on="1"/>
        <pt x="596" y="651" on="0"/>
        <pt x="661" y="624" on="0"/>
        <pt x="659" y="619" on="1"/>
        <pt x="658" y="610" on="0"/>
        <pt x="604" y="592" on="0"/>
        <pt x="570" y="588" on="1"/>
        <pt x="507" y="581" on="0"/>
        <pt x="440" y="559" on="0"/>
        <pt x="393" y="514" on="0"/>
        <pt x="363" y="467" on="1"/>
        <pt x="340" y="431" on="0"/>
        <pt x="321" y="395" on="0"/>
        <pt x="321" y="387" on="1"/>
        <pt x="321" y="382" on="0"/>
        <pt x="330" y="378" on="0"/>
        <pt x="339" y="378" on="1"/>
        <pt x="348" y="378" on="0"/>
        <pt x="372" y="383" on="0"/>
        <pt x="378" y="383" on="1"/>
        <pt x="385" y="385" on="0"/>
        <pt x="435" y="397" on="0"/>
        <pt x="458" y="400" on="1"/>
        <pt x="500" y="409" on="1"/>
        <pt x="523" y="414" on="0"/>
        <pt x="536" y="414" on="1"/>
        <pt x="570" y="414" on="0"/>
        <pt x="570" y="398" on="1"/>
        <pt x="570" y="390" on="0"/>
        <pt x="548" y="370" on="0"/>
        <pt x="529" y="362" on="1"/>
        <pt x="511" y="355" on="0"/>
        <pt x="465" y="341" on="0"/>
        <pt x="459" y="341" on="1"/>
        <pt x="457" y="340" on="0"/>
        <pt x="442" y="338" on="0"/>
        <pt x="431" y="338" on="1"/>
        <pt x="386" y="332" on="1"/>
        <pt x="353" y="328" on="1"/>
        <pt x="343" y="325" on="0"/>
        <pt x="283" y="310" on="0"/>
        <pt x="263" y="290" on="0"/>
        <pt x="255" y="270" on="1"/>
        <pt x="241" y="237" on="0"/>
        <pt x="219" y="123" on="0"/>
        <pt x="219" y="84" on="1"/>
        <pt x="219" y="56" on="0"/>
        <pt x="226" y="49" on="1"/>
        <pt x="233" y="41" on="0"/>
        <pt x="265" y="32" on="0"/>
        <pt x="286" y="32" on="1"/>
        <pt x="314" y="32" on="0"/>
        <pt x="373" y="46" on="0"/>
        <pt x="393" y="59" on="1"/>
        <pt x="412" y="74" on="0"/>
        <pt x="435" y="82" on="1"/>
        <pt x="446" y="90" on="0"/>
        <pt x="451" y="90" on="1"/>
        <pt x="456" y="90" on="0"/>
        <pt x="474" y="78" on="0"/>
        <pt x="478" y="75" on="1"/>
        <pt x="488" y="60" on="0"/>
        <pt x="488" y="53" on="1"/>
        <pt x="488" y="41" on="0"/>
        <pt x="456" y="21" on="0"/>
        <pt x="411" y="2" on="1"/>
        <pt x="364" y="-14" on="0"/>
        <pt x="308" y="-28" on="0"/>
        <pt x="285" y="-28" on="1"/>
        <pt x="269" y="-27" on="1"/>
      </contour>
    </TTGlyph>
    <TTGlyph name="Eacute" xMin="101" yMin="-24" xMax="652" yMax="858">
      <component glyphName="E" x="0" y="0" flags="0x1000"/>
      <component glyphName="acute.cap" x="28" y="0" flags="0x1000"/>
    </TTGlyph>
    <TTGlyph name="Ebreve" xMin="101" yMin="-24" xMax="673" yMax="846">
      <component glyphName="E" x="0" y="0" flags="0x1000"/>
      <component glyphName="breve.cap" x="27" y="0" flags="0x1000"/>
    </TTGlyph>
    <TTGlyph name="Ecaron" xMin="101" yMin="-24" xMax="662" yMax="836">
      <component glyphName="E" x="0" y="0" flags="0x1000"/>
      <component glyphName="caron.cap" x="27" y="0" flags="0x1000"/>
    </TTGlyph>
    <TTGlyph name="Ecircumflex" xMin="101" yMin="-24" xMax="667" yMax="842">
      <component glyphName="E" x="0" y="0" flags="0x1000"/>
      <component glyphName="circumflex.cap" x="28" y="0" flags="0x1000"/>
    </TTGlyph>
    <TTGlyph name="Edieresis" xMin="101" yMin="-24" xMax="661" yMax="839">
      <component glyphName="E" x="0" y="0" flags="0x1000"/>
      <component glyphName="dieresis.cap" x="26" y="0" flags="0x1000"/>
    </TTGlyph>
    <TTGlyph name="Edotaccent" xMin="101" yMin="-24" xMax="652" yMax="841">
      <component glyphName="E" x="0" y="0" flags="0x1000"/>
      <component glyphName="dotaccent.cap" x="25" y="0" flags="0x1000"/>
    </TTGlyph>
    <TTGlyph name="Egrave" xMin="101" yMin="-24" xMax="652" yMax="863">
      <component glyphName="E" x="0" y="0" flags="0x1000"/>
      <component glyphName="grave.cap" x="27" y="0" flags="0x1000"/>
    </TTGlyph>
    <TTGlyph name="Emacron" xMin="101" yMin="-24" xMax="680" yMax="819">
      <component glyphName="E" x="0" y="0" flags="0x1000"/>
      <component glyphName="macron.cap" x="27" y="0" flags="0x1000"/>
    </TTGlyph>
    <TTGlyph name="Eng" xMin="96" yMin="-173" xMax="691" yMax="633">
      <contour>
        <pt x="337" y="-173" on="0"/>
        <pt x="308" y="-173" on="1"/>
        <pt x="289" y="-173" on="0"/>
        <pt x="255" y="-157" on="0"/>
        <pt x="243" y="-142" on="1"/>
        <pt x="240" y="-133" on="0"/>
        <pt x="240" y="-127" on="1"/>
        <pt x="240" y="-109" on="0"/>
        <pt x="258" y="-109" on="1"/>
        <pt x="266" y="-109" on="0"/>
        <pt x="276" y="-114" on="1"/>
        <pt x="286" y="-116" on="0"/>
        <pt x="297" y="-116" on="1"/>
        <pt x="332" y="-116" on="0"/>
        <pt x="346" y="-95" on="1"/>
        <pt x="362" y="-77" on="0"/>
        <pt x="408" y="22" on="1"/>
        <pt x="419" y="45" on="1"/>
        <pt x="401" y="59" on="0"/>
        <pt x="369" y="116" on="0"/>
        <pt x="361" y="153" on="1"/>
        <pt x="354" y="187" on="0"/>
        <pt x="346" y="266" on="0"/>
        <pt x="343" y="340" on="1"/>
        <pt x="342" y="359" on="0"/>
        <pt x="338" y="465" on="1"/>
        <pt x="338" y="478" on="0"/>
        <pt x="337" y="489" on="0"/>
        <pt x="337" y="490" on="1"/>
        <pt x="333" y="489" on="0"/>
        <pt x="225" y="203" on="0"/>
        <pt x="209" y="155" on="1"/>
        <pt x="167" y="48" on="0"/>
        <pt x="161" y="16" on="1"/>
        <pt x="162" y="4" on="0"/>
        <pt x="147" y="-22" on="0"/>
        <pt x="138" y="-23" on="1"/>
        <pt x="126" y="-25" on="0"/>
        <pt x="98" y="4" on="0"/>
        <pt x="96" y="14" on="1"/>
        <pt x="103" y="54" on="0"/>
        <pt x="184" y="293" on="0"/>
        <pt x="229" y="407" on="1"/>
        <pt x="257" y="473" on="0"/>
        <pt x="303" y="591" on="0"/>
        <pt x="303" y="595" on="1"/>
        <pt x="306" y="596" on="0"/>
        <pt x="319" y="604" on="0"/>
        <pt x="323" y="606" on="1"/>
        <pt x="328" y="607" on="0"/>
        <pt x="335" y="616" on="0"/>
        <pt x="336" y="617" on="1"/>
        <pt x="336" y="619" on="1"/>
        <pt x="336" y="624" on="0"/>
        <pt x="343" y="631" on="0"/>
        <pt x="348" y="631" on="1"/>
        <pt x="360" y="633" on="0"/>
        <pt x="376" y="620" on="0"/>
        <pt x="387" y="602" on="1"/>
        <pt x="395" y="589" on="0"/>
        <pt x="400" y="561" on="0"/>
        <pt x="403" y="467" on="0"/>
        <pt x="405" y="390" on="1"/>
        <pt x="406" y="363" on="0"/>
        <pt x="414" y="223" on="1"/>
        <pt x="416" y="197" on="1"/>
        <pt x="415" y="196" on="0"/>
        <pt x="418" y="180" on="0"/>
        <pt x="419" y="176" on="1"/>
        <pt x="423" y="160" on="0"/>
        <pt x="423" y="154" on="1"/>
        <pt x="427" y="147" on="0"/>
        <pt x="431" y="131" on="0"/>
        <pt x="433" y="131" on="1"/>
        <pt x="435" y="133" on="0"/>
        <pt x="448" y="148" on="0"/>
        <pt x="455" y="159" on="1"/>
        <pt x="463" y="167" on="0"/>
        <pt x="474" y="189" on="0"/>
        <pt x="475" y="193" on="1"/>
        <pt x="482" y="199" on="0"/>
        <pt x="514" y="265" on="1"/>
        <pt x="517" y="272" on="0"/>
        <pt x="522" y="281" on="0"/>
        <pt x="523" y="284" on="1"/>
        <pt x="526" y="298" on="0"/>
        <pt x="541" y="327" on="0"/>
        <pt x="544" y="334" on="1"/>
        <pt x="552" y="354" on="0"/>
        <pt x="588" y="448" on="0"/>
        <pt x="588" y="456" on="1"/>
        <pt x="591" y="459" on="0"/>
        <pt x="601" y="489" on="0"/>
        <pt x="605" y="495" on="1"/>
        <pt x="604" y="503" on="0"/>
        <pt x="613" y="536" on="0"/>
        <pt x="619" y="552" on="1"/>
        <pt x="631" y="599" on="0"/>
        <pt x="643" y="630" on="0"/>
        <pt x="650" y="630" on="1"/>
        <pt x="655" y="630" on="0"/>
        <pt x="673" y="615" on="0"/>
        <pt x="684" y="604" on="1"/>
        <pt x="691" y="589" on="0"/>
        <pt x="691" y="583" on="1"/>
        <pt x="689" y="568" on="1"/>
        <pt x="655" y="470" on="1"/>
        <pt x="640" y="420" on="0"/>
        <pt x="577" y="252" on="0"/>
        <pt x="567" y="236" on="1"/>
        <pt x="547" y="196" on="1"/>
        <pt x="545" y="185" on="0"/>
        <pt x="535" y="163" on="0"/>
        <pt x="533" y="160" on="1"/>
        <pt x="516" y="136" on="1"/>
        <pt x="513" y="127" on="0"/>
        <pt x="505" y="117" on="1"/>
        <pt x="506" y="117" on="1"/>
        <pt x="500" y="92" on="1"/>
        <pt x="495" y="84" on="0"/>
        <pt x="481" y="51" on="1"/>
        <pt x="467" y="20" on="1"/>
        <pt x="466" y="17" on="0"/>
        <pt x="460" y="8" on="0"/>
        <pt x="460" y="6" on="1"/>
        <pt x="460" y="2" on="0"/>
        <pt x="440" y="-45" on="0"/>
        <pt x="425" y="-71" on="1"/>
        <pt x="417" y="-89" on="0"/>
        <pt x="371" y="-146" on="0"/>
        <pt x="357" y="-156" on="1"/>
      </contour>
    </TTGlyph>
    <TTGlyph name="Eogonek" xMin="101" yMin="-163" xMax="652" yMax="658">
      <component glyphName="E" x="0" y="0" flags="0x1000"/>
      <component glyphName="ogonek" x="265" y="0" flags="0x1000"/>
    </TTGlyph>
    <TTGlyph name="Eth" xMin="81" yMin="-99" xMax="649" yMax="703">
      <contour>
        <pt x="642" y="370" on="0"/>
        <pt x="642" y="358" on="0"/>
        <pt x="646" y="357" on="1"/>
        <pt x="644" y="351" on="0"/>
        <pt x="634" y="319" on="0"/>
        <pt x="628" y="301" on="1"/>
        <pt x="622" y="238" on="0"/>
        <pt x="572" y="153" on="1"/>
        <pt x="567" y="153" on="0"/>
        <pt x="561" y="150" on="0"/>
        <pt x="565" y="149" on="1"/>
        <pt x="565" y="144" on="0"/>
        <pt x="554" y="130" on="1"/>
        <pt x="551" y="128" on="0"/>
        <pt x="532" y="103" on="0"/>
        <pt x="528" y="100" on="1"/>
        <pt x="527" y="93" on="0"/>
        <pt x="517" y="84" on="0"/>
        <pt x="513" y="84" on="1"/>
        <pt x="513" y="84" on="0"/>
        <pt x="510" y="83" on="0"/>
        <pt x="510" y="80" on="1"/>
        <pt x="492" y="54" on="0"/>
        <pt x="397" y="-22" on="0"/>
        <pt x="360" y="-38" on="1"/>
        <pt x="350" y="-45" on="0"/>
        <pt x="323" y="-57" on="0"/>
        <pt x="318" y="-59" on="1"/>
        <pt x="310" y="-66" on="0"/>
        <pt x="245" y="-91" on="0"/>
        <pt x="225" y="-95" on="1"/>
        <pt x="199" y="-99" on="0"/>
        <pt x="191" y="-99" on="1"/>
        <pt x="171" y="-99" on="0"/>
        <pt x="143" y="-91" on="1"/>
        <pt x="130" y="-87" on="0"/>
        <pt x="118" y="-77" on="0"/>
        <pt x="103" y="-58" on="0"/>
        <pt x="99" y="-53" on="1"/>
        <pt x="81" y="-28" on="0"/>
        <pt x="81" y="-9" on="1"/>
        <pt x="81" y="6" on="0"/>
        <pt x="95" y="2" on="1"/>
        <pt x="105" y="-3" on="0"/>
        <pt x="117" y="-18" on="1"/>
        <pt x="129" y="-30" on="0"/>
        <pt x="157" y="-41" on="0"/>
        <pt x="177" y="-41" on="1"/>
        <pt x="184" y="-41" on="0"/>
        <pt x="204" y="-39" on="1"/>
        <pt x="228" y="-35" on="0"/>
        <pt x="292" y="-13" on="0"/>
        <pt x="307" y="-1" on="1"/>
        <pt x="355" y="32" on="0"/>
        <pt x="416" y="72" on="0"/>
        <pt x="424" y="77" on="1"/>
        <pt x="426" y="82" on="0"/>
        <pt x="445" y="89" on="1"/>
        <pt x="472" y="115" on="1"/>
        <pt x="498" y="143" on="0"/>
        <pt x="506" y="149" on="1"/>
        <pt x="507" y="156" on="0"/>
        <pt x="512" y="171" on="0"/>
        <pt x="512" y="175" on="1"/>
        <pt x="524" y="188" on="0"/>
        <pt x="572" y="287" on="0"/>
        <pt x="581" y="323" on="1"/>
        <pt x="590" y="370" on="0"/>
        <pt x="590" y="406" on="1"/>
        <pt x="590" y="467" on="0"/>
        <pt x="547" y="550" on="0"/>
        <pt x="506" y="585" on="1"/>
        <pt x="485" y="602" on="0"/>
        <pt x="388" y="643" on="0"/>
        <pt x="380" y="640" on="1"/>
        <pt x="375" y="638" on="0"/>
        <pt x="318" y="489" on="0"/>
        <pt x="288" y="406" on="1"/>
        <pt x="268" y="351" on="1"/>
        <pt x="286" y="351" on="1"/>
        <pt x="310" y="351" on="0"/>
        <pt x="327" y="347" on="0"/>
        <pt x="338" y="339" on="1"/>
        <pt x="348" y="328" on="0"/>
        <pt x="348" y="317" on="1"/>
        <pt x="348" y="298" on="0"/>
        <pt x="322" y="301" on="1"/>
        <pt x="292" y="298" on="0"/>
        <pt x="262" y="298" on="1"/>
        <pt x="255" y="298" on="0"/>
        <pt x="251" y="297" on="1"/>
        <pt x="248" y="289" on="0"/>
        <pt x="231" y="240" on="0"/>
        <pt x="231" y="234" on="1"/>
        <pt x="220" y="217" on="0"/>
        <pt x="207" y="162" on="0"/>
        <pt x="199" y="96" on="1"/>
        <pt x="190" y="63" on="0"/>
        <pt x="191" y="66" on="1"/>
        <pt x="187" y="49" on="0"/>
        <pt x="181" y="27" on="0"/>
        <pt x="178" y="28" on="1"/>
        <pt x="174" y="24" on="1"/>
        <pt x="174" y="18" on="0"/>
        <pt x="165" y="18" on="1"/>
        <pt x="157" y="18" on="0"/>
        <pt x="137" y="27" on="0"/>
        <pt x="131" y="33" on="1"/>
        <pt x="127" y="47" on="0"/>
        <pt x="127" y="53" on="1"/>
        <pt x="127" y="66" on="0"/>
        <pt x="135" y="93" on="1"/>
        <pt x="143" y="127" on="0"/>
        <pt x="180" y="250" on="0"/>
        <pt x="193" y="289" on="1"/>
        <pt x="194" y="290" on="0"/>
        <pt x="194" y="293" on="0"/>
        <pt x="195" y="294" on="1"/>
        <pt x="180" y="294" on="1"/>
        <pt x="160" y="294" on="0"/>
        <pt x="148" y="298" on="1"/>
        <pt x="134" y="298" on="0"/>
        <pt x="123" y="303" on="0"/>
        <pt x="119" y="310" on="1"/>
        <pt x="114" y="320" on="0"/>
        <pt x="114" y="323" on="1"/>
        <pt x="114" y="330" on="0"/>
        <pt x="134" y="337" on="0"/>
        <pt x="160" y="340" on="1"/>
        <pt x="211" y="347" on="1"/>
        <pt x="213" y="353" on="1"/>
        <pt x="224" y="390" on="0"/>
        <pt x="251" y="468" on="0"/>
        <pt x="257" y="478" on="1"/>
        <pt x="259" y="485" on="0"/>
        <pt x="282" y="551" on="0"/>
        <pt x="298" y="591" on="1"/>
        <pt x="305" y="624" on="1"/>
        <pt x="294" y="629" on="1"/>
        <pt x="285" y="626" on="0"/>
        <pt x="278" y="626" on="1"/>
        <pt x="273" y="626" on="0"/>
        <pt x="267" y="629" on="1"/>
        <pt x="257" y="626" on="0"/>
        <pt x="222" y="649" on="0"/>
        <pt x="220" y="659" on="1"/>
        <pt x="218" y="662" on="0"/>
        <pt x="217" y="674" on="0"/>
        <pt x="217" y="676" on="1"/>
        <pt x="219" y="686" on="0"/>
        <pt x="295" y="703" on="0"/>
        <pt x="340" y="703" on="1"/>
        <pt x="359" y="703" on="0"/>
        <pt x="369" y="702" on="1"/>
        <pt x="387" y="701" on="0"/>
        <pt x="420" y="691" on="0"/>
        <pt x="444" y="681" on="1"/>
        <pt x="468" y="672" on="1"/>
        <pt x="500" y="660" on="0"/>
        <pt x="573" y="600" on="0"/>
        <pt x="630" y="519" on="0"/>
        <pt x="640" y="477" on="1"/>
        <pt x="643" y="464" on="0"/>
        <pt x="649" y="418" on="0"/>
        <pt x="649" y="400" on="1"/>
        <pt x="649" y="379" on="0"/>
        <pt x="645" y="374" on="1"/>
      </contour>
    </TTGlyph>
    <TTGlyph name="Euro" xMin="35" yMin="-22" xMax="583" yMax="644">
      <contour>
        <pt x="571" y="572" on="0"/>
        <pt x="583" y="520" on="0"/>
        <pt x="583" y="497" on="1"/>
        <pt x="583" y="475" on="0"/>
        <pt x="577" y="460" on="1"/>
        <pt x="575" y="456" on="0"/>
        <pt x="567" y="439" on="0"/>
        <pt x="559" y="434" on="0"/>
        <pt x="550" y="433" on="1"/>
        <pt x="541" y="429" on="0"/>
        <pt x="518" y="443" on="1"/>
        <pt x="513" y="448" on="0"/>
        <pt x="504" y="454" on="0"/>
        <pt x="502" y="455" on="1"/>
        <pt x="502" y="458" on="0"/>
        <pt x="505" y="477" on="0"/>
        <pt x="508" y="486" on="1"/>
        <pt x="517" y="510" on="0"/>
        <pt x="517" y="532" on="1"/>
        <pt x="517" y="555" on="0"/>
        <pt x="500" y="587" on="0"/>
        <pt x="485" y="591" on="1"/>
        <pt x="462" y="592" on="0"/>
        <pt x="390" y="545" on="0"/>
        <pt x="356" y="506" on="1"/>
        <pt x="300" y="442" on="0"/>
        <pt x="262" y="383" on="1"/>
        <pt x="375" y="381" on="1"/>
        <pt x="401" y="381" on="0"/>
        <pt x="419" y="376" on="0"/>
        <pt x="430" y="366" on="1"/>
        <pt x="442" y="354" on="0"/>
        <pt x="442" y="343" on="1"/>
        <pt x="442" y="334" on="0"/>
        <pt x="427" y="326" on="0"/>
        <pt x="414" y="328" on="1"/>
        <pt x="351" y="323" on="1"/>
        <pt x="340" y="322" on="0"/>
        <pt x="229" y="326" on="1"/>
        <pt x="215" y="295" on="1"/>
        <pt x="195" y="241" on="1"/>
        <pt x="280" y="240" on="1"/>
        <pt x="299" y="239" on="0"/>
        <pt x="327" y="239" on="1"/>
        <pt x="353" y="239" on="0"/>
        <pt x="371" y="234" on="0"/>
        <pt x="382" y="224" on="1"/>
        <pt x="394" y="212" on="0"/>
        <pt x="394" y="201" on="1"/>
        <pt x="394" y="192" on="0"/>
        <pt x="379" y="184" on="0"/>
        <pt x="366" y="186" on="1"/>
        <pt x="310" y="188" on="1"/>
        <pt x="221" y="192" on="0"/>
        <pt x="203" y="191" on="1"/>
        <pt x="180" y="189" on="1"/>
        <pt x="168" y="145" on="0"/>
        <pt x="164" y="114" on="1"/>
        <pt x="167" y="102" on="0"/>
        <pt x="167" y="94" on="1"/>
        <pt x="167" y="86" on="0"/>
        <pt x="163" y="86" on="1"/>
        <pt x="165" y="75" on="0"/>
        <pt x="183" y="43" on="0"/>
        <pt x="193" y="34" on="1"/>
        <pt x="200" y="27" on="0"/>
        <pt x="215" y="27" on="1"/>
        <pt x="223" y="28" on="1"/>
        <pt x="240" y="26" on="0"/>
        <pt x="318" y="43" on="0"/>
        <pt x="328" y="50" on="1"/>
        <pt x="331" y="51" on="0"/>
        <pt x="350" y="56" on="0"/>
        <pt x="357" y="56" on="1"/>
        <pt x="362" y="59" on="0"/>
        <pt x="376" y="65" on="1"/>
        <pt x="399" y="75" on="0"/>
        <pt x="411" y="83" on="1"/>
        <pt x="438" y="94" on="0"/>
        <pt x="485" y="105" on="0"/>
        <pt x="492" y="103" on="1"/>
        <pt x="491" y="102" on="0"/>
        <pt x="486" y="93" on="0"/>
        <pt x="483" y="85" on="1"/>
        <pt x="476" y="76" on="0"/>
        <pt x="427" y="36" on="0"/>
        <pt x="423" y="36" on="1"/>
        <pt x="408" y="34" on="0"/>
        <pt x="383" y="18" on="1"/>
        <pt x="319" y="-18" on="0"/>
        <pt x="269" y="-19" on="1"/>
        <pt x="259" y="-22" on="0"/>
        <pt x="247" y="-22" on="1"/>
        <pt x="219" y="-22" on="0"/>
        <pt x="156" y="4" on="0"/>
        <pt x="131" y="24" on="1"/>
        <pt x="122" y="37" on="0"/>
        <pt x="95" y="102" on="0"/>
        <pt x="98" y="106" on="1"/>
        <pt x="101" y="111" on="0"/>
        <pt x="103" y="123" on="0"/>
        <pt x="102" y="127" on="1"/>
        <pt x="100" y="133" on="0"/>
        <pt x="100" y="139" on="1"/>
        <pt x="100" y="156" on="0"/>
        <pt x="109" y="186" on="1"/>
        <pt x="105" y="186" on="1"/>
        <pt x="85" y="186" on="0"/>
        <pt x="70" y="191" on="1"/>
        <pt x="56" y="191" on="0"/>
        <pt x="45" y="197" on="0"/>
        <pt x="41" y="205" on="1"/>
        <pt x="35" y="214" on="0"/>
        <pt x="35" y="219" on="1"/>
        <pt x="35" y="225" on="0"/>
        <pt x="57" y="232" on="0"/>
        <pt x="85" y="235" on="1"/>
        <pt x="103" y="239" on="0"/>
        <pt x="127" y="240" on="1"/>
        <pt x="142" y="279" on="0"/>
        <pt x="165" y="328" on="1"/>
        <pt x="153" y="328" on="1"/>
        <pt x="133" y="328" on="0"/>
        <pt x="118" y="333" on="1"/>
        <pt x="104" y="333" on="0"/>
        <pt x="93" y="339" on="0"/>
        <pt x="89" y="347" on="1"/>
        <pt x="83" y="356" on="0"/>
        <pt x="83" y="361" on="1"/>
        <pt x="83" y="367" on="0"/>
        <pt x="105" y="374" on="0"/>
        <pt x="133" y="377" on="1"/>
        <pt x="147" y="380" on="0"/>
        <pt x="191" y="382" on="1"/>
        <pt x="215" y="430" on="0"/>
        <pt x="304" y="541" on="0"/>
        <pt x="396" y="627" on="0"/>
        <pt x="424" y="638" on="1"/>
        <pt x="442" y="644" on="0"/>
        <pt x="450" y="644" on="1"/>
        <pt x="482" y="644" on="0"/>
        <pt x="543" y="613" on="0"/>
        <pt x="562" y="589" on="1"/>
      </contour>
    </TTGlyph>
    <TTGlyph name="F" xMin="94" yMin="-22" xMax="664" yMax="641">
      <contour>
        <pt x="141" y="-22" on="0"/>
        <pt x="134" y="-22" on="1"/>
        <pt x="128" y="-22" on="0"/>
        <pt x="113" y="-16" on="0"/>
        <pt x="108" y="-10" on="1"/>
        <pt x="101" y="-4" on="0"/>
        <pt x="94" y="4" on="0"/>
        <pt x="94" y="10" on="1"/>
        <pt x="94" y="18" on="0"/>
        <pt x="100" y="36" on="1"/>
        <pt x="108" y="72" on="0"/>
        <pt x="151" y="206" on="0"/>
        <pt x="168" y="240" on="1"/>
        <pt x="175" y="252" on="0"/>
        <pt x="183" y="278" on="0"/>
        <pt x="184" y="282" on="1"/>
        <pt x="189" y="300" on="0"/>
        <pt x="190" y="303" on="1"/>
        <pt x="189" y="313" on="1"/>
        <pt x="189" y="317" on="0"/>
        <pt x="193" y="325" on="0"/>
        <pt x="198" y="330" on="1"/>
        <pt x="212" y="342" on="0"/>
        <pt x="228" y="377" on="1"/>
        <pt x="266" y="486" on="1"/>
        <pt x="278" y="520" on="1"/>
        <pt x="279" y="524" on="0"/>
        <pt x="285" y="544" on="0"/>
        <pt x="285" y="552" on="0"/>
        <pt x="283" y="552" on="1"/>
        <pt x="275" y="550" on="0"/>
        <pt x="251" y="549" on="1"/>
        <pt x="239" y="547" on="0"/>
        <pt x="227" y="546" on="0"/>
        <pt x="224" y="545" on="1"/>
        <pt x="217" y="545" on="1"/>
        <pt x="198" y="545" on="0"/>
        <pt x="198" y="559" on="1"/>
        <pt x="200" y="575" on="0"/>
        <pt x="219" y="596" on="0"/>
        <pt x="234" y="597" on="1"/>
        <pt x="273" y="606" on="1"/>
        <pt x="282" y="608" on="0"/>
        <pt x="313" y="615" on="0"/>
        <pt x="319" y="613" on="1"/>
        <pt x="332" y="622" on="0"/>
        <pt x="332" y="627" on="1"/>
        <pt x="332" y="632" on="0"/>
        <pt x="342" y="638" on="0"/>
        <pt x="349" y="638" on="1"/>
        <pt x="363" y="638" on="0"/>
        <pt x="369" y="629" on="1"/>
        <pt x="373" y="623" on="0"/>
        <pt x="386" y="623" on="1"/>
        <pt x="407" y="623" on="0"/>
        <pt x="456" y="634" on="1"/>
        <pt x="464" y="635" on="0"/>
        <pt x="503" y="638" on="0"/>
        <pt x="516" y="638" on="1"/>
        <pt x="534" y="638" on="0"/>
        <pt x="545" y="635" on="1"/>
        <pt x="554" y="637" on="0"/>
        <pt x="568" y="637" on="0"/>
        <pt x="573" y="638" on="1"/>
        <pt x="590" y="638" on="0"/>
        <pt x="594" y="641" on="1"/>
        <pt x="603" y="639" on="0"/>
        <pt x="626" y="636" on="0"/>
        <pt x="636" y="632" on="0"/>
        <pt x="640" y="629" on="1"/>
        <pt x="643" y="625" on="0"/>
        <pt x="643" y="619" on="0"/>
        <pt x="642" y="618" on="1"/>
        <pt x="640" y="619" on="1"/>
        <pt x="641" y="619" on="0"/>
        <pt x="646" y="616" on="0"/>
        <pt x="649" y="613" on="1"/>
        <pt x="664" y="605" on="0"/>
        <pt x="659" y="590" on="1"/>
        <pt x="658" y="584" on="0"/>
        <pt x="651" y="579" on="0"/>
        <pt x="625" y="578" on="0"/>
        <pt x="604" y="579" on="1"/>
        <pt x="566" y="584" on="0"/>
        <pt x="538" y="584" on="1"/>
        <pt x="496" y="584" on="0"/>
        <pt x="423" y="574" on="1"/>
        <pt x="405" y="573" on="0"/>
        <pt x="374" y="565" on="0"/>
        <pt x="370" y="564" on="1"/>
        <pt x="365" y="564" on="0"/>
        <pt x="345" y="534" on="0"/>
        <pt x="337" y="511" on="1"/>
        <pt x="331" y="502" on="0"/>
        <pt x="301" y="425" on="0"/>
        <pt x="296" y="413" on="1"/>
        <pt x="274" y="355" on="0"/>
        <pt x="271" y="350" on="1"/>
        <pt x="283" y="346" on="0"/>
        <pt x="319" y="346" on="1"/>
        <pt x="371" y="346" on="0"/>
        <pt x="457" y="354" on="1"/>
        <pt x="503" y="363" on="0"/>
        <pt x="510" y="360" on="1"/>
        <pt x="516" y="356" on="0"/>
        <pt x="525" y="334" on="0"/>
        <pt x="525" y="325" on="1"/>
        <pt x="525" y="320" on="0"/>
        <pt x="523" y="316" on="1"/>
        <pt x="520" y="309" on="0"/>
        <pt x="483" y="301" on="0"/>
        <pt x="436" y="296" on="1"/>
        <pt x="392" y="292" on="0"/>
        <pt x="308" y="292" on="1"/>
        <pt x="264" y="292" on="0"/>
        <pt x="256" y="294" on="1"/>
        <pt x="254" y="293" on="0"/>
        <pt x="247" y="283" on="0"/>
        <pt x="247" y="276" on="1"/>
        <pt x="229" y="244" on="0"/>
        <pt x="159" y="60" on="0"/>
        <pt x="159" y="42" on="1"/>
        <pt x="152" y="24" on="0"/>
        <pt x="148" y="1" on="1"/>
        <pt x="147" y="-3" on="0"/>
        <pt x="143" y="-17" on="0"/>
        <pt x="141" y="-19" on="1"/>
      </contour>
    </TTGlyph>
    <TTGlyph name="F.ss01" xMin="148" yMin="-32" xMax="673" yMax="681">
      <contour>
        <pt x="148" y="2" on="1"/>
        <pt x="156" y="49" on="1"/>
        <pt x="165" y="114" on="0"/>
        <pt x="188" y="220" on="0"/>
        <pt x="192" y="220" on="1"/>
        <pt x="196" y="222" on="0"/>
        <pt x="197" y="241" on="0"/>
        <pt x="197" y="245" on="1"/>
        <pt x="199" y="270" on="1"/>
        <pt x="184" y="268" on="1"/>
        <pt x="172" y="270" on="0"/>
        <pt x="168" y="276" on="0"/>
        <pt x="168" y="291" on="1"/>
        <pt x="169" y="302" on="0"/>
        <pt x="174" y="310" on="0"/>
        <pt x="182" y="311" on="1"/>
        <pt x="199" y="317" on="0"/>
        <pt x="233" y="344" on="0"/>
        <pt x="232" y="353" on="1"/>
        <pt x="233" y="368" on="0"/>
        <pt x="263" y="462" on="0"/>
        <pt x="281" y="496" on="1"/>
        <pt x="292" y="533" on="0"/>
        <pt x="292" y="543" on="1"/>
        <pt x="300" y="572" on="0"/>
        <pt x="300" y="575" on="1"/>
        <pt x="304" y="585" on="0"/>
        <pt x="304" y="585" on="1"/>
        <pt x="304" y="589" on="0"/>
        <pt x="298" y="589" on="1"/>
        <pt x="295" y="589" on="0"/>
        <pt x="283" y="587" on="1"/>
        <pt x="281" y="586" on="0"/>
        <pt x="263" y="584" on="0"/>
        <pt x="254" y="585" on="1"/>
        <pt x="242" y="582" on="0"/>
        <pt x="235" y="582" on="1"/>
        <pt x="230" y="582" on="0"/>
        <pt x="224" y="586" on="0"/>
        <pt x="222" y="591" on="1"/>
        <pt x="214" y="599" on="0"/>
        <pt x="214" y="608" on="1"/>
        <pt x="214" y="613" on="0"/>
        <pt x="220" y="620" on="0"/>
        <pt x="225" y="619" on="1"/>
        <pt x="227" y="619" on="1"/>
        <pt x="233" y="619" on="0"/>
        <pt x="241" y="627" on="1"/>
        <pt x="245" y="631" on="0"/>
        <pt x="277" y="642" on="0"/>
        <pt x="297" y="643" on="1"/>
        <pt x="311" y="644" on="0"/>
        <pt x="358" y="659" on="0"/>
        <pt x="362" y="663" on="1"/>
        <pt x="362" y="668" on="0"/>
        <pt x="376" y="668" on="0"/>
        <pt x="377" y="668" on="1"/>
        <pt x="383" y="669" on="0"/>
        <pt x="404" y="672" on="0"/>
        <pt x="407" y="671" on="1"/>
        <pt x="428" y="680" on="0"/>
        <pt x="524" y="679" on="1"/>
        <pt x="549" y="677" on="1"/>
        <pt x="562" y="677" on="0"/>
        <pt x="562" y="681" on="1"/>
        <pt x="565" y="681" on="0"/>
        <pt x="590" y="677" on="0"/>
        <pt x="604" y="673" on="1"/>
        <pt x="639" y="671" on="0"/>
        <pt x="668" y="648" on="0"/>
        <pt x="669" y="620" on="1"/>
        <pt x="673" y="597" on="1"/>
        <pt x="646" y="606" on="1"/>
        <pt x="623" y="609" on="0"/>
        <pt x="540" y="618" on="0"/>
        <pt x="515" y="618" on="1"/>
        <pt x="504" y="618" on="0"/>
        <pt x="500" y="617" on="1"/>
        <pt x="492" y="617" on="0"/>
        <pt x="466" y="614" on="0"/>
        <pt x="457" y="615" on="1"/>
        <pt x="442" y="611" on="0"/>
        <pt x="426" y="611" on="1"/>
        <pt x="414" y="612" on="1"/>
        <pt x="408" y="610" on="0"/>
        <pt x="387" y="606" on="0"/>
        <pt x="383" y="603" on="1"/>
        <pt x="381" y="602" on="0"/>
        <pt x="371" y="597" on="0"/>
        <pt x="368" y="597" on="1"/>
        <pt x="367" y="597" on="1"/>
        <pt x="365" y="597" on="0"/>
        <pt x="363" y="582" on="0"/>
        <pt x="362" y="573" on="1"/>
        <pt x="363" y="553" on="0"/>
        <pt x="355" y="524" on="0"/>
        <pt x="334" y="470" on="1"/>
        <pt x="325" y="445" on="1"/>
        <pt x="313" y="416" on="0"/>
        <pt x="310" y="401" on="1"/>
        <pt x="299" y="371" on="0"/>
        <pt x="289" y="355" on="1"/>
        <pt x="290" y="345" on="0"/>
        <pt x="293" y="345" on="1"/>
        <pt x="296" y="345" on="0"/>
        <pt x="301" y="350" on="1"/>
        <pt x="303" y="349" on="0"/>
        <pt x="308" y="349" on="1"/>
        <pt x="314" y="349" on="0"/>
        <pt x="324" y="354" on="1"/>
        <pt x="334" y="354" on="0"/>
        <pt x="344" y="352" on="1"/>
        <pt x="344" y="353" on="1"/>
        <pt x="344" y="356" on="0"/>
        <pt x="365" y="357" on="0"/>
        <pt x="372" y="358" on="1"/>
        <pt x="379" y="362" on="0"/>
        <pt x="401" y="366" on="1"/>
        <pt x="417" y="370" on="0"/>
        <pt x="423" y="372" on="1"/>
        <pt x="435" y="377" on="0"/>
        <pt x="438" y="377" on="1"/>
        <pt x="442" y="377" on="0"/>
        <pt x="456" y="371" on="1"/>
        <pt x="468" y="355" on="0"/>
        <pt x="468" y="332" on="1"/>
        <pt x="468" y="317" on="0"/>
        <pt x="462" y="312" on="1"/>
        <pt x="431" y="301" on="1"/>
        <pt x="428" y="302" on="0"/>
        <pt x="421" y="302" on="1"/>
        <pt x="406" y="302" on="0"/>
        <pt x="396" y="297" on="1"/>
        <pt x="379" y="287" on="0"/>
        <pt x="352" y="287" on="1"/>
        <pt x="336" y="287" on="0"/>
        <pt x="327" y="288" on="1"/>
        <pt x="322" y="284" on="0"/>
        <pt x="299" y="281" on="0"/>
        <pt x="296" y="279" on="1"/>
        <pt x="293" y="279" on="0"/>
        <pt x="275" y="276" on="0"/>
        <pt x="272" y="277" on="1"/>
        <pt x="266" y="277" on="0"/>
        <pt x="266" y="262" on="1"/>
        <pt x="266" y="259" on="0"/>
        <pt x="261" y="251" on="0"/>
        <pt x="260" y="250" on="1"/>
        <pt x="256" y="247" on="0"/>
        <pt x="253" y="241" on="0"/>
        <pt x="253" y="237" on="1"/>
        <pt x="253" y="234" on="0"/>
        <pt x="251" y="210" on="0"/>
        <pt x="247" y="199" on="1"/>
        <pt x="234" y="157" on="0"/>
        <pt x="217" y="81" on="0"/>
        <pt x="221" y="76" on="1"/>
        <pt x="231" y="66" on="0"/>
        <pt x="238" y="65" on="1"/>
        <pt x="239" y="66" on="0"/>
        <pt x="241" y="66" on="1"/>
        <pt x="245" y="66" on="0"/>
        <pt x="251" y="53" on="0"/>
        <pt x="253" y="44" on="1"/>
        <pt x="252" y="37" on="0"/>
        <pt x="225" y="3" on="1"/>
        <pt x="210" y="-32" on="0"/>
        <pt x="193" y="-32" on="1"/>
        <pt x="181" y="-32" on="0"/>
        <pt x="163" y="-16" on="1"/>
      </contour>
    </TTGlyph>
    <TTGlyph name="F.ss02" xMin="92" yMin="-5" xMax="611" yMax="646">
      <contour>
        <pt x="103" y="8" on="0"/>
        <pt x="92" y="24" on="0"/>
        <pt x="92" y="35" on="1"/>
        <pt x="92" y="43" on="0"/>
        <pt x="94" y="47" on="1"/>
        <pt x="107" y="58" on="0"/>
        <pt x="107" y="74" on="1"/>
        <pt x="110" y="88" on="0"/>
        <pt x="114" y="100" on="0"/>
        <pt x="117" y="104" on="1"/>
        <pt x="120" y="114" on="0"/>
        <pt x="134" y="161" on="0"/>
        <pt x="137" y="174" on="1"/>
        <pt x="138" y="182" on="0"/>
        <pt x="144" y="204" on="0"/>
        <pt x="145" y="208" on="1"/>
        <pt x="151" y="214" on="0"/>
        <pt x="164" y="247" on="1"/>
        <pt x="165" y="269" on="0"/>
        <pt x="177" y="278" on="1"/>
        <pt x="183" y="288" on="0"/>
        <pt x="183" y="303" on="1"/>
        <pt x="174" y="303" on="0"/>
        <pt x="212" y="391" on="1"/>
        <pt x="220" y="406" on="0"/>
        <pt x="232" y="436" on="0"/>
        <pt x="233" y="440" on="1"/>
        <pt x="233" y="443" on="0"/>
        <pt x="240" y="455" on="0"/>
        <pt x="242" y="461" on="1"/>
        <pt x="242" y="464" on="0"/>
        <pt x="256" y="494" on="0"/>
        <pt x="262" y="510" on="1"/>
        <pt x="271" y="544" on="0"/>
        <pt x="282" y="562" on="1"/>
        <pt x="284" y="572" on="0"/>
        <pt x="295" y="592" on="1"/>
        <pt x="301" y="601" on="0"/>
        <pt x="304" y="610" on="1"/>
        <pt x="308" y="622" on="0"/>
        <pt x="327" y="634" on="0"/>
        <pt x="339" y="634" on="1"/>
        <pt x="349" y="634" on="0"/>
        <pt x="359" y="629" on="1"/>
        <pt x="368" y="618" on="0"/>
        <pt x="376" y="618" on="1"/>
        <pt x="384" y="618" on="0"/>
        <pt x="404" y="629" on="1"/>
        <pt x="417" y="629" on="0"/>
        <pt x="468" y="635" on="0"/>
        <pt x="488" y="639" on="1"/>
        <pt x="504" y="639" on="0"/>
        <pt x="539" y="644" on="0"/>
        <pt x="543" y="644" on="1"/>
        <pt x="545" y="646" on="0"/>
        <pt x="555" y="646" on="1"/>
        <pt x="568" y="646" on="0"/>
        <pt x="599" y="639" on="0"/>
        <pt x="605" y="633" on="1"/>
        <pt x="608" y="626" on="0"/>
        <pt x="611" y="608" on="0"/>
        <pt x="611" y="599" on="1"/>
        <pt x="611" y="590" on="0"/>
        <pt x="608" y="590" on="1"/>
        <pt x="556" y="590" on="1"/>
        <pt x="529" y="590" on="0"/>
        <pt x="476" y="580" on="1"/>
        <pt x="467" y="580" on="0"/>
        <pt x="452" y="578" on="0"/>
        <pt x="447" y="577" on="1"/>
        <pt x="427" y="573" on="0"/>
        <pt x="418" y="573" on="1"/>
        <pt x="389" y="569" on="0"/>
        <pt x="364" y="562" on="0"/>
        <pt x="351" y="550" on="0"/>
        <pt x="345" y="535" on="1"/>
        <pt x="342" y="527" on="0"/>
        <pt x="309" y="451" on="0"/>
        <pt x="299" y="419" on="1"/>
        <pt x="287" y="376" on="1"/>
        <pt x="303" y="376" on="1"/>
        <pt x="340" y="378" on="0"/>
        <pt x="396" y="385" on="1"/>
        <pt x="420" y="390" on="0"/>
        <pt x="440" y="391" on="1"/>
        <pt x="463" y="394" on="0"/>
        <pt x="479" y="394" on="1"/>
        <pt x="528" y="394" on="0"/>
        <pt x="528" y="362" on="1"/>
        <pt x="528" y="355" on="0"/>
        <pt x="510" y="343" on="0"/>
        <pt x="477" y="338" on="1"/>
        <pt x="387" y="331" on="1"/>
        <pt x="289" y="323" on="0"/>
        <pt x="277" y="323" on="1"/>
        <pt x="272" y="324" on="0"/>
        <pt x="265" y="324" on="1"/>
        <pt x="259" y="324" on="0"/>
        <pt x="256" y="320" on="0"/>
        <pt x="255" y="315" on="1"/>
        <pt x="255" y="312" on="0"/>
        <pt x="249" y="292" on="0"/>
        <pt x="248" y="286" on="1"/>
        <pt x="238" y="273" on="0"/>
        <pt x="231" y="241" on="1"/>
        <pt x="229" y="235" on="0"/>
        <pt x="225" y="226" on="0"/>
        <pt x="224" y="222" on="1"/>
        <pt x="219" y="212" on="0"/>
        <pt x="217" y="202" on="1"/>
        <pt x="214" y="198" on="0"/>
        <pt x="191" y="128" on="1"/>
        <pt x="173" y="74" on="1"/>
        <pt x="158" y="23" on="0"/>
        <pt x="145" y="-5" on="0"/>
        <pt x="133" y="-5" on="1"/>
        <pt x="125" y="-5" on="0"/>
        <pt x="113" y="-1" on="1"/>
      </contour>
    </TTGlyph>
    <TTGlyph name="G" xMin="124" yMin="-46" xMax="592" yMax="678">
      <contour>
        <pt x="155" y="-14" on="0"/>
        <pt x="124" y="48" on="0"/>
        <pt x="126" y="81" on="1"/>
        <pt x="125" y="199" on="0"/>
        <pt x="167" y="330" on="1"/>
        <pt x="185" y="383" on="0"/>
        <pt x="237" y="500" on="0"/>
        <pt x="255" y="531" on="1"/>
        <pt x="283" y="577" on="0"/>
        <pt x="351" y="647" on="0"/>
        <pt x="372" y="659" on="1"/>
        <pt x="385" y="666" on="0"/>
        <pt x="430" y="678" on="0"/>
        <pt x="455" y="678" on="1"/>
        <pt x="475" y="678" on="0"/>
        <pt x="492" y="674" on="1"/>
        <pt x="516" y="668" on="0"/>
        <pt x="562" y="647" on="0"/>
        <pt x="570" y="640" on="1"/>
        <pt x="574" y="634" on="0"/>
        <pt x="585" y="618" on="0"/>
        <pt x="591" y="606" on="0"/>
        <pt x="591" y="599" on="1"/>
        <pt x="592" y="589" on="0"/>
        <pt x="573" y="561" on="0"/>
        <pt x="563" y="561" on="1"/>
        <pt x="557" y="561" on="0"/>
        <pt x="551" y="568" on="1"/>
        <pt x="541" y="583" on="0"/>
        <pt x="521" y="598" on="0"/>
        <pt x="499" y="608" on="0"/>
        <pt x="494" y="611" on="1"/>
        <pt x="481" y="619" on="0"/>
        <pt x="458" y="619" on="1"/>
        <pt x="440" y="619" on="0"/>
        <pt x="403" y="608" on="0"/>
        <pt x="390" y="597" on="1"/>
        <pt x="372" y="581" on="0"/>
        <pt x="320" y="518" on="0"/>
        <pt x="306" y="491" on="1"/>
        <pt x="246" y="386" on="0"/>
        <pt x="221" y="293" on="1"/>
        <pt x="213" y="264" on="0"/>
        <pt x="193" y="176" on="0"/>
        <pt x="190" y="154" on="1"/>
        <pt x="184" y="117" on="0"/>
        <pt x="184" y="87" on="1"/>
        <pt x="184" y="50" on="0"/>
        <pt x="209" y="11" on="0"/>
        <pt x="238" y="11" on="1"/>
        <pt x="258" y="11" on="0"/>
        <pt x="287" y="21" on="1"/>
        <pt x="320" y="25" on="0"/>
        <pt x="404" y="94" on="0"/>
        <pt x="432" y="138" on="1"/>
        <pt x="477" y="222" on="0"/>
        <pt x="477" y="251" on="1"/>
        <pt x="477" y="271" on="0"/>
        <pt x="458" y="271" on="1"/>
        <pt x="438" y="273" on="0"/>
        <pt x="408" y="273" on="1"/>
        <pt x="388" y="273" on="0"/>
        <pt x="366" y="275" on="0"/>
        <pt x="357" y="280" on="1"/>
        <pt x="350" y="291" on="0"/>
        <pt x="350" y="299" on="1"/>
        <pt x="350" y="311" on="0"/>
        <pt x="363" y="324" on="1"/>
        <pt x="377" y="330" on="0"/>
        <pt x="418" y="330" on="1"/>
        <pt x="476" y="330" on="0"/>
        <pt x="509" y="314" on="1"/>
        <pt x="540" y="299" on="0"/>
        <pt x="540" y="253" on="1"/>
        <pt x="540" y="231" on="0"/>
        <pt x="536" y="214" on="1"/>
        <pt x="527" y="175" on="0"/>
        <pt x="475" y="97" on="1"/>
        <pt x="452" y="65" on="0"/>
        <pt x="361" y="-10" on="0"/>
        <pt x="333" y="-21" on="1"/>
        <pt x="278" y="-46" on="0"/>
        <pt x="234" y="-46" on="1"/>
        <pt x="203" y="-46" on="0"/>
        <pt x="182" y="-31" on="1"/>
      </contour>
    </TTGlyph>
    <TTGlyph name="G.ss01" xMin="130" yMin="-50" xMax="580" yMax="681">
      <contour>
        <pt x="164" y="-21" on="0"/>
        <pt x="131" y="40" on="0"/>
        <pt x="131" y="73" on="1"/>
        <pt x="130" y="103" on="1"/>
        <pt x="130" y="208" on="0"/>
        <pt x="164" y="323" on="1"/>
        <pt x="180" y="377" on="0"/>
        <pt x="227" y="495" on="0"/>
        <pt x="245" y="527" on="1"/>
        <pt x="271" y="574" on="0"/>
        <pt x="336" y="646" on="0"/>
        <pt x="357" y="659" on="1"/>
        <pt x="371" y="667" on="0"/>
        <pt x="418" y="681" on="0"/>
        <pt x="444" y="681" on="1"/>
        <pt x="459" y="681" on="0"/>
        <pt x="476" y="678" on="1"/>
        <pt x="501" y="673" on="0"/>
        <pt x="547" y="654" on="0"/>
        <pt x="556" y="647" on="1"/>
        <pt x="560" y="641" on="0"/>
        <pt x="571" y="626" on="0"/>
        <pt x="578" y="614" on="0"/>
        <pt x="578" y="607" on="1"/>
        <pt x="580" y="597" on="0"/>
        <pt x="562" y="569" on="0"/>
        <pt x="551" y="569" on="1"/>
        <pt x="544" y="569" on="0"/>
        <pt x="539" y="575" on="1"/>
        <pt x="529" y="589" on="0"/>
        <pt x="509" y="603" on="0"/>
        <pt x="487" y="613" on="0"/>
        <pt x="481" y="616" on="1"/>
        <pt x="469" y="622" on="0"/>
        <pt x="449" y="622" on="1"/>
        <pt x="430" y="622" on="0"/>
        <pt x="390" y="609" on="0"/>
        <pt x="377" y="598" on="1"/>
        <pt x="359" y="581" on="0"/>
        <pt x="309" y="516" on="0"/>
        <pt x="297" y="489" on="1"/>
        <pt x="240" y="382" on="0"/>
        <pt x="219" y="288" on="1"/>
        <pt x="212" y="259" on="0"/>
        <pt x="195" y="170" on="0"/>
        <pt x="193" y="148" on="1"/>
        <pt x="189" y="120" on="0"/>
        <pt x="189" y="89" on="1"/>
        <pt x="189" y="49" on="0"/>
        <pt x="213" y="7" on="0"/>
        <pt x="242" y="7" on="1"/>
        <pt x="263" y="7" on="0"/>
        <pt x="294" y="19" on="1"/>
        <pt x="327" y="24" on="0"/>
        <pt x="408" y="95" on="0"/>
        <pt x="435" y="141" on="1"/>
        <pt x="475" y="221" on="0"/>
        <pt x="475" y="254" on="1"/>
        <pt x="475" y="276" on="0"/>
        <pt x="456" y="275" on="1"/>
        <pt x="447" y="276" on="0"/>
        <pt x="431" y="276" on="1"/>
        <pt x="388" y="275" on="1"/>
        <pt x="369" y="275" on="0"/>
        <pt x="355" y="280" on="1"/>
        <pt x="348" y="292" on="0"/>
        <pt x="348" y="300" on="1"/>
        <pt x="348" y="312" on="0"/>
        <pt x="360" y="324" on="1"/>
        <pt x="368" y="328" on="0"/>
        <pt x="404" y="333" on="0"/>
        <pt x="426" y="333" on="1"/>
        <pt x="474" y="333" on="0"/>
        <pt x="506" y="319" on="1"/>
        <pt x="539" y="304" on="0"/>
        <pt x="539" y="254" on="1"/>
        <pt x="539" y="238" on="0"/>
        <pt x="536" y="220" on="1"/>
        <pt x="528" y="180" on="0"/>
        <pt x="480" y="101" on="1"/>
        <pt x="458" y="68" on="0"/>
        <pt x="369" y="-10" on="0"/>
        <pt x="342" y="-22" on="1"/>
        <pt x="283" y="-50" on="0"/>
        <pt x="240" y="-50" on="1"/>
        <pt x="211" y="-50" on="0"/>
        <pt x="191" y="-37" on="1"/>
      </contour>
    </TTGlyph>
    <TTGlyph name="G.ss02" xMin="89" yMin="-40" xMax="621" yMax="659">
      <contour>
        <pt x="429" y="-40" on="0"/>
        <pt x="414" y="-34" on="0"/>
        <pt x="401" y="-18" on="0"/>
        <pt x="400" y="-10" on="1"/>
        <pt x="396" y="-10" on="0"/>
        <pt x="395" y="1" on="0"/>
        <pt x="395" y="16" on="0"/>
        <pt x="395" y="21" on="1"/>
        <pt x="400" y="29" on="0"/>
        <pt x="407" y="35" on="0"/>
        <pt x="412" y="35" on="1"/>
        <pt x="412" y="38" on="0"/>
        <pt x="416" y="58" on="0"/>
        <pt x="421" y="68" on="1"/>
        <pt x="425" y="79" on="0"/>
        <pt x="429" y="94" on="0"/>
        <pt x="430" y="96" on="1"/>
        <pt x="424" y="97" on="0"/>
        <pt x="395" y="82" on="0"/>
        <pt x="383" y="70" on="1"/>
        <pt x="370" y="62" on="0"/>
        <pt x="353" y="47" on="1"/>
        <pt x="336" y="34" on="0"/>
        <pt x="331" y="31" on="1"/>
        <pt x="322" y="29" on="0"/>
        <pt x="306" y="19" on="0"/>
        <pt x="296" y="12" on="1"/>
        <pt x="263" y="-8" on="0"/>
        <pt x="192" y="-33" on="0"/>
        <pt x="168" y="-32" on="1"/>
        <pt x="155" y="-31" on="0"/>
        <pt x="137" y="-21" on="0"/>
        <pt x="118" y="-8" on="1"/>
        <pt x="115" y="-3" on="0"/>
        <pt x="100" y="15" on="0"/>
        <pt x="100" y="23" on="1"/>
        <pt x="89" y="31" on="0"/>
        <pt x="89" y="80" on="1"/>
        <pt x="89" y="125" on="0"/>
        <pt x="99" y="183" on="1"/>
        <pt x="111" y="239" on="0"/>
        <pt x="155" y="328" on="0"/>
        <pt x="224" y="436" on="1"/>
        <pt x="232" y="458" on="0"/>
        <pt x="281" y="516" on="0"/>
        <pt x="295" y="527" on="1"/>
        <pt x="299" y="527" on="0"/>
        <pt x="329" y="556" on="0"/>
        <pt x="334" y="561" on="1"/>
        <pt x="361" y="589" on="0"/>
        <pt x="415" y="622" on="0"/>
        <pt x="456" y="641" on="1"/>
        <pt x="494" y="659" on="1"/>
        <pt x="519" y="659" on="0"/>
        <pt x="583" y="653" on="0"/>
        <pt x="593" y="649" on="1"/>
        <pt x="610" y="635" on="0"/>
        <pt x="617" y="613" on="1"/>
        <pt x="621" y="601" on="0"/>
        <pt x="621" y="594" on="1"/>
        <pt x="621" y="587" on="0"/>
        <pt x="617" y="583" on="1"/>
        <pt x="610" y="578" on="0"/>
        <pt x="605" y="578" on="1"/>
        <pt x="603" y="578" on="0"/>
        <pt x="589" y="582" on="1"/>
        <pt x="569" y="592" on="0"/>
        <pt x="542" y="592" on="1"/>
        <pt x="485" y="592" on="0"/>
        <pt x="419" y="547" on="1"/>
        <pt x="392" y="525" on="0"/>
        <pt x="291" y="421" on="0"/>
        <pt x="264" y="388" on="1"/>
        <pt x="195" y="283" on="0"/>
        <pt x="165" y="186" on="1"/>
        <pt x="154" y="163" on="0"/>
        <pt x="154" y="111" on="1"/>
        <pt x="154" y="90" on="0"/>
        <pt x="157" y="53" on="0"/>
        <pt x="159" y="51" on="1"/>
        <pt x="171" y="33" on="0"/>
        <pt x="193" y="33" on="1"/>
        <pt x="220" y="33" on="0"/>
        <pt x="290" y="71" on="0"/>
        <pt x="324" y="98" on="1"/>
        <pt x="330" y="102" on="0"/>
        <pt x="413" y="163" on="0"/>
        <pt x="426" y="181" on="1"/>
        <pt x="454" y="207" on="0"/>
        <pt x="475" y="233" on="0"/>
        <pt x="485" y="256" on="0"/>
        <pt x="489" y="262" on="1"/>
        <pt x="492" y="277" on="0"/>
        <pt x="494" y="294" on="0"/>
        <pt x="494" y="296" on="1"/>
        <pt x="494" y="297" on="1"/>
        <pt x="494" y="302" on="0"/>
        <pt x="483" y="306" on="0"/>
        <pt x="475" y="308" on="1"/>
        <pt x="457" y="308" on="0"/>
        <pt x="385" y="319" on="0"/>
        <pt x="385" y="324" on="1"/>
        <pt x="385" y="332" on="0"/>
        <pt x="393" y="351" on="1"/>
        <pt x="393" y="362" on="0"/>
        <pt x="451" y="377" on="0"/>
        <pt x="496" y="375" on="1"/>
        <pt x="536" y="375" on="0"/>
        <pt x="565" y="358" on="0"/>
        <pt x="565" y="331" on="1"/>
        <pt x="571" y="318" on="0"/>
        <pt x="571" y="308" on="1"/>
        <pt x="571" y="298" on="0"/>
        <pt x="557" y="258" on="0"/>
        <pt x="538" y="212" on="1"/>
        <pt x="490" y="77" on="0"/>
        <pt x="444" y="-34" on="0"/>
        <pt x="431" y="-37" on="1"/>
      </contour>
    </TTGlyph>
    <TTGlyph name="Gbreve" xMin="124" yMin="-46" xMax="647" yMax="846">
      <component glyphName="G" x="0" y="0" flags="0x1000"/>
      <component glyphName="breve.cap" x="1" y="0" flags="0x1000"/>
    </TTGlyph>
    <TTGlyph name="Gcircumflex" xMin="124" yMin="-46" xMax="641" yMax="842">
      <component glyphName="G" x="0" y="0" flags="0x1000"/>
      <component glyphName="circumflex.cap" x="2" y="0" flags="0x1000"/>
    </TTGlyph>
    <TTGlyph name="Gcommaaccent" xMin="124" yMin="-234" xMax="592" yMax="678">
      <component glyphName="G" x="0" y="0" flags="0x1000"/>
      <component glyphName="uni0326" x="270" y="-51" flags="0x1004"/>
    </TTGlyph>
    <TTGlyph name="Gdotaccent" xMin="124" yMin="-46" xMax="592" yMax="841">
      <component glyphName="G" x="0" y="0" flags="0x1000"/>
      <component glyphName="dotaccent.cap" x="-1" y="0" flags="0x1000"/>
    </TTGlyph>
    <TTGlyph name="H" xMin="82" yMin="-83" xMax="713" yMax="700">
      <contour>
        <pt x="128" y="-82" on="0"/>
        <pt x="116" y="-78" on="0"/>
        <pt x="109" y="-78" on="1"/>
        <pt x="97" y="-75" on="0"/>
        <pt x="82" y="-55" on="0"/>
        <pt x="82" y="-42" on="1"/>
        <pt x="82" y="-35" on="0"/>
        <pt x="83" y="-31" on="1"/>
        <pt x="86" y="-28" on="0"/>
        <pt x="91" y="-3" on="0"/>
        <pt x="91" y="7" on="1"/>
        <pt x="94" y="13" on="0"/>
        <pt x="98" y="26" on="0"/>
        <pt x="101" y="38" on="1"/>
        <pt x="109" y="82" on="0"/>
        <pt x="167" y="290" on="0"/>
        <pt x="174" y="297" on="1"/>
        <pt x="174" y="308" on="1"/>
        <pt x="174" y="311" on="0"/>
        <pt x="178" y="329" on="0"/>
        <pt x="185" y="339" on="1"/>
        <pt x="189" y="351" on="0"/>
        <pt x="194" y="374" on="0"/>
        <pt x="195" y="380" on="1"/>
        <pt x="199" y="385" on="0"/>
        <pt x="218" y="435" on="0"/>
        <pt x="221" y="443" on="1"/>
        <pt x="228" y="462" on="0"/>
        <pt x="249" y="513" on="0"/>
        <pt x="253" y="521" on="1"/>
        <pt x="253" y="526" on="1"/>
        <pt x="255" y="528" on="0"/>
        <pt x="272" y="565" on="0"/>
        <pt x="278" y="578" on="1"/>
        <pt x="285" y="594" on="0"/>
        <pt x="315" y="661" on="1"/>
        <pt x="318" y="668" on="0"/>
        <pt x="331" y="689" on="0"/>
        <pt x="331" y="693" on="1"/>
        <pt x="335" y="700" on="0"/>
        <pt x="345" y="700" on="1"/>
        <pt x="354" y="700" on="0"/>
        <pt x="373" y="687" on="0"/>
        <pt x="378" y="677" on="1"/>
        <pt x="388" y="661" on="1"/>
        <pt x="352" y="589" on="1"/>
        <pt x="337" y="563" on="0"/>
        <pt x="315" y="515" on="0"/>
        <pt x="315" y="511" on="1"/>
        <pt x="311" y="501" on="0"/>
        <pt x="288" y="439" on="0"/>
        <pt x="281" y="417" on="1"/>
        <pt x="276" y="402" on="0"/>
        <pt x="262" y="369" on="0"/>
        <pt x="259" y="362" on="1"/>
        <pt x="251" y="344" on="0"/>
        <pt x="251" y="342" on="1"/>
        <pt x="251" y="346" on="0"/>
        <pt x="371" y="346" on="1"/>
        <pt x="390" y="346" on="0"/>
        <pt x="487" y="348" on="0"/>
        <pt x="499" y="350" on="1"/>
        <pt x="551" y="355" on="1"/>
        <pt x="585" y="458" on="1"/>
        <pt x="595" y="493" on="0"/>
        <pt x="629" y="594" on="1"/>
        <pt x="644" y="637" on="0"/>
        <pt x="662" y="662" on="0"/>
        <pt x="675" y="662" on="1"/>
        <pt x="680" y="662" on="0"/>
        <pt x="699" y="653" on="0"/>
        <pt x="702" y="646" on="1"/>
        <pt x="713" y="635" on="0"/>
        <pt x="713" y="623" on="1"/>
        <pt x="713" y="609" on="0"/>
        <pt x="697" y="584" on="1"/>
        <pt x="685" y="563" on="0"/>
        <pt x="663" y="505" on="1"/>
        <pt x="654" y="478" on="0"/>
        <pt x="652" y="474" on="1"/>
        <pt x="652" y="453" on="0"/>
        <pt x="642" y="443" on="1"/>
        <pt x="638" y="439" on="0"/>
        <pt x="618" y="390" on="0"/>
        <pt x="618" y="386" on="1"/>
        <pt x="618" y="378" on="0"/>
        <pt x="612" y="359" on="0"/>
        <pt x="608" y="355" on="1"/>
        <pt x="601" y="331" on="1"/>
        <pt x="566" y="204" on="0"/>
        <pt x="546" y="155" on="1"/>
        <pt x="546" y="150" on="0"/>
        <pt x="536" y="124" on="0"/>
        <pt x="536" y="119" on="1"/>
        <pt x="534" y="112" on="0"/>
        <pt x="520" y="70" on="0"/>
        <pt x="520" y="66" on="1"/>
        <pt x="518" y="55" on="0"/>
        <pt x="512" y="31" on="1"/>
        <pt x="497" y="-37" on="0"/>
        <pt x="497" y="-43" on="1"/>
        <pt x="495" y="-45" on="0"/>
        <pt x="491" y="-45" on="1"/>
        <pt x="487" y="-45" on="0"/>
        <pt x="470" y="-39" on="0"/>
        <pt x="466" y="-37" on="1"/>
        <pt x="442" y="-24" on="0"/>
        <pt x="442" y="-7" on="1"/>
        <pt x="442" y="4" on="0"/>
        <pt x="451" y="22" on="1"/>
        <pt x="454" y="27" on="0"/>
        <pt x="470" y="87" on="1"/>
        <pt x="479" y="124" on="1"/>
        <pt x="485" y="140" on="0"/>
        <pt x="506" y="219" on="1"/>
        <pt x="523" y="280" on="0"/>
        <pt x="525" y="282" on="1"/>
        <pt x="525" y="292" on="1"/>
        <pt x="522" y="297" on="0"/>
        <pt x="452" y="297" on="1"/>
        <pt x="373" y="297" on="0"/>
        <pt x="307" y="289" on="1"/>
        <pt x="260" y="289" on="1"/>
        <pt x="234" y="289" on="1"/>
        <pt x="229" y="278" on="0"/>
        <pt x="178" y="115" on="0"/>
        <pt x="175" y="94" on="1"/>
        <pt x="168" y="61" on="0"/>
        <pt x="138" y="-56" on="0"/>
        <pt x="130" y="-83" on="1"/>
      </contour>
    </TTGlyph>
    <TTGlyph name="H.ss01" xMin="88" yMin="-92" xMax="696" yMax="698">
      <contour>
        <pt x="136" y="-91" on="0"/>
        <pt x="124" y="-87" on="0"/>
        <pt x="117" y="-88" on="1"/>
        <pt x="104" y="-86" on="0"/>
        <pt x="88" y="-64" on="0"/>
        <pt x="88" y="-51" on="1"/>
        <pt x="88" y="-45" on="0"/>
        <pt x="89" y="-42" on="1"/>
        <pt x="92" y="-39" on="0"/>
        <pt x="96" y="-14" on="0"/>
        <pt x="96" y="-4" on="1"/>
        <pt x="100" y="7" on="0"/>
        <pt x="105" y="28" on="1"/>
        <pt x="111" y="73" on="0"/>
        <pt x="162" y="282" on="0"/>
        <pt x="169" y="289" on="1"/>
        <pt x="168" y="300" on="1"/>
        <pt x="168" y="303" on="0"/>
        <pt x="172" y="321" on="0"/>
        <pt x="178" y="332" on="1"/>
        <pt x="182" y="344" on="0"/>
        <pt x="187" y="367" on="0"/>
        <pt x="187" y="373" on="1"/>
        <pt x="189" y="376" on="0"/>
        <pt x="201" y="409" on="1"/>
        <pt x="211" y="437" on="1"/>
        <pt x="217" y="456" on="0"/>
        <pt x="237" y="508" on="0"/>
        <pt x="240" y="516" on="1"/>
        <pt x="240" y="521" on="1"/>
        <pt x="244" y="526" on="0"/>
        <pt x="262" y="574" on="1"/>
        <pt x="271" y="594" on="0"/>
        <pt x="288" y="637" on="0"/>
        <pt x="297" y="658" on="1"/>
        <pt x="300" y="664" on="0"/>
        <pt x="312" y="686" on="0"/>
        <pt x="312" y="690" on="1"/>
        <pt x="316" y="698" on="0"/>
        <pt x="327" y="698" on="1"/>
        <pt x="336" y="698" on="0"/>
        <pt x="354" y="686" on="0"/>
        <pt x="359" y="676" on="1"/>
        <pt x="370" y="660" on="1"/>
        <pt x="336" y="587" on="1"/>
        <pt x="323" y="561" on="0"/>
        <pt x="302" y="512" on="0"/>
        <pt x="302" y="508" on="1"/>
        <pt x="299" y="498" on="0"/>
        <pt x="277" y="436" on="0"/>
        <pt x="271" y="413" on="1"/>
        <pt x="263" y="388" on="0"/>
        <pt x="244" y="339" on="0"/>
        <pt x="244" y="337" on="1"/>
        <pt x="244" y="341" on="0"/>
        <pt x="358" y="345" on="1"/>
        <pt x="377" y="346" on="0"/>
        <pt x="480" y="351" on="0"/>
        <pt x="492" y="354" on="1"/>
        <pt x="543" y="360" on="1"/>
        <pt x="574" y="464" on="1"/>
        <pt x="586" y="513" on="0"/>
        <pt x="613" y="602" on="1"/>
        <pt x="626" y="646" on="0"/>
        <pt x="644" y="671" on="0"/>
        <pt x="657" y="671" on="1"/>
        <pt x="658" y="671" on="1"/>
        <pt x="664" y="671" on="0"/>
        <pt x="681" y="663" on="0"/>
        <pt x="684" y="656" on="1"/>
        <pt x="696" y="646" on="0"/>
        <pt x="696" y="633" on="1"/>
        <pt x="696" y="620" on="0"/>
        <pt x="681" y="594" on="1"/>
        <pt x="668" y="570" on="0"/>
        <pt x="650" y="514" on="1"/>
        <pt x="647" y="501" on="0"/>
        <pt x="640" y="483" on="1"/>
        <pt x="640" y="479" on="1"/>
        <pt x="640" y="460" on="0"/>
        <pt x="631" y="451" on="1"/>
        <pt x="628" y="448" on="0"/>
        <pt x="609" y="398" on="0"/>
        <pt x="609" y="394" on="1"/>
        <pt x="610" y="387" on="0"/>
        <pt x="604" y="366" on="0"/>
        <pt x="600" y="362" on="1"/>
        <pt x="599" y="358" on="0"/>
        <pt x="563" y="206" on="0"/>
        <pt x="545" y="160" on="1"/>
        <pt x="546" y="155" on="0"/>
        <pt x="537" y="129" on="0"/>
        <pt x="537" y="124" on="1"/>
        <pt x="522" y="76" on="0"/>
        <pt x="523" y="70" on="1"/>
        <pt x="503" y="-32" on="0"/>
        <pt x="503" y="-39" on="1"/>
        <pt x="502" y="-41" on="0"/>
        <pt x="497" y="-41" on="1"/>
        <pt x="490" y="-41" on="0"/>
        <pt x="472" y="-34" on="1"/>
        <pt x="459" y="-27" on="0"/>
        <pt x="447" y="-13" on="0"/>
        <pt x="447" y="-3" on="1"/>
        <pt x="447" y="6" on="0"/>
        <pt x="455" y="24" on="1"/>
        <pt x="459" y="31" on="0"/>
        <pt x="470" y="84" on="1"/>
        <pt x="480" y="127" on="1"/>
        <pt x="486" y="148" on="0"/>
        <pt x="503" y="219" on="1"/>
        <pt x="506" y="232" on="0"/>
        <pt x="518" y="284" on="0"/>
        <pt x="520" y="286" on="1"/>
        <pt x="520" y="296" on="1"/>
        <pt x="517" y="299" on="0"/>
        <pt x="479" y="299" on="1"/>
        <pt x="439" y="299" on="0"/>
        <pt x="338" y="292" on="0"/>
        <pt x="302" y="286" on="1"/>
        <pt x="278" y="285" on="1"/>
        <pt x="261" y="285" on="0"/>
        <pt x="255" y="284" on="1"/>
        <pt x="245" y="284" on="0"/>
        <pt x="231" y="283" on="0"/>
        <pt x="229" y="283" on="1"/>
        <pt x="224" y="273" on="0"/>
        <pt x="180" y="108" on="0"/>
        <pt x="177" y="86" on="1"/>
        <pt x="168" y="40" on="0"/>
        <pt x="145" y="-65" on="0"/>
        <pt x="138" y="-92" on="1"/>
      </contour>
    </TTGlyph>
    <TTGlyph name="H.ss02" xMin="89" yMin="-78" xMax="707" yMax="697">
      <contour>
        <pt x="456" y="-72" on="0"/>
        <pt x="442" y="-54" on="0"/>
        <pt x="436" y="-38" on="1"/>
        <pt x="473" y="121" on="0"/>
        <pt x="500" y="197" on="1"/>
        <pt x="506" y="236" on="0"/>
        <pt x="506" y="242" on="1"/>
        <pt x="506" y="248" on="0"/>
        <pt x="501" y="251" on="1"/>
        <pt x="486" y="260" on="0"/>
        <pt x="324" y="286" on="1"/>
        <pt x="315" y="285" on="0"/>
        <pt x="297" y="289" on="1"/>
        <pt x="284" y="292" on="0"/>
        <pt x="271" y="292" on="1"/>
        <pt x="255" y="292" on="0"/>
        <pt x="247" y="294" on="0"/>
        <pt x="244" y="299" on="1"/>
        <pt x="243" y="306" on="0"/>
        <pt x="237" y="298" on="0"/>
        <pt x="220" y="245" on="0"/>
        <pt x="206" y="200" on="1"/>
        <pt x="178" y="116" on="0"/>
        <pt x="169" y="50" on="1"/>
        <pt x="165" y="29" on="1"/>
        <pt x="153" y="-14" on="1"/>
        <pt x="147" y="-42" on="0"/>
        <pt x="137" y="-69" on="0"/>
        <pt x="132" y="-70" on="1"/>
        <pt x="131" y="-72" on="0"/>
        <pt x="129" y="-72" on="1"/>
        <pt x="126" y="-72" on="0"/>
        <pt x="112" y="-65" on="0"/>
        <pt x="108" y="-63" on="1"/>
        <pt x="98" y="-56" on="0"/>
        <pt x="89" y="-41" on="0"/>
        <pt x="89" y="-30" on="1"/>
        <pt x="89" y="-15" on="0"/>
        <pt x="102" y="40" on="1"/>
        <pt x="113" y="83" on="0"/>
        <pt x="116" y="98" on="1"/>
        <pt x="126" y="154" on="0"/>
        <pt x="139" y="209" on="0"/>
        <pt x="146" y="214" on="1"/>
        <pt x="148" y="222" on="0"/>
        <pt x="167" y="298" on="0"/>
        <pt x="181" y="329" on="1"/>
        <pt x="193" y="373" on="0"/>
        <pt x="247" y="507" on="0"/>
        <pt x="287" y="598" on="1"/>
        <pt x="304" y="637" on="1"/>
        <pt x="312" y="644" on="0"/>
        <pt x="328" y="669" on="0"/>
        <pt x="330" y="677" on="1"/>
        <pt x="337" y="691" on="0"/>
        <pt x="346" y="697" on="0"/>
        <pt x="354" y="696" on="1"/>
        <pt x="370" y="693" on="0"/>
        <pt x="396" y="666" on="0"/>
        <pt x="396" y="652" on="1"/>
        <pt x="396" y="649" on="0"/>
        <pt x="394" y="643" on="1"/>
        <pt x="370" y="619" on="0"/>
        <pt x="339" y="541" on="1"/>
        <pt x="327" y="522" on="1"/>
        <pt x="310" y="496" on="0"/>
        <pt x="306" y="485" on="1"/>
        <pt x="301" y="477" on="0"/>
        <pt x="294" y="450" on="0"/>
        <pt x="291" y="447" on="1"/>
        <pt x="280" y="426" on="0"/>
        <pt x="250" y="358" on="0"/>
        <pt x="252" y="354" on="1"/>
        <pt x="254" y="349" on="0"/>
        <pt x="325" y="343" on="1"/>
        <pt x="325" y="343" on="0"/>
        <pt x="361" y="339" on="1"/>
        <pt x="368" y="340" on="0"/>
        <pt x="413" y="333" on="1"/>
        <pt x="463" y="326" on="1"/>
        <pt x="508" y="312" on="0"/>
        <pt x="527" y="312" on="1"/>
        <pt x="533" y="312" on="0"/>
        <pt x="535" y="314" on="1"/>
        <pt x="553" y="357" on="1"/>
        <pt x="565" y="406" on="0"/>
        <pt x="586" y="473" on="1"/>
        <pt x="613" y="519" on="0"/>
        <pt x="630" y="610" on="1"/>
        <pt x="639" y="649" on="0"/>
        <pt x="661" y="684" on="1"/>
        <pt x="663" y="683" on="0"/>
        <pt x="674" y="679" on="0"/>
        <pt x="681" y="677" on="1"/>
        <pt x="694" y="675" on="0"/>
        <pt x="707" y="659" on="0"/>
        <pt x="707" y="644" on="1"/>
        <pt x="707" y="614" on="0"/>
        <pt x="679" y="534" on="1"/>
        <pt x="663" y="492" on="1"/>
        <pt x="637" y="433" on="0"/>
        <pt x="633" y="411" on="1"/>
        <pt x="622" y="376" on="0"/>
        <pt x="590" y="304" on="1"/>
        <pt x="589" y="301" on="0"/>
        <pt x="595" y="278" on="0"/>
        <pt x="600" y="267" on="1"/>
        <pt x="609" y="254" on="0"/>
        <pt x="609" y="245" on="1"/>
        <pt x="609" y="231" on="0"/>
        <pt x="589" y="231" on="1"/>
        <pt x="573" y="231" on="0"/>
        <pt x="561" y="220" on="0"/>
        <pt x="558" y="197" on="1"/>
        <pt x="537" y="150" on="0"/>
        <pt x="495" y="-24" on="0"/>
        <pt x="496" y="-52" on="1"/>
        <pt x="495" y="-55" on="0"/>
        <pt x="489" y="-73" on="0"/>
        <pt x="484" y="-78" on="0"/>
        <pt x="480" y="-78" on="1"/>
        <pt x="469" y="-76" on="1"/>
      </contour>
    </TTGlyph>
    <TTGlyph name="Hbar" xMin="82" yMin="-83" xMax="743" yMax="700">
      <contour>
        <pt x="743" y="508" on="0"/>
        <pt x="743" y="497" on="1"/>
        <pt x="743" y="478" on="0"/>
        <pt x="717" y="481" on="1"/>
        <pt x="687" y="478" on="0"/>
        <pt x="657" y="478" on="1"/>
        <pt x="654" y="478" on="1"/>
        <pt x="652" y="474" on="1"/>
        <pt x="652" y="453" on="0"/>
        <pt x="642" y="443" on="1"/>
        <pt x="638" y="439" on="0"/>
        <pt x="618" y="390" on="0"/>
        <pt x="618" y="386" on="1"/>
        <pt x="618" y="378" on="0"/>
        <pt x="612" y="359" on="0"/>
        <pt x="608" y="355" on="1"/>
        <pt x="601" y="331" on="1"/>
        <pt x="566" y="204" on="0"/>
        <pt x="546" y="155" on="1"/>
        <pt x="546" y="150" on="0"/>
        <pt x="536" y="124" on="0"/>
        <pt x="536" y="119" on="1"/>
        <pt x="534" y="112" on="0"/>
        <pt x="520" y="70" on="0"/>
        <pt x="520" y="66" on="1"/>
        <pt x="518" y="55" on="0"/>
        <pt x="512" y="31" on="1"/>
        <pt x="497" y="-37" on="0"/>
        <pt x="497" y="-43" on="1"/>
        <pt x="495" y="-45" on="0"/>
        <pt x="491" y="-45" on="1"/>
        <pt x="487" y="-45" on="0"/>
        <pt x="470" y="-39" on="0"/>
        <pt x="466" y="-37" on="1"/>
        <pt x="442" y="-24" on="0"/>
        <pt x="442" y="-7" on="1"/>
        <pt x="442" y="4" on="0"/>
        <pt x="451" y="22" on="1"/>
        <pt x="454" y="27" on="0"/>
        <pt x="470" y="87" on="1"/>
        <pt x="479" y="124" on="1"/>
        <pt x="485" y="140" on="0"/>
        <pt x="506" y="219" on="1"/>
        <pt x="523" y="280" on="0"/>
        <pt x="525" y="282" on="1"/>
        <pt x="525" y="292" on="1"/>
        <pt x="522" y="297" on="0"/>
        <pt x="452" y="297" on="1"/>
        <pt x="373" y="297" on="0"/>
        <pt x="307" y="289" on="1"/>
        <pt x="260" y="289" on="1"/>
        <pt x="234" y="289" on="1"/>
        <pt x="229" y="278" on="0"/>
        <pt x="178" y="115" on="0"/>
        <pt x="175" y="94" on="1"/>
        <pt x="168" y="61" on="0"/>
        <pt x="138" y="-56" on="0"/>
        <pt x="130" y="-83" on="1"/>
        <pt x="128" y="-82" on="0"/>
        <pt x="116" y="-78" on="0"/>
        <pt x="109" y="-78" on="1"/>
        <pt x="97" y="-75" on="0"/>
        <pt x="82" y="-55" on="0"/>
        <pt x="82" y="-42" on="1"/>
        <pt x="82" y="-35" on="0"/>
        <pt x="83" y="-31" on="1"/>
        <pt x="86" y="-28" on="0"/>
        <pt x="91" y="-3" on="0"/>
        <pt x="91" y="7" on="1"/>
        <pt x="94" y="13" on="0"/>
        <pt x="98" y="26" on="0"/>
        <pt x="101" y="38" on="1"/>
        <pt x="109" y="82" on="0"/>
        <pt x="167" y="290" on="0"/>
        <pt x="174" y="297" on="1"/>
        <pt x="174" y="308" on="1"/>
        <pt x="174" y="311" on="0"/>
        <pt x="178" y="329" on="0"/>
        <pt x="185" y="339" on="1"/>
        <pt x="189" y="351" on="0"/>
        <pt x="194" y="374" on="0"/>
        <pt x="195" y="380" on="1"/>
        <pt x="199" y="385" on="0"/>
        <pt x="218" y="435" on="0"/>
        <pt x="221" y="443" on="1"/>
        <pt x="238" y="487" on="1"/>
        <pt x="209" y="487" on="1"/>
        <pt x="189" y="487" on="0"/>
        <pt x="177" y="491" on="1"/>
        <pt x="163" y="491" on="0"/>
        <pt x="152" y="496" on="0"/>
        <pt x="148" y="503" on="1"/>
        <pt x="143" y="513" on="0"/>
        <pt x="143" y="516" on="1"/>
        <pt x="143" y="523" on="0"/>
        <pt x="163" y="530" on="0"/>
        <pt x="189" y="533" on="1"/>
        <pt x="203" y="534" on="0"/>
        <pt x="258" y="536" on="1"/>
        <pt x="265" y="548" on="0"/>
        <pt x="285" y="594" on="1"/>
        <pt x="300" y="631" on="0"/>
        <pt x="315" y="661" on="1"/>
        <pt x="318" y="668" on="0"/>
        <pt x="331" y="689" on="0"/>
        <pt x="331" y="693" on="1"/>
        <pt x="335" y="700" on="0"/>
        <pt x="345" y="700" on="1"/>
        <pt x="354" y="700" on="0"/>
        <pt x="373" y="687" on="0"/>
        <pt x="378" y="677" on="1"/>
        <pt x="388" y="661" on="1"/>
        <pt x="352" y="589" on="1"/>
        <pt x="333" y="554" on="0"/>
        <pt x="325" y="536" on="1"/>
        <pt x="608" y="532" on="1"/>
        <pt x="629" y="594" on="1"/>
        <pt x="644" y="637" on="0"/>
        <pt x="662" y="662" on="0"/>
        <pt x="675" y="662" on="1"/>
        <pt x="680" y="662" on="0"/>
        <pt x="699" y="653" on="0"/>
        <pt x="702" y="646" on="1"/>
        <pt x="713" y="635" on="0"/>
        <pt x="713" y="623" on="1"/>
        <pt x="713" y="609" on="0"/>
        <pt x="697" y="584" on="1"/>
        <pt x="686" y="564" on="0"/>
        <pt x="673" y="531" on="1"/>
        <pt x="681" y="531" on="1"/>
        <pt x="705" y="531" on="0"/>
        <pt x="722" y="527" on="0"/>
        <pt x="733" y="519" on="1"/>
      </contour>
      <contour>
        <pt x="591" y="479" on="1"/>
        <pt x="412" y="484" on="0"/>
        <pt x="305" y="485" on="1"/>
        <pt x="289" y="445" on="0"/>
        <pt x="281" y="417" on="1"/>
        <pt x="276" y="402" on="0"/>
        <pt x="262" y="369" on="0"/>
        <pt x="259" y="362" on="1"/>
        <pt x="251" y="344" on="0"/>
        <pt x="251" y="342" on="1"/>
        <pt x="251" y="346" on="0"/>
        <pt x="371" y="346" on="1"/>
        <pt x="390" y="346" on="0"/>
        <pt x="487" y="348" on="0"/>
        <pt x="499" y="350" on="1"/>
        <pt x="551" y="355" on="1"/>
        <pt x="585" y="458" on="1"/>
      </contour>
    </TTGlyph>
    <TTGlyph name="Hcircumflex" xMin="82" yMin="-83" xMax="713" yMax="842">
      <component glyphName="H" x="0" y="0" flags="0x1000"/>
      <component glyphName="circumflex.cap" x="36" y="0" flags="0x1000"/>
    </TTGlyph>
    <TTGlyph name="I" xMin="45" yMin="-35" xMax="603" yMax="642">
      <contour>
        <pt x="179" y="-13" on="0"/>
        <pt x="101" y="-16" on="1"/>
        <pt x="92" y="-17" on="1"/>
        <pt x="73" y="-17" on="0"/>
        <pt x="45" y="1" on="0"/>
        <pt x="48" y="12" on="1"/>
        <pt x="50" y="38" on="0"/>
        <pt x="131" y="39" on="1"/>
        <pt x="184" y="40" on="1"/>
        <pt x="194" y="60" on="1"/>
        <pt x="202" y="83" on="0"/>
        <pt x="217" y="134" on="1"/>
        <pt x="222" y="153" on="0"/>
        <pt x="238" y="198" on="1"/>
        <pt x="269" y="294" on="0"/>
        <pt x="271" y="302" on="1"/>
        <pt x="276" y="314" on="0"/>
        <pt x="298" y="386" on="0"/>
        <pt x="304" y="409" on="1"/>
        <pt x="351" y="554" on="0"/>
        <pt x="342" y="556" on="1"/>
        <pt x="332" y="557" on="0"/>
        <pt x="243" y="548" on="0"/>
        <pt x="238" y="545" on="1"/>
        <pt x="235" y="541" on="0"/>
        <pt x="228" y="541" on="1"/>
        <pt x="222" y="541" on="0"/>
        <pt x="208" y="550" on="0"/>
        <pt x="206" y="556" on="1"/>
        <pt x="205" y="560" on="0"/>
        <pt x="205" y="567" on="1"/>
        <pt x="205" y="574" on="0"/>
        <pt x="211" y="578" on="1"/>
        <pt x="222" y="587" on="0"/>
        <pt x="297" y="610" on="0"/>
        <pt x="332" y="614" on="1"/>
        <pt x="349" y="616" on="0"/>
        <pt x="384" y="627" on="0"/>
        <pt x="393" y="635" on="1"/>
        <pt x="414" y="642" on="0"/>
        <pt x="428" y="641" on="1"/>
        <pt x="435" y="636" on="0"/>
        <pt x="462" y="636" on="1"/>
        <pt x="485" y="636" on="0"/>
        <pt x="497" y="637" on="1"/>
        <pt x="533" y="641" on="0"/>
        <pt x="558" y="641" on="1"/>
        <pt x="577" y="641" on="0"/>
        <pt x="594" y="633" on="0"/>
        <pt x="599" y="624" on="1"/>
        <pt x="603" y="608" on="0"/>
        <pt x="603" y="603" on="1"/>
        <pt x="603" y="584" on="0"/>
        <pt x="581" y="585" on="1"/>
        <pt x="564" y="581" on="0"/>
        <pt x="499" y="579" on="1"/>
        <pt x="428" y="573" on="0"/>
        <pt x="423" y="565" on="1"/>
        <pt x="418" y="560" on="0"/>
        <pt x="413" y="552" on="0"/>
        <pt x="410" y="548" on="1"/>
        <pt x="411" y="544" on="0"/>
        <pt x="400" y="501" on="0"/>
        <pt x="392" y="479" on="1"/>
        <pt x="374" y="426" on="1"/>
        <pt x="346" y="339" on="0"/>
        <pt x="338" y="319" on="1"/>
        <pt x="331" y="302" on="0"/>
        <pt x="328" y="284" on="1"/>
        <pt x="311" y="225" on="0"/>
        <pt x="289" y="156" on="0"/>
        <pt x="283" y="135" on="1"/>
        <pt x="264" y="79" on="0"/>
        <pt x="254" y="41" on="1"/>
        <pt x="311" y="46" on="1"/>
        <pt x="370" y="52" on="0"/>
        <pt x="388" y="52" on="1"/>
        <pt x="402" y="52" on="0"/>
        <pt x="413" y="46" on="0"/>
        <pt x="416" y="37" on="1"/>
        <pt x="428" y="22" on="0"/>
        <pt x="428" y="12" on="1"/>
        <pt x="428" y="0" on="0"/>
        <pt x="390" y="-10" on="0"/>
        <pt x="350" y="-9" on="1"/>
        <pt x="304" y="-11" on="0"/>
        <pt x="243" y="-14" on="0"/>
        <pt x="222" y="-20" on="0"/>
        <pt x="220" y="-27" on="1"/>
        <pt x="220" y="-35" on="0"/>
        <pt x="211" y="-35" on="1"/>
        <pt x="201" y="-35" on="0"/>
        <pt x="192" y="-31" on="1"/>
      </contour>
    </TTGlyph>
    <TTGlyph name="I.ss01" xMin="37" yMin="-59" xMax="588" yMax="659">
      <contour>
        <pt x="173" y="-42" on="0"/>
        <pt x="131" y="-42" on="1"/>
        <pt x="121" y="-42" on="0"/>
        <pt x="93" y="-44" on="1"/>
        <pt x="89" y="-45" on="0"/>
        <pt x="81" y="-45" on="1"/>
        <pt x="63" y="-45" on="0"/>
        <pt x="37" y="-28" on="0"/>
        <pt x="39" y="-17" on="1"/>
        <pt x="41" y="8" on="0"/>
        <pt x="121" y="12" on="1"/>
        <pt x="174" y="15" on="1"/>
        <pt x="184" y="36" on="1"/>
        <pt x="204" y="110" on="1"/>
        <pt x="208" y="126" on="0"/>
        <pt x="222" y="169" on="0"/>
        <pt x="229" y="192" on="1"/>
        <pt x="260" y="287" on="0"/>
        <pt x="262" y="300" on="1"/>
        <pt x="267" y="313" on="0"/>
        <pt x="293" y="402" on="0"/>
        <pt x="296" y="418" on="1"/>
        <pt x="318" y="492" on="0"/>
        <pt x="333" y="566" on="0"/>
        <pt x="329" y="566" on="1"/>
        <pt x="320" y="567" on="0"/>
        <pt x="230" y="555" on="0"/>
        <pt x="226" y="552" on="1"/>
        <pt x="223" y="547" on="0"/>
        <pt x="216" y="547" on="1"/>
        <pt x="209" y="547" on="0"/>
        <pt x="195" y="556" on="0"/>
        <pt x="193" y="562" on="1"/>
        <pt x="192" y="566" on="0"/>
        <pt x="192" y="573" on="1"/>
        <pt x="192" y="580" on="0"/>
        <pt x="197" y="584" on="1"/>
        <pt x="208" y="593" on="0"/>
        <pt x="282" y="618" on="0"/>
        <pt x="317" y="624" on="1"/>
        <pt x="334" y="626" on="0"/>
        <pt x="368" y="639" on="0"/>
        <pt x="377" y="647" on="1"/>
        <pt x="397" y="655" on="0"/>
        <pt x="412" y="654" on="1"/>
        <pt x="419" y="650" on="0"/>
        <pt x="437" y="650" on="1"/>
        <pt x="457" y="650" on="0"/>
        <pt x="481" y="653" on="1"/>
        <pt x="527" y="659" on="0"/>
        <pt x="548" y="659" on="1"/>
        <pt x="563" y="659" on="0"/>
        <pt x="579" y="652" on="0"/>
        <pt x="584" y="643" on="1"/>
        <pt x="588" y="627" on="0"/>
        <pt x="588" y="622" on="1"/>
        <pt x="588" y="603" on="0"/>
        <pt x="567" y="604" on="1"/>
        <pt x="551" y="599" on="0"/>
        <pt x="485" y="595" on="1"/>
        <pt x="415" y="586" on="0"/>
        <pt x="410" y="578" on="1"/>
        <pt x="405" y="573" on="0"/>
        <pt x="400" y="565" on="0"/>
        <pt x="397" y="561" on="1"/>
        <pt x="398" y="557" on="0"/>
        <pt x="389" y="514" on="0"/>
        <pt x="382" y="491" on="1"/>
        <pt x="368" y="445" on="1"/>
        <pt x="361" y="424" on="0"/>
        <pt x="332" y="329" on="0"/>
        <pt x="328" y="319" on="1"/>
        <pt x="320" y="295" on="0"/>
        <pt x="320" y="284" on="1"/>
        <pt x="302" y="212" on="0"/>
        <pt x="272" y="117" on="1"/>
        <pt x="253" y="58" on="0"/>
        <pt x="244" y="19" on="1"/>
        <pt x="248" y="19" on="0"/>
        <pt x="277" y="23" on="0"/>
        <pt x="301" y="26" on="1"/>
        <pt x="368" y="34" on="0"/>
        <pt x="381" y="34" on="1"/>
        <pt x="394" y="34" on="0"/>
        <pt x="403" y="28" on="0"/>
        <pt x="406" y="20" on="1"/>
        <pt x="419" y="4" on="0"/>
        <pt x="419" y="-5" on="1"/>
        <pt x="419" y="-17" on="0"/>
        <pt x="382" y="-27" on="0"/>
        <pt x="342" y="-28" on="1"/>
        <pt x="296" y="-31" on="0"/>
        <pt x="234" y="-37" on="0"/>
        <pt x="214" y="-44" on="0"/>
        <pt x="213" y="-50" on="1"/>
        <pt x="213" y="-59" on="0"/>
        <pt x="203" y="-59" on="1"/>
        <pt x="194" y="-59" on="0"/>
        <pt x="185" y="-55" on="1"/>
      </contour>
    </TTGlyph>
    <TTGlyph name="I.ss02" xMin="14" yMin="-16" xMax="581" yMax="642">
      <contour>
        <pt x="221" y="-16" on="0"/>
        <pt x="215" y="-16" on="1"/>
        <pt x="208" y="-16" on="0"/>
        <pt x="176" y="-14" on="0"/>
        <pt x="142" y="-13" on="1"/>
        <pt x="61" y="-4" on="0"/>
        <pt x="58" y="-3" on="1"/>
        <pt x="57" y="-3" on="0"/>
        <pt x="52" y="1" on="0"/>
        <pt x="45" y="6" on="1"/>
        <pt x="31" y="10" on="0"/>
        <pt x="14" y="39" on="0"/>
        <pt x="18" y="50" on="1"/>
        <pt x="19" y="53" on="0"/>
        <pt x="37" y="59" on="0"/>
        <pt x="47" y="59" on="1"/>
        <pt x="52" y="59" on="0"/>
        <pt x="55" y="58" on="1"/>
        <pt x="68" y="61" on="0"/>
        <pt x="101" y="63" on="1"/>
        <pt x="129" y="65" on="0"/>
        <pt x="138" y="67" on="1"/>
        <pt x="146" y="70" on="0"/>
        <pt x="162" y="74" on="0"/>
        <pt x="168" y="76" on="1"/>
        <pt x="173" y="75" on="0"/>
        <pt x="181" y="88" on="0"/>
        <pt x="187" y="105" on="1"/>
        <pt x="194" y="125" on="1"/>
        <pt x="207" y="158" on="0"/>
        <pt x="242" y="259" on="0"/>
        <pt x="250" y="282" on="1"/>
        <pt x="249" y="290" on="0"/>
        <pt x="256" y="316" on="0"/>
        <pt x="256" y="319" on="1"/>
        <pt x="258" y="321" on="0"/>
        <pt x="263" y="338" on="1"/>
        <pt x="271" y="363" on="0"/>
        <pt x="281" y="386" on="1"/>
        <pt x="317" y="474" on="0"/>
        <pt x="317" y="485" on="1"/>
        <pt x="326" y="503" on="1"/>
        <pt x="343" y="539" on="0"/>
        <pt x="343" y="542" on="1"/>
        <pt x="300" y="543" on="1"/>
        <pt x="268" y="541" on="0"/>
        <pt x="200" y="557" on="0"/>
        <pt x="194" y="567" on="1"/>
        <pt x="190" y="572" on="0"/>
        <pt x="190" y="576" on="1"/>
        <pt x="190" y="579" on="0"/>
        <pt x="201" y="586" on="0"/>
        <pt x="204" y="590" on="1"/>
        <pt x="206" y="598" on="0"/>
        <pt x="232" y="602" on="0"/>
        <pt x="270" y="604" on="1"/>
        <pt x="308" y="604" on="1"/>
        <pt x="360" y="604" on="0"/>
        <pt x="361" y="609" on="1"/>
        <pt x="373" y="609" on="0"/>
        <pt x="383" y="611" on="1"/>
        <pt x="390" y="611" on="0"/>
        <pt x="438" y="623" on="0"/>
        <pt x="458" y="629" on="1"/>
        <pt x="484" y="635" on="0"/>
        <pt x="532" y="641" on="0"/>
        <pt x="542" y="641" on="1"/>
        <pt x="552" y="642" on="1"/>
        <pt x="581" y="642" on="0"/>
        <pt x="581" y="606" on="1"/>
        <pt x="581" y="599" on="0"/>
        <pt x="577" y="594" on="0"/>
        <pt x="552" y="590" on="0"/>
        <pt x="531" y="588" on="1"/>
        <pt x="476" y="579" on="0"/>
        <pt x="456" y="573" on="1"/>
        <pt x="429" y="564" on="1"/>
        <pt x="421" y="564" on="0"/>
        <pt x="410" y="551" on="0"/>
        <pt x="405" y="534" on="1"/>
        <pt x="404" y="533" on="0"/>
        <pt x="399" y="529" on="0"/>
        <pt x="399" y="527" on="1"/>
        <pt x="399" y="525" on="0"/>
        <pt x="389" y="506" on="0"/>
        <pt x="386" y="499" on="1"/>
        <pt x="386" y="492" on="0"/>
        <pt x="376" y="467" on="1"/>
        <pt x="354" y="413" on="0"/>
        <pt x="352" y="383" on="1"/>
        <pt x="320" y="305" on="0"/>
        <pt x="319" y="284" on="1"/>
        <pt x="317" y="281" on="0"/>
        <pt x="299" y="228" on="1"/>
        <pt x="276" y="156" on="0"/>
        <pt x="271" y="152" on="1"/>
        <pt x="267" y="148" on="0"/>
        <pt x="264" y="131" on="0"/>
        <pt x="264" y="130" on="1"/>
        <pt x="255" y="103" on="0"/>
        <pt x="255" y="84" on="1"/>
        <pt x="255" y="77" on="0"/>
        <pt x="256" y="75" on="1"/>
        <pt x="314" y="75" on="0"/>
        <pt x="330" y="79" on="1"/>
        <pt x="379" y="81" on="1"/>
        <pt x="399" y="81" on="0"/>
        <pt x="417" y="76" on="0"/>
        <pt x="425" y="77" on="1"/>
        <pt x="440" y="78" on="0"/>
        <pt x="452" y="69" on="0"/>
        <pt x="460" y="51" on="1"/>
        <pt x="463" y="45" on="0"/>
        <pt x="463" y="41" on="1"/>
        <pt x="463" y="36" on="0"/>
        <pt x="453" y="32" on="1"/>
        <pt x="449" y="29" on="0"/>
        <pt x="428" y="25" on="0"/>
        <pt x="419" y="26" on="1"/>
        <pt x="313" y="27" on="1"/>
        <pt x="306" y="27" on="1"/>
        <pt x="285" y="26" on="1"/>
        <pt x="280" y="27" on="0"/>
        <pt x="260" y="24" on="0"/>
        <pt x="249" y="23" on="1"/>
        <pt x="246" y="22" on="0"/>
        <pt x="239" y="19" on="0"/>
        <pt x="235" y="15" on="0"/>
        <pt x="234" y="10" on="1"/>
        <pt x="234" y="7" on="0"/>
        <pt x="226" y="-10" on="0"/>
        <pt x="225" y="-14" on="1"/>
      </contour>
    </TTGlyph>
    <TTGlyph name="IJ" xMin="45" yMin="-188" xMax="883" yMax="688">
      <component glyphName="I" x="0" y="0" flags="0x1000"/>
      <component glyphName="J" x="440" y="0" flags="0x1000"/>
    </TTGlyph>
    <TTGlyph name="Iacute" xMin="45" yMin="-35" xMax="603" yMax="858">
      <component glyphName="I" x="0" y="0" flags="0x1000"/>
      <component glyphName="acute.cap" x="-73" y="0" flags="0x1000"/>
    </TTGlyph>
    <TTGlyph name="Ibreve" xMin="45" yMin="-35" xMax="603" yMax="846">
      <component glyphName="I" x="0" y="0" flags="0x1000"/>
      <component glyphName="breve.cap" x="-74" y="0" flags="0x1000"/>
    </TTGlyph>
    <TTGlyph name="Icircumflex" xMin="45" yMin="-35" xMax="603" yMax="842">
      <component glyphName="I" x="0" y="0" flags="0x1000"/>
      <component glyphName="circumflex.cap" x="-73" y="0" flags="0x1000"/>
    </TTGlyph>
    <TTGlyph name="Idieresis" xMin="45" yMin="-35" xMax="603" yMax="839">
      <component glyphName="I" x="0" y="0" flags="0x1000"/>
      <component glyphName="dieresis.cap" x="-75" y="0" flags="0x1000"/>
    </TTGlyph>
    <TTGlyph name="Idotaccent" xMin="45" yMin="-35" xMax="603" yMax="841">
      <component glyphName="I" x="0" y="0" flags="0x1000"/>
      <component glyphName="dotaccent.cap" x="-76" y="0" flags="0x1000"/>
    </TTGlyph>
    <TTGlyph name="Igrave" xMin="45" yMin="-35" xMax="603" yMax="863">
      <component glyphName="I" x="0" y="0" flags="0x1000"/>
      <component glyphName="grave.cap" x="-74" y="0" flags="0x1000"/>
    </TTGlyph>
    <TTGlyph name="Imacron" xMin="45" yMin="-35" xMax="603" yMax="819">
      <component glyphName="I" x="0" y="0" flags="0x1000"/>
      <component glyphName="macron.cap" x="-74" y="0" flags="0x1000"/>
    </TTGlyph>
    <TTGlyph name="Iogonek" xMin="45" yMin="-204" xMax="603" yMax="642">
      <component glyphName="I" x="0" y="0" flags="0x1000"/>
      <component glyphName="ogonek" x="34" y="-41" flags="0x1004"/>
    </TTGlyph>
    <TTGlyph name="Itilde" xMin="45" yMin="-35" xMax="603" yMax="838">
      <component glyphName="I" x="0" y="0" flags="0x1000"/>
      <component glyphName="tilde.cap" x="-75" y="0" flags="0x1000"/>
    </TTGlyph>
    <TTGlyph name="J" xMin="-39" yMin="-188" xMax="443" yMax="688">
      <contour>
        <pt x="71" y="-188" on="0"/>
        <pt x="57" y="-188" on="1"/>
        <pt x="34" y="-188" on="0"/>
        <pt x="-12" y="-167" on="0"/>
        <pt x="-29" y="-148" on="1"/>
        <pt x="-39" y="-138" on="0"/>
        <pt x="-39" y="-127" on="1"/>
        <pt x="-39" y="-121" on="0"/>
        <pt x="-36" y="-112" on="1"/>
        <pt x="-31" y="-94" on="0"/>
        <pt x="-23" y="-94" on="1"/>
        <pt x="-19" y="-94" on="0"/>
        <pt x="-4" y="-105" on="0"/>
        <pt x="2" y="-113" on="1"/>
        <pt x="22" y="-130" on="0"/>
        <pt x="40" y="-130" on="1"/>
        <pt x="76" y="-130" on="0"/>
        <pt x="116" y="-68" on="1"/>
        <pt x="142" y="-10" on="1"/>
        <pt x="198" y="113" on="0"/>
        <pt x="205" y="134" on="1"/>
        <pt x="205" y="135" on="0"/>
        <pt x="207" y="141" on="0"/>
        <pt x="210" y="145" on="1"/>
        <pt x="211" y="149" on="0"/>
        <pt x="220" y="175" on="0"/>
        <pt x="223" y="189" on="1"/>
        <pt x="265" y="308" on="1"/>
        <pt x="269" y="328" on="0"/>
        <pt x="284" y="375" on="0"/>
        <pt x="290" y="391" on="1"/>
        <pt x="294" y="399" on="0"/>
        <pt x="320" y="477" on="1"/>
        <pt x="332" y="515" on="0"/>
        <pt x="341" y="542" on="1"/>
        <pt x="345" y="554" on="0"/>
        <pt x="367" y="626" on="0"/>
        <pt x="365" y="629" on="1"/>
        <pt x="309" y="619" on="1"/>
        <pt x="298" y="614" on="0"/>
        <pt x="282" y="614" on="1"/>
        <pt x="272" y="614" on="0"/>
        <pt x="259" y="618" on="0"/>
        <pt x="260" y="621" on="1"/>
        <pt x="260" y="626" on="1"/>
        <pt x="255" y="622" on="0"/>
        <pt x="238" y="641" on="0"/>
        <pt x="239" y="649" on="1"/>
        <pt x="239" y="657" on="0"/>
        <pt x="278" y="670" on="0"/>
        <pt x="310" y="674" on="1"/>
        <pt x="382" y="684" on="1"/>
        <pt x="387" y="688" on="0"/>
        <pt x="427" y="673" on="0"/>
        <pt x="435" y="665" on="1"/>
        <pt x="443" y="654" on="0"/>
        <pt x="443" y="643" on="1"/>
        <pt x="443" y="629" on="0"/>
        <pt x="426" y="578" on="0"/>
        <pt x="396" y="497" on="1"/>
        <pt x="363" y="404" on="1"/>
        <pt x="339" y="331" on="0"/>
        <pt x="326" y="301" on="1"/>
        <pt x="322" y="288" on="0"/>
        <pt x="315" y="269" on="1"/>
        <pt x="298" y="220" on="0"/>
        <pt x="290" y="191" on="1"/>
        <pt x="278" y="163" on="0"/>
        <pt x="264" y="115" on="1"/>
        <pt x="264" y="107" on="0"/>
        <pt x="256" y="87" on="0"/>
        <pt x="251" y="82" on="1"/>
        <pt x="227" y="23" on="1"/>
        <pt x="218" y="-1" on="1"/>
        <pt x="216" y="-7" on="0"/>
        <pt x="199" y="-49" on="0"/>
        <pt x="192" y="-59" on="1"/>
        <pt x="189" y="-67" on="0"/>
        <pt x="173" y="-93" on="0"/>
        <pt x="173" y="-96" on="1"/>
        <pt x="173" y="-97" on="0"/>
        <pt x="171" y="-102" on="0"/>
        <pt x="168" y="-102" on="1"/>
        <pt x="167" y="-103" on="0"/>
        <pt x="162" y="-108" on="0"/>
        <pt x="162" y="-112" on="1"/>
        <pt x="157" y="-124" on="0"/>
        <pt x="105" y="-174" on="0"/>
        <pt x="89" y="-181" on="1"/>
      </contour>
    </TTGlyph>
    <TTGlyph name="J.ss01" xMin="-46" yMin="-194" xMax="429" yMax="686">
      <contour>
        <pt x="-46" y="-129" on="0"/>
        <pt x="-46" y="-33" on="1"/>
        <pt x="-46" y="-19" on="0"/>
        <pt x="-45" y="-12" on="1"/>
        <pt x="-44" y="4" on="0"/>
        <pt x="-39" y="13" on="0"/>
        <pt x="-28" y="12" on="1"/>
        <pt x="-24" y="12" on="0"/>
        <pt x="-14" y="1" on="0"/>
        <pt x="-15" y="-3" on="1"/>
        <pt x="-15" y="-10" on="0"/>
        <pt x="-9" y="-22" on="1"/>
        <pt x="4" y="-59" on="0"/>
        <pt x="23" y="-98" on="0"/>
        <pt x="38" y="-109" on="1"/>
        <pt x="42" y="-114" on="0"/>
        <pt x="62" y="-128" on="0"/>
        <pt x="69" y="-128" on="1"/>
        <pt x="80" y="-136" on="0"/>
        <pt x="85" y="-136" on="1"/>
        <pt x="91" y="-136" on="0"/>
        <pt x="103" y="-123" on="0"/>
        <pt x="113" y="-106" on="1"/>
        <pt x="127" y="-81" on="0"/>
        <pt x="198" y="81" on="0"/>
        <pt x="205" y="101" on="1"/>
        <pt x="206" y="102" on="0"/>
        <pt x="211" y="109" on="0"/>
        <pt x="213" y="115" on="1"/>
        <pt x="212" y="121" on="0"/>
        <pt x="230" y="172" on="0"/>
        <pt x="234" y="183" on="1"/>
        <pt x="252" y="230" on="0"/>
        <pt x="262" y="265" on="1"/>
        <pt x="293" y="362" on="0"/>
        <pt x="362" y="584" on="0"/>
        <pt x="364" y="601" on="1"/>
        <pt x="364" y="607" on="0"/>
        <pt x="362" y="615" on="0"/>
        <pt x="358" y="615" on="1"/>
        <pt x="354" y="615" on="0"/>
        <pt x="334" y="609" on="1"/>
        <pt x="327" y="607" on="0"/>
        <pt x="307" y="607" on="1"/>
        <pt x="281" y="607" on="0"/>
        <pt x="268" y="604" on="1"/>
        <pt x="249" y="602" on="0"/>
        <pt x="222" y="625" on="0"/>
        <pt x="222" y="643" on="1"/>
        <pt x="222" y="646" on="0"/>
        <pt x="224" y="656" on="1"/>
        <pt x="224" y="659" on="0"/>
        <pt x="244" y="663" on="0"/>
        <pt x="258" y="663" on="1"/>
        <pt x="273" y="662" on="1"/>
        <pt x="275" y="662" on="1"/>
        <pt x="279" y="662" on="0"/>
        <pt x="290" y="666" on="0"/>
        <pt x="292" y="666" on="1"/>
        <pt x="314" y="675" on="0"/>
        <pt x="334" y="672" on="1"/>
        <pt x="337" y="672" on="1"/>
        <pt x="344" y="672" on="0"/>
        <pt x="355" y="676" on="0"/>
        <pt x="357" y="677" on="1"/>
        <pt x="364" y="676" on="1"/>
        <pt x="372" y="676" on="0"/>
        <pt x="381" y="680" on="1"/>
        <pt x="384" y="680" on="1"/>
        <pt x="390" y="680" on="0"/>
        <pt x="399" y="682" on="0"/>
        <pt x="401" y="683" on="1"/>
        <pt x="404" y="686" on="0"/>
        <pt x="421" y="669" on="0"/>
        <pt x="426" y="659" on="1"/>
        <pt x="429" y="650" on="0"/>
        <pt x="429" y="639" on="1"/>
        <pt x="429" y="625" on="0"/>
        <pt x="419" y="578" on="0"/>
        <pt x="418" y="571" on="1"/>
        <pt x="418" y="571" on="0"/>
        <pt x="407" y="538" on="1"/>
        <pt x="398" y="509" on="0"/>
        <pt x="395" y="502" on="1"/>
        <pt x="394" y="486" on="0"/>
        <pt x="384" y="446" on="0"/>
        <pt x="378" y="435" on="1"/>
        <pt x="359" y="375" on="0"/>
        <pt x="344" y="327" on="0"/>
        <pt x="342" y="321" on="1"/>
        <pt x="342" y="320" on="0"/>
        <pt x="340" y="312" on="0"/>
        <pt x="337" y="304" on="1"/>
        <pt x="332" y="303" on="0"/>
        <pt x="327" y="286" on="0"/>
        <pt x="327" y="280" on="1"/>
        <pt x="325" y="276" on="0"/>
        <pt x="318" y="264" on="0"/>
        <pt x="314" y="260" on="1"/>
        <pt x="314" y="259" on="1"/>
        <pt x="314" y="247" on="0"/>
        <pt x="307" y="238" on="1"/>
        <pt x="307" y="224" on="0"/>
        <pt x="298" y="192" on="0"/>
        <pt x="279" y="149" on="1"/>
        <pt x="278" y="141" on="0"/>
        <pt x="252" y="76" on="1"/>
        <pt x="237" y="35" on="0"/>
        <pt x="237" y="34" on="1"/>
        <pt x="236" y="31" on="0"/>
        <pt x="225" y="7" on="0"/>
        <pt x="220" y="-4" on="1"/>
        <pt x="192" y="-61" on="0"/>
        <pt x="171" y="-110" on="1"/>
        <pt x="134" y="-194" on="0"/>
        <pt x="86" y="-194" on="1"/>
        <pt x="64" y="-194" on="0"/>
        <pt x="37" y="-178" on="1"/>
      </contour>
    </TTGlyph>
    <TTGlyph name="J.ss02" xMin="-67" yMin="-216" xMax="461" yMax="669">
      <contour>
        <pt x="-39" y="-186" on="0"/>
        <pt x="-60" y="-160" on="0"/>
        <pt x="-66" y="-135" on="1"/>
        <pt x="-67" y="-129" on="0"/>
        <pt x="-67" y="-117" on="1"/>
        <pt x="-67" y="-77" on="0"/>
        <pt x="-32" y="-73" on="1"/>
        <pt x="-32" y="-75" on="0"/>
        <pt x="-29" y="-90" on="0"/>
        <pt x="-24" y="-103" on="1"/>
        <pt x="-21" y="-157" on="0"/>
        <pt x="17" y="-155" on="1"/>
        <pt x="38" y="-153" on="0"/>
        <pt x="44" y="-147" on="1"/>
        <pt x="72" y="-129" on="0"/>
        <pt x="135" y="-37" on="0"/>
        <pt x="156" y="24" on="1"/>
        <pt x="160" y="34" on="0"/>
        <pt x="175" y="71" on="0"/>
        <pt x="187" y="97" on="1"/>
        <pt x="203" y="135" on="0"/>
        <pt x="250" y="248" on="0"/>
        <pt x="250" y="250" on="1"/>
        <pt x="248" y="256" on="0"/>
        <pt x="297" y="411" on="0"/>
        <pt x="308" y="432" on="1"/>
        <pt x="315" y="445" on="0"/>
        <pt x="325" y="471" on="0"/>
        <pt x="325" y="476" on="1"/>
        <pt x="324" y="483" on="0"/>
        <pt x="362" y="582" on="1"/>
        <pt x="365" y="590" on="0"/>
        <pt x="365" y="594" on="1"/>
        <pt x="365" y="603" on="0"/>
        <pt x="353" y="603" on="1"/>
        <pt x="339" y="601" on="1"/>
        <pt x="333" y="600" on="0"/>
        <pt x="311" y="600" on="1"/>
        <pt x="289" y="600" on="0"/>
        <pt x="279" y="599" on="1"/>
        <pt x="266" y="598" on="1"/>
        <pt x="254" y="598" on="0"/>
        <pt x="237" y="600" on="0"/>
        <pt x="232" y="600" on="1"/>
        <pt x="213" y="601" on="0"/>
        <pt x="189" y="615" on="0"/>
        <pt x="189" y="627" on="1"/>
        <pt x="189" y="635" on="0"/>
        <pt x="195" y="644" on="1"/>
        <pt x="198" y="656" on="0"/>
        <pt x="225" y="656" on="1"/>
        <pt x="247" y="656" on="0"/>
        <pt x="275" y="652" on="1"/>
        <pt x="327" y="649" on="0"/>
        <pt x="377" y="663" on="1"/>
        <pt x="405" y="669" on="0"/>
        <pt x="420" y="669" on="1"/>
        <pt x="433" y="669" on="0"/>
        <pt x="447" y="658" on="0"/>
        <pt x="454" y="643" on="1"/>
        <pt x="461" y="632" on="0"/>
        <pt x="461" y="627" on="1"/>
        <pt x="461" y="623" on="0"/>
        <pt x="452" y="611" on="1"/>
        <pt x="437" y="590" on="0"/>
        <pt x="394" y="489" on="1"/>
        <pt x="373" y="442" on="1"/>
        <pt x="367" y="415" on="0"/>
        <pt x="356" y="387" on="1"/>
        <pt x="345" y="340" on="0"/>
        <pt x="330" y="304" on="0"/>
        <pt x="330" y="301" on="1"/>
        <pt x="322" y="280" on="0"/>
        <pt x="270" y="150" on="0"/>
        <pt x="254" y="107" on="1"/>
        <pt x="240" y="79" on="0"/>
        <pt x="233" y="56" on="1"/>
        <pt x="227" y="24" on="0"/>
        <pt x="201" y="-39" on="0"/>
        <pt x="199" y="-45" on="1"/>
        <pt x="199" y="-53" on="0"/>
        <pt x="169" y="-100" on="1"/>
        <pt x="143" y="-142" on="0"/>
        <pt x="137" y="-154" on="1"/>
        <pt x="84" y="-216" on="0"/>
        <pt x="37" y="-216" on="1"/>
        <pt x="10" y="-216" on="0"/>
        <pt x="-18" y="-198" on="1"/>
      </contour>
    </TTGlyph>
    <TTGlyph name="Jcircumflex" xMin="-39" yMin="-188" xMax="505" yMax="842">
      <component glyphName="J" x="0" y="0" flags="0x1000"/>
      <component glyphName="circumflex.cap" x="-134" y="0" flags="0x1000"/>
    </TTGlyph>
    <TTGlyph name="K" xMin="78" yMin="-53" xMax="676" yMax="662">
      <contour>
        <pt x="676" y="591" on="0"/>
        <pt x="663" y="576" on="0"/>
        <pt x="641" y="564" on="1"/>
        <pt x="596" y="542" on="0"/>
        <pt x="590" y="531" on="1"/>
        <pt x="585" y="527" on="0"/>
        <pt x="550" y="501" on="0"/>
        <pt x="524" y="482" on="1"/>
        <pt x="485" y="456" on="0"/>
        <pt x="428" y="410" on="0"/>
        <pt x="419" y="398" on="1"/>
        <pt x="416" y="398" on="0"/>
        <pt x="407" y="392" on="0"/>
        <pt x="404" y="393" on="1"/>
        <pt x="402" y="392" on="0"/>
        <pt x="388" y="382" on="0"/>
        <pt x="385" y="378" on="1"/>
        <pt x="382" y="370" on="0"/>
        <pt x="369" y="355" on="0"/>
        <pt x="360" y="356" on="1"/>
        <pt x="341" y="346" on="0"/>
        <pt x="285" y="301" on="1"/>
        <pt x="292" y="224" on="0"/>
        <pt x="324" y="166" on="1"/>
        <pt x="353" y="102" on="0"/>
        <pt x="383" y="72" on="1"/>
        <pt x="404" y="49" on="0"/>
        <pt x="441" y="23" on="0"/>
        <pt x="451" y="23" on="1"/>
        <pt x="460" y="20" on="0"/>
        <pt x="492" y="-2" on="0"/>
        <pt x="493" y="-9" on="1"/>
        <pt x="494" y="-11" on="0"/>
        <pt x="494" y="-17" on="1"/>
        <pt x="494" y="-32" on="0"/>
        <pt x="489" y="-39" on="1"/>
        <pt x="485" y="-46" on="0"/>
        <pt x="479" y="-53" on="0"/>
        <pt x="472" y="-53" on="1"/>
        <pt x="461" y="-53" on="0"/>
        <pt x="445" y="-45" on="1"/>
        <pt x="429" y="-46" on="0"/>
        <pt x="351" y="16" on="0"/>
        <pt x="330" y="42" on="1"/>
        <pt x="303" y="81" on="0"/>
        <pt x="264" y="145" on="0"/>
        <pt x="254" y="183" on="1"/>
        <pt x="250" y="201" on="0"/>
        <pt x="239" y="237" on="1"/>
        <pt x="232" y="256" on="0"/>
        <pt x="231" y="264" on="1"/>
        <pt x="231" y="283" on="1"/>
        <pt x="219" y="253" on="1"/>
        <pt x="218" y="250" on="0"/>
        <pt x="195" y="190" on="0"/>
        <pt x="174" y="114" on="1"/>
        <pt x="158" y="62" on="1"/>
        <pt x="135" y="-10" on="0"/>
        <pt x="120" y="-48" on="0"/>
        <pt x="112" y="-48" on="1"/>
        <pt x="108" y="-48" on="0"/>
        <pt x="95" y="-39" on="0"/>
        <pt x="92" y="-37" on="1"/>
        <pt x="84" y="-32" on="0"/>
        <pt x="78" y="-24" on="0"/>
        <pt x="78" y="-18" on="1"/>
        <pt x="78" y="-11" on="0"/>
        <pt x="83" y="7" on="1"/>
        <pt x="82" y="20" on="0"/>
        <pt x="88" y="44" on="0"/>
        <pt x="88" y="46" on="1"/>
        <pt x="95" y="46" on="0"/>
        <pt x="95" y="62" on="1"/>
        <pt x="95" y="70" on="0"/>
        <pt x="104" y="97" on="1"/>
        <pt x="113" y="128" on="1"/>
        <pt x="125" y="157" on="1"/>
        <pt x="136" y="185" on="0"/>
        <pt x="136" y="187" on="1"/>
        <pt x="136" y="200" on="0"/>
        <pt x="149" y="220" on="1"/>
        <pt x="153" y="232" on="0"/>
        <pt x="159" y="260" on="0"/>
        <pt x="159" y="269" on="1"/>
        <pt x="161" y="274" on="0"/>
        <pt x="179" y="310" on="0"/>
        <pt x="183" y="328" on="1"/>
        <pt x="184" y="333" on="0"/>
        <pt x="189" y="345" on="0"/>
        <pt x="192" y="354" on="1"/>
        <pt x="225" y="444" on="1"/>
        <pt x="240" y="478" on="1"/>
        <pt x="242" y="483" on="0"/>
        <pt x="265" y="535" on="0"/>
        <pt x="269" y="535" on="1"/>
        <pt x="269" y="546" on="1"/>
        <pt x="269" y="550" on="0"/>
        <pt x="280" y="572" on="1"/>
        <pt x="292" y="596" on="1"/>
        <pt x="300" y="608" on="0"/>
        <pt x="309" y="634" on="0"/>
        <pt x="310" y="638" on="1"/>
        <pt x="311" y="640" on="0"/>
        <pt x="317" y="650" on="0"/>
        <pt x="321" y="654" on="1"/>
        <pt x="332" y="662" on="0"/>
        <pt x="341" y="662" on="1"/>
        <pt x="355" y="662" on="0"/>
        <pt x="365" y="642" on="1"/>
        <pt x="372" y="628" on="0"/>
        <pt x="372" y="617" on="1"/>
        <pt x="372" y="607" on="0"/>
        <pt x="363" y="593" on="1"/>
        <pt x="329" y="520" on="0"/>
        <pt x="260" y="366" on="0"/>
        <pt x="260" y="354" on="1"/>
        <pt x="294" y="379" on="1"/>
        <pt x="320" y="405" on="0"/>
        <pt x="377" y="448" on="1"/>
        <pt x="500" y="548" on="1"/>
        <pt x="528" y="562" on="0"/>
        <pt x="566" y="592" on="1"/>
        <pt x="576" y="598" on="0"/>
        <pt x="588" y="608" on="0"/>
        <pt x="592" y="610" on="1"/>
        <pt x="598" y="615" on="0"/>
        <pt x="634" y="640" on="0"/>
        <pt x="639" y="639" on="1"/>
        <pt x="650" y="644" on="0"/>
        <pt x="676" y="614" on="0"/>
        <pt x="674" y="601" on="1"/>
      </contour>
    </TTGlyph>
    <TTGlyph name="K.ss01" xMin="77" yMin="-56" xMax="644" yMax="684">
      <contour>
        <pt x="522" y="-39" on="0"/>
        <pt x="486" y="-26" on="0"/>
        <pt x="449" y="0" on="0"/>
        <pt x="440" y="19" on="1"/>
        <pt x="423" y="38" on="1"/>
        <pt x="395" y="68" on="0"/>
        <pt x="392" y="73" on="1"/>
        <pt x="325" y="140" on="0"/>
        <pt x="289" y="194" on="1"/>
        <pt x="271" y="213" on="1"/>
        <pt x="242" y="244" on="0"/>
        <pt x="230" y="248" on="1"/>
        <pt x="219" y="240" on="0"/>
        <pt x="214" y="211" on="1"/>
        <pt x="204" y="190" on="0"/>
        <pt x="192" y="140" on="1"/>
        <pt x="184" y="122" on="0"/>
        <pt x="173" y="81" on="0"/>
        <pt x="171" y="74" on="1"/>
        <pt x="161" y="46" on="0"/>
        <pt x="156" y="41" on="1"/>
        <pt x="147" y="2" on="1"/>
        <pt x="140" y="-31" on="0"/>
        <pt x="130" y="-56" on="0"/>
        <pt x="122" y="-56" on="1"/>
        <pt x="115" y="-56" on="0"/>
        <pt x="94" y="-38" on="1"/>
        <pt x="92" y="-35" on="0"/>
        <pt x="77" y="-9" on="0"/>
        <pt x="77" y="-5" on="1"/>
        <pt x="79" y="0" on="0"/>
        <pt x="89" y="31" on="0"/>
        <pt x="96" y="54" on="1"/>
        <pt x="113" y="107" on="1"/>
        <pt x="152" y="223" on="0"/>
        <pt x="163" y="269" on="1"/>
        <pt x="166" y="272" on="0"/>
        <pt x="168" y="282" on="0"/>
        <pt x="168" y="288" on="1"/>
        <pt x="178" y="318" on="0"/>
        <pt x="224" y="439" on="0"/>
        <pt x="236" y="458" on="1"/>
        <pt x="239" y="464" on="0"/>
        <pt x="241" y="476" on="0"/>
        <pt x="241" y="478" on="1"/>
        <pt x="241" y="482" on="0"/>
        <pt x="246" y="488" on="0"/>
        <pt x="250" y="489" on="1"/>
        <pt x="250" y="502" on="0"/>
        <pt x="255" y="508" on="1"/>
        <pt x="262" y="523" on="0"/>
        <pt x="309" y="657" on="0"/>
        <pt x="309" y="661" on="1"/>
        <pt x="309" y="666" on="0"/>
        <pt x="317" y="676" on="0"/>
        <pt x="318" y="677" on="1"/>
        <pt x="326" y="684" on="0"/>
        <pt x="338" y="684" on="1"/>
        <pt x="349" y="684" on="0"/>
        <pt x="370" y="670" on="0"/>
        <pt x="378" y="657" on="1"/>
        <pt x="378" y="650" on="0"/>
        <pt x="371" y="623" on="0"/>
        <pt x="365" y="608" on="1"/>
        <pt x="346" y="565" on="1"/>
        <pt x="343" y="556" on="0"/>
        <pt x="322" y="497" on="0"/>
        <pt x="306" y="455" on="1"/>
        <pt x="285" y="413" on="0"/>
        <pt x="261" y="349" on="0"/>
        <pt x="265" y="345" on="1"/>
        <pt x="272" y="350" on="0"/>
        <pt x="324" y="391" on="0"/>
        <pt x="351" y="417" on="1"/>
        <pt x="388" y="455" on="0"/>
        <pt x="471" y="515" on="1"/>
        <pt x="545" y="565" on="0"/>
        <pt x="583" y="587" on="0"/>
        <pt x="599" y="588" on="1"/>
        <pt x="604" y="590" on="0"/>
        <pt x="610" y="590" on="1"/>
        <pt x="614" y="590" on="0"/>
        <pt x="626" y="582" on="0"/>
        <pt x="632" y="579" on="1"/>
        <pt x="643" y="559" on="1"/>
        <pt x="644" y="550" on="0"/>
        <pt x="622" y="532" on="0"/>
        <pt x="597" y="519" on="1"/>
        <pt x="555" y="493" on="0"/>
        <pt x="423" y="390" on="0"/>
        <pt x="318" y="295" on="0"/>
        <pt x="311" y="278" on="1"/>
        <pt x="306" y="271" on="0"/>
        <pt x="306" y="268" on="1"/>
        <pt x="306" y="260" on="0"/>
        <pt x="328" y="239" on="1"/>
        <pt x="341" y="223" on="0"/>
        <pt x="356" y="204" on="0"/>
        <pt x="358" y="201" on="1"/>
        <pt x="358" y="195" on="0"/>
        <pt x="424" y="132" on="1"/>
        <pt x="426" y="127" on="0"/>
        <pt x="444" y="107" on="1"/>
        <pt x="470" y="79" on="0"/>
        <pt x="480" y="62" on="1"/>
        <pt x="546" y="-7" on="0"/>
        <pt x="546" y="-28" on="1"/>
        <pt x="546" y="-39" on="0"/>
        <pt x="529" y="-39" on="1"/>
      </contour>
    </TTGlyph>
    <TTGlyph name="K.ss02" xMin="75" yMin="-20" xMax="635" yMax="667">
      <contour>
        <pt x="95" y="-19" on="0"/>
        <pt x="77" y="7" on="0"/>
        <pt x="75" y="22" on="1"/>
        <pt x="78" y="27" on="0"/>
        <pt x="84" y="56" on="0"/>
        <pt x="87" y="58" on="1"/>
        <pt x="88" y="66" on="0"/>
        <pt x="98" y="105" on="0"/>
        <pt x="100" y="122" on="1"/>
        <pt x="105" y="133" on="0"/>
        <pt x="113" y="157" on="1"/>
        <pt x="118" y="175" on="0"/>
        <pt x="123" y="185" on="1"/>
        <pt x="126" y="193" on="0"/>
        <pt x="134" y="217" on="0"/>
        <pt x="137" y="222" on="1"/>
        <pt x="139" y="229" on="0"/>
        <pt x="153" y="271" on="0"/>
        <pt x="161" y="300" on="0"/>
        <pt x="162" y="313" on="1"/>
        <pt x="172" y="331" on="0"/>
        <pt x="176" y="351" on="1"/>
        <pt x="177" y="353" on="0"/>
        <pt x="196" y="392" on="0"/>
        <pt x="202" y="419" on="1"/>
        <pt x="207" y="432" on="0"/>
        <pt x="234" y="496" on="1"/>
        <pt x="238" y="505" on="0"/>
        <pt x="249" y="529" on="0"/>
        <pt x="255" y="546" on="1"/>
        <pt x="268" y="585" on="1"/>
        <pt x="268" y="593" on="0"/>
        <pt x="289" y="631" on="1"/>
        <pt x="296" y="644" on="0"/>
        <pt x="312" y="666" on="0"/>
        <pt x="315" y="666" on="1"/>
        <pt x="331" y="667" on="0"/>
        <pt x="358" y="645" on="0"/>
        <pt x="358" y="632" on="1"/>
        <pt x="358" y="625" on="0"/>
        <pt x="353" y="618" on="1"/>
        <pt x="349" y="612" on="0"/>
        <pt x="311" y="521" on="1"/>
        <pt x="286" y="464" on="1"/>
        <pt x="285" y="461" on="0"/>
        <pt x="276" y="438" on="1"/>
        <pt x="274" y="432" on="0"/>
        <pt x="259" y="395" on="0"/>
        <pt x="255" y="380" on="1"/>
        <pt x="244" y="363" on="0"/>
        <pt x="229" y="312" on="0"/>
        <pt x="227" y="308" on="1"/>
        <pt x="217" y="286" on="0"/>
        <pt x="215" y="283" on="1"/>
        <pt x="205" y="261" on="1"/>
        <pt x="205" y="235" on="0"/>
        <pt x="197" y="225" on="1"/>
        <pt x="194" y="215" on="0"/>
        <pt x="188" y="202" on="0"/>
        <pt x="187" y="200" on="1"/>
        <pt x="186" y="194" on="0"/>
        <pt x="182" y="181" on="0"/>
        <pt x="181" y="175" on="1"/>
        <pt x="174" y="155" on="0"/>
        <pt x="153" y="81" on="1"/>
        <pt x="140" y="34" on="0"/>
        <pt x="127" y="-7" on="0"/>
        <pt x="117" y="-20" on="0"/>
        <pt x="108" y="-20" on="1"/>
      </contour>
      <contour>
        <pt x="499" y="32" on="0"/>
        <pt x="469" y="40" on="0"/>
        <pt x="434" y="59" on="0"/>
        <pt x="423" y="71" on="1"/>
        <pt x="394" y="91" on="0"/>
        <pt x="323" y="172" on="0"/>
        <pt x="302" y="209" on="1"/>
        <pt x="291" y="232" on="1"/>
        <pt x="287" y="241" on="0"/>
        <pt x="279" y="255" on="0"/>
        <pt x="274" y="255" on="1"/>
        <pt x="263" y="254" on="0"/>
        <pt x="241" y="284" on="0"/>
        <pt x="236" y="304" on="1"/>
        <pt x="237" y="313" on="0"/>
        <pt x="248" y="325" on="0"/>
        <pt x="256" y="324" on="1"/>
        <pt x="257" y="331" on="0"/>
        <pt x="422" y="491" on="0"/>
        <pt x="454" y="514" on="1"/>
        <pt x="462" y="525" on="0"/>
        <pt x="470" y="533" on="1"/>
        <pt x="472" y="534" on="0"/>
        <pt x="486" y="541" on="0"/>
        <pt x="492" y="547" on="1"/>
        <pt x="500" y="551" on="0"/>
        <pt x="513" y="566" on="0"/>
        <pt x="516" y="572" on="1"/>
        <pt x="522" y="575" on="0"/>
        <pt x="544" y="591" on="0"/>
        <pt x="558" y="599" on="1"/>
        <pt x="572" y="607" on="0"/>
        <pt x="590" y="619" on="0"/>
        <pt x="592" y="621" on="1"/>
        <pt x="600" y="621" on="0"/>
        <pt x="624" y="603" on="0"/>
        <pt x="627" y="596" on="1"/>
        <pt x="635" y="583" on="0"/>
        <pt x="635" y="581" on="1"/>
        <pt x="635" y="579" on="0"/>
        <pt x="629" y="575" on="0"/>
        <pt x="627" y="573" on="1"/>
        <pt x="620" y="558" on="0"/>
        <pt x="602" y="544" on="0"/>
        <pt x="586" y="536" on="1"/>
        <pt x="584" y="535" on="0"/>
        <pt x="563" y="524" on="0"/>
        <pt x="554" y="514" on="1"/>
        <pt x="541" y="500" on="0"/>
        <pt x="513" y="482" on="1"/>
        <pt x="511" y="480" on="0"/>
        <pt x="483" y="463" on="0"/>
        <pt x="472" y="450" on="1"/>
        <pt x="452" y="431" on="1"/>
        <pt x="407" y="388" on="0"/>
        <pt x="382" y="369" on="1"/>
        <pt x="379" y="366" on="0"/>
        <pt x="347" y="335" on="0"/>
        <pt x="316" y="303" on="1"/>
        <pt x="336" y="260" on="1"/>
        <pt x="380" y="198" on="0"/>
        <pt x="472" y="106" on="0"/>
        <pt x="501" y="99" on="1"/>
        <pt x="516" y="94" on="0"/>
        <pt x="526" y="76" on="1"/>
        <pt x="530" y="75" on="0"/>
        <pt x="534" y="67" on="0"/>
        <pt x="534" y="63" on="1"/>
        <pt x="534" y="54" on="0"/>
        <pt x="517" y="37" on="0"/>
        <pt x="501" y="36" on="1"/>
      </contour>
    </TTGlyph>
    <TTGlyph name="Kcommaaccent" xMin="78" yMin="-183" xMax="676" yMax="662">
      <component glyphName="K" x="0" y="0" flags="0x1000"/>
      <component glyphName="uni0326" x="276" y="0" flags="0x1000"/>
    </TTGlyph>
    <TTGlyph name="L" xMin="101" yMin="-43" xMax="449" yMax="685">
      <contour>
        <pt x="178" y="-28" on="0"/>
        <pt x="114" y="31" on="0"/>
        <pt x="105" y="64" on="1"/>
        <pt x="101" y="94" on="0"/>
        <pt x="101" y="131" on="1"/>
        <pt x="101" y="155" on="0"/>
        <pt x="104" y="158" on="1"/>
        <pt x="107" y="160" on="0"/>
        <pt x="107" y="170" on="1"/>
        <pt x="106" y="176" on="0"/>
        <pt x="114" y="203" on="1"/>
        <pt x="121" y="221" on="0"/>
        <pt x="118" y="234" on="1"/>
        <pt x="119" y="236" on="0"/>
        <pt x="124" y="246" on="0"/>
        <pt x="128" y="251" on="1"/>
        <pt x="133" y="256" on="0"/>
        <pt x="134" y="267" on="0"/>
        <pt x="133" y="269" on="1"/>
        <pt x="133" y="270" on="1"/>
        <pt x="133" y="274" on="0"/>
        <pt x="138" y="287" on="0"/>
        <pt x="141" y="291" on="1"/>
        <pt x="144" y="294" on="0"/>
        <pt x="149" y="304" on="0"/>
        <pt x="150" y="306" on="1"/>
        <pt x="151" y="313" on="0"/>
        <pt x="180" y="388" on="0"/>
        <pt x="185" y="396" on="1"/>
        <pt x="185" y="398" on="1"/>
        <pt x="189" y="408" on="0"/>
        <pt x="196" y="419" on="1"/>
        <pt x="198" y="433" on="0"/>
        <pt x="210" y="458" on="1"/>
        <pt x="233" y="509" on="0"/>
        <pt x="316" y="642" on="0"/>
        <pt x="340" y="665" on="1"/>
        <pt x="350" y="676" on="0"/>
        <pt x="363" y="685" on="0"/>
        <pt x="369" y="685" on="1"/>
        <pt x="378" y="685" on="0"/>
        <pt x="392" y="671" on="1"/>
        <pt x="404" y="659" on="0"/>
        <pt x="404" y="639" on="1"/>
        <pt x="404" y="628" on="0"/>
        <pt x="400" y="628" on="1"/>
        <pt x="387" y="619" on="0"/>
        <pt x="309" y="507" on="0"/>
        <pt x="285" y="463" on="1"/>
        <pt x="272" y="435" on="0"/>
        <pt x="253" y="397" on="0"/>
        <pt x="250" y="391" on="1"/>
        <pt x="246" y="382" on="1"/>
        <pt x="222" y="331" on="0"/>
        <pt x="201" y="272" on="1"/>
        <pt x="196" y="266" on="0"/>
        <pt x="193" y="253" on="0"/>
        <pt x="193" y="251" on="1"/>
        <pt x="191" y="252" on="0"/>
        <pt x="188" y="239" on="0"/>
        <pt x="186" y="234" on="1"/>
        <pt x="179" y="228" on="0"/>
        <pt x="179" y="205" on="1"/>
        <pt x="168" y="178" on="0"/>
        <pt x="154" y="96" on="0"/>
        <pt x="156" y="76" on="1"/>
        <pt x="160" y="43" on="0"/>
        <pt x="211" y="23" on="1"/>
        <pt x="234" y="14" on="0"/>
        <pt x="245" y="14" on="1"/>
        <pt x="252" y="13" on="0"/>
        <pt x="281" y="17" on="0"/>
        <pt x="300" y="20" on="1"/>
        <pt x="299" y="20" on="1"/>
        <pt x="304" y="21" on="0"/>
        <pt x="354" y="32" on="1"/>
        <pt x="378" y="35" on="0"/>
        <pt x="394" y="41" on="1"/>
        <pt x="424" y="50" on="0"/>
        <pt x="433" y="50" on="1"/>
        <pt x="439" y="50" on="0"/>
        <pt x="441" y="48" on="1"/>
        <pt x="449" y="42" on="0"/>
        <pt x="449" y="33" on="1"/>
        <pt x="447" y="24" on="1"/>
        <pt x="444" y="16" on="0"/>
        <pt x="386" y="-16" on="0"/>
        <pt x="359" y="-24" on="1"/>
        <pt x="338" y="-33" on="0"/>
        <pt x="283" y="-43" on="0"/>
        <pt x="257" y="-43" on="1"/>
        <pt x="230" y="-43" on="0"/>
        <pt x="217" y="-38" on="1"/>
      </contour>
    </TTGlyph>
    <TTGlyph name="L.ss01" xMin="117" yMin="-36" xMax="428" yMax="682">
      <contour>
        <pt x="233" y="-36" on="0"/>
        <pt x="221" y="-36" on="1"/>
        <pt x="210" y="-36" on="0"/>
        <pt x="189" y="-31" on="0"/>
        <pt x="173" y="-26" on="0"/>
        <pt x="169" y="-25" on="1"/>
        <pt x="156" y="-17" on="0"/>
        <pt x="135" y="1" on="0"/>
        <pt x="131" y="4" on="1"/>
        <pt x="131" y="8" on="0"/>
        <pt x="127" y="14" on="0"/>
        <pt x="126" y="15" on="1"/>
        <pt x="122" y="15" on="0"/>
        <pt x="117" y="47" on="0"/>
        <pt x="117" y="70" on="1"/>
        <pt x="117" y="95" on="0"/>
        <pt x="123" y="140" on="0"/>
        <pt x="127" y="147" on="1"/>
        <pt x="127" y="151" on="0"/>
        <pt x="132" y="169" on="0"/>
        <pt x="132" y="172" on="1"/>
        <pt x="132" y="180" on="0"/>
        <pt x="134" y="189" on="0"/>
        <pt x="137" y="189" on="1"/>
        <pt x="138" y="189" on="0"/>
        <pt x="142" y="191" on="0"/>
        <pt x="142" y="193" on="1"/>
        <pt x="142" y="198" on="0"/>
        <pt x="150" y="222" on="0"/>
        <pt x="152" y="229" on="1"/>
        <pt x="156" y="236" on="0"/>
        <pt x="168" y="270" on="1"/>
        <pt x="172" y="284" on="0"/>
        <pt x="179" y="301" on="1"/>
        <pt x="182" y="316" on="0"/>
        <pt x="197" y="355" on="1"/>
        <pt x="206" y="380" on="1"/>
        <pt x="220" y="404" on="0"/>
        <pt x="220" y="416" on="1"/>
        <pt x="227" y="436" on="0"/>
        <pt x="328" y="632" on="0"/>
        <pt x="343" y="652" on="1"/>
        <pt x="358" y="671" on="0"/>
        <pt x="374" y="682" on="0"/>
        <pt x="384" y="682" on="1"/>
        <pt x="392" y="679" on="0"/>
        <pt x="418" y="652" on="0"/>
        <pt x="419" y="644" on="1"/>
        <pt x="419" y="640" on="0"/>
        <pt x="384" y="589" on="0"/>
        <pt x="368" y="572" on="1"/>
        <pt x="366" y="569" on="0"/>
        <pt x="364" y="563" on="0"/>
        <pt x="364" y="562" on="1"/>
        <pt x="357" y="550" on="0"/>
        <pt x="320" y="481" on="0"/>
        <pt x="318" y="469" on="1"/>
        <pt x="306" y="455" on="0"/>
        <pt x="271" y="371" on="1"/>
        <pt x="255" y="334" on="0"/>
        <pt x="253" y="332" on="1"/>
        <pt x="253" y="320" on="0"/>
        <pt x="248" y="313" on="1"/>
        <pt x="246" y="308" on="0"/>
        <pt x="229" y="256" on="0"/>
        <pt x="217" y="231" on="1"/>
        <pt x="210" y="203" on="0"/>
        <pt x="191" y="156" on="0"/>
        <pt x="185" y="150" on="1"/>
        <pt x="182" y="143" on="0"/>
        <pt x="181" y="137" on="0"/>
        <pt x="185" y="138" on="1"/>
        <pt x="188" y="141" on="0"/>
        <pt x="189" y="141" on="1"/>
        <pt x="190" y="141" on="0"/>
        <pt x="190" y="139" on="1"/>
        <pt x="190" y="136" on="0"/>
        <pt x="185" y="128" on="1"/>
        <pt x="175" y="102" on="0"/>
        <pt x="175" y="78" on="1"/>
        <pt x="177" y="45" on="0"/>
        <pt x="191" y="23" on="0"/>
        <pt x="214" y="23" on="1"/>
        <pt x="261" y="23" on="0"/>
        <pt x="328" y="39" on="1"/>
        <pt x="358" y="49" on="0"/>
        <pt x="383" y="49" on="1"/>
        <pt x="410" y="49" on="0"/>
        <pt x="420" y="36" on="1"/>
        <pt x="425" y="28" on="0"/>
        <pt x="428" y="19" on="0"/>
        <pt x="428" y="12" on="1"/>
        <pt x="422" y="3" on="0"/>
        <pt x="290" y="-31" on="0"/>
        <pt x="256" y="-33" on="1"/>
      </contour>
    </TTGlyph>
</ttFont>
